<?xml version="1.0" encoding="UTF-8" standalone="no"?><!DOCTYPE svg PUBLIC "-//W3C//DTD SVG 1.1//EN" "http://www.w3.org/Graphics/SVG/1.1/DTD/svg11.dtd"><svg width="100%" height="100%" viewBox="0 0 203 41" version="1.1" xmlns="http://www.w3.org/2000/svg" xmlns:xlink="http://www.w3.org/1999/xlink" xml:space="preserve" xmlns:serif="http://www.serif.com/" style="fill-rule:evenodd;clip-rule:evenodd;stroke-linejoin:round;stroke-miterlimit:2;"><g id="Logo-and-Name" serif:id="Logo and Name"><g id="Logo"><g id="Minimalist-Logo" serif:id="Minimalist Logo"><g id="Minimalist"><path id="Stem" d="M19.28,38.499c0.008,-1.762 0.304,-2.444 0.468,-3.25c0.408,-2.014 0.603,-4.12 0.799,-2.183c0.019,0.186 0.099,3.42 0.106,4.737l0.012,2.394l-1.393,-0l0.008,-1.698l-0,0Z" style="fill:#1d0e2a;fill-rule:nonzero;"/><path id="Petals" d="M20.966,33.837c-0.146,-0.683 -0.367,-3.043 -0.367,-3.043c0.023,-1.772 0.109,-3.496 0.192,-3.831c0.137,-0.554 0.178,-0.443 0.45,1.226c0.165,1.009 0.349,2.599 0.411,3.532c0.061,0.933 0.158,1.726 0.215,1.762c0.101,0.063 0.028,-1.581 -0.249,-5.606l-0.135,-1.959l0.453,0c0.585,0 1.045,0.613 2.218,2.96c1.265,2.534 1.735,3.992 1.855,5.755c0.086,1.265 0.048,1.611 -0.254,2.293c-0.428,0.966 -1.023,1.394 -1.976,1.419c-0.946,0.025 -1.501,-0.601 -2.238,-2.525c-0.307,-0.801 -0.375,-1.048 -0.575,-1.983Zm-5.302,4.101c-0.668,-0.407 -0.828,-0.925 -0.68,-2.19c0.141,-1.196 0.332,-1.648 2.595,-6.13c1.735,-3.435 2.158,-4.042 2.468,-3.54c0.126,0.204 0.248,4.158 -0.088,6.487c-0.388,2.695 -1.452,4.615 -2.689,5.388c-0.66,0.413 -0.909,0.41 -1.606,-0.015l-0,-0Zm-7.089,-2.02c-0.327,-0.327 -0.33,-0.378 -0.071,-1.137c0.272,-0.796 1.202,-2.252 2.361,-3.694c0.524,-0.653 0.921,-1.221 0.881,-1.261c-0.041,-0.04 -0.342,0.128 -0.671,0.375c-1.065,0.798 -3.317,1.835 -4.54,2.09c-1.038,0.216 -1.272,0.216 -1.797,-0.003c-1.026,-0.429 -0.972,-1.326 0.163,-2.675c0.495,-0.588 2.582,-1.521 7.145,-3.192c1.532,-0.561 3.121,-1.256 3.531,-1.545c0.41,-0.289 0.828,-0.525 0.929,-0.525c0.101,0 0.533,0.25 0.958,0.556l0.774,0.556l-1.1,1.142c-1.451,1.505 -1.791,1.925 -1.557,1.925c0.107,0 0.822,-0.587 1.59,-1.306c0.768,-0.718 1.516,-1.306 1.662,-1.306c0.146,0 0.265,0.021 0.265,0.045c-0,0.201 -3.443,6.621 -3.839,7.161c-1.291,1.755 -3.573,3.068 -5.334,3.068c-0.746,0 -1.16,-0.084 -1.35,-0.274l0,0Zm19.911,-1.176c-0.955,-0.505 -2.094,-2.157 -3.024,-4.384c-0.36,-0.861 -1.038,-2.209 -1.507,-2.995c-0.468,-0.785 -0.852,-1.501 -0.852,-1.59c-0,-0.177 0.582,-0.371 1.121,-0.375c0.472,-0.003 6.282,5.802 6.705,6.7c0.507,1.078 0.619,2.108 0.283,2.619c-0.384,0.587 -1.642,0.598 -2.726,0.025Zm4.53,-3.233c-1.752,-0.56 -3.345,-1.747 -7.193,-5.359c-1.106,-1.038 -1.448,-1.451 -1.203,-1.451c0.666,0 6.464,2.116 8.81,3.214c1.139,0.534 1.444,0.77 1.879,1.454c0.776,1.221 0.822,1.584 0.261,2.066c-0.565,0.486 -1.213,0.506 -2.554,0.076Zm-30.68,-3.516c-0.407,-0.208 -0.383,-1.071 0.089,-1.498c1.438,-1.303 2.825,-1.758 4.048,-2.119c0.671,-0.197 2.12,-0.525 3.222,-0.727c1.101,-0.203 2.59,-0.49 3.308,-0.638c2.386,-0.491 2.516,-0.49 2.752,0.027c0.321,0.705 0.261,0.884 -0.453,1.356c-1.238,0.82 -2.41,1.325 -5.933,2.557c-3.391,1.186 -3.579,1.19 -5.123,1.225c-0.862,0.02 -1.542,0.004 -1.91,-0.183Zm31.215,-0.581c-7.632,-2.731 -8.946,-3.308 -8.361,-3.669c0.097,-0.06 0.177,-0.252 0.177,-0.427c-0,-0.496 0.423,-0.505 3.221,-0.073c5.078,0.784 6.801,1.341 8.336,2.692c0.935,0.823 1.003,1.212 0.3,1.713c-0.729,0.519 -1.746,0.454 -3.673,-0.236Zm-30.866,-3.681c-1.562,-0.379 -2.545,-0.987 -2.562,-1.584c-0.006,-0.219 1.344,-1.241 2.276,-1.723c0.524,-0.271 0.964,-0.288 4.418,-0.17c2.109,0.072 4.893,0.22 6.186,0.329c2.274,0.192 2.353,0.212 2.409,0.61c0.032,0.227 -0.007,0.474 -0.087,0.55c-0.08,0.076 -1.203,0.345 -2.496,0.597c-1.293,0.252 -3.526,0.73 -4.963,1.062c-2.821,0.652 -3.635,0.703 -5.181,0.329Zm29.995,-0.431c-0.814,-0.176 -2.616,-0.49 -4.005,-0.698c-1.389,-0.209 -2.623,-0.407 -2.742,-0.442c-0.336,-0.096 -0.268,-1.079 0.087,-1.264c0.167,-0.088 1.088,-0.25 2.046,-0.361c0.957,-0.111 2.228,-0.315 2.823,-0.453c1.878,-0.435 4.191,-0.519 5.312,-0.193c1.086,0.316 2.341,1.18 2.737,1.883c0.331,0.591 0.088,0.909 -1.121,1.473c-1.086,0.506 -2.95,0.526 -5.137,0.055Zm-6.973,-3.259c-0.004,-0.167 -0.118,-0.615 -0.253,-0.995c-0.244,-0.684 -0.241,-0.694 0.312,-1.169c0.307,-0.264 1.499,-1.125 2.648,-1.913c1.149,-0.789 2.677,-1.879 3.396,-2.422c0.718,-0.543 1.714,-1.193 2.214,-1.445c1.684,-0.849 3.184,-0.49 3.184,0.761c-0,0.631 -0.431,1.558 -1.707,2.051c-0.693,0.268 -2.297,0.091 -2.943,0.399c-0.213,0.251 0.261,-0.07 3.268,-0.024c2.273,0.034 3.297,1.066 3.297,1.826c0,1.074 -1.826,1.821 -4.963,2.029c-1.258,0.083 -3.385,0.384 -4.788,0.678c-2.969,0.62 -3.654,0.662 -3.665,0.224Zm-11.572,-0.071c-0.574,-0.074 -3.199,-0.208 -5.833,-0.298c-5.313,-0.182 -6.106,-0.324 -7.078,-1.266c-1.02,-0.989 -0.76,-1.699 0.888,-2.428c0.843,-0.373 1.459,-0.216 2.954,0.116c0.824,0.183 0.67,-0.139 -0.455,-0.706c-0.953,-0.48 -2.404,-1.617 -2.404,-2.158c0,-0.183 0.15,-0.518 0.333,-0.744c0.281,-0.348 0.491,-0.411 1.35,-0.41c0.835,0 1.388,0.16 3.106,0.896c1.149,0.492 2.638,1.104 3.308,1.359c0.671,0.255 1.846,0.842 2.612,1.304c1.832,1.105 2.873,1.621 2.873,1.424c0,-0.088 -0.685,-0.52 -1.523,-0.96c-0.838,-0.439 -1.72,-0.913 -1.959,-1.054c-0.24,-0.14 -1.158,-0.605 -2.042,-1.033c-0.884,-0.428 -1.964,-1.035 -2.401,-1.348c-0.886,-0.637 -2.871,-3.148 -2.871,-3.634c0,-1.007 1.531,-1.504 3.045,-0.988c1.161,0.395 2.522,1.45 2.827,2.192c0.417,1.011 2.076,3.095 3.999,5.019c0.988,0.989 1.796,1.884 1.796,1.989c0,0.218 -0.681,1.363 -0.812,1.363c-0.047,-0 -1.354,-0.5 -2.902,-1.111c-3.581,-1.411 -5.573,-2.065 -6.076,-1.992c-0.249,0.036 0.477,0.372 1.954,0.905c4.949,1.783 6.791,2.616 6.791,3.067c0,0.512 -0.373,0.637 -1.48,0.496Zm10.535,-2.379c0,-0.168 0.451,-0.814 1.001,-1.435c1.808,-2.037 3.394,-4.167 1.873,-2.514c-1.296,1.408 -3.272,3.395 -3.376,3.395c-0.059,-0.001 -0.333,-0.182 -0.608,-0.402l-0.501,-0.401l0.307,-0.599c0.747,-1.457 2.879,-4.366 4.085,-5.574c2.548,-2.552 4.839,-3.616 6.398,-2.97c0.811,0.336 1.043,1.043 0.666,2.03c-0.572,1.498 -1.736,2.762 -4.76,5.172c-4.136,3.294 -5.085,3.909 -5.085,3.298Zm-9.708,-2.861c-2.846,-2.853 -3.578,-3.874 -4.233,-5.902c-0.705,-2.185 -0.998,-4.04 -0.694,-4.405c0.327,-0.394 1.352,-0.332 2.359,0.143c1.39,0.655 1.999,1.525 2.005,2.862c0.004,0.947 0.63,3.27 1.223,4.539c0.285,0.611 0.952,1.73 1.482,2.486c0.53,0.757 1.001,1.473 1.047,1.592c0.066,0.171 -0.723,0.818 -0.998,0.818c-0.034,0 -1.02,-0.96 -2.191,-2.133Zm7.058,0.873c-0.263,-0.203 -0.259,-0.333 0.044,-1.7c0.181,-0.814 0.451,-2.525 0.6,-3.803c0.343,-2.943 0.522,-3.732 1.083,-4.763c0.533,-0.979 1.534,-2.028 2.062,-2.16c0.206,-0.052 0.678,-0.069 1.05,-0.039c0.58,0.048 0.733,0.154 1.08,0.752c0.829,1.427 0.25,3.793 -1.556,6.359c-0.415,0.59 -1.421,2.06 -2.235,3.267c-0.814,1.207 -1.562,2.22 -1.662,2.251c-0.099,0.031 -0.309,-0.043 -0.466,-0.164l0,0Zm-4.332,-1.221c-1.514,-2.133 -2.213,-3.792 -2.783,-6.603c-0.55,-2.715 -0.6,-3.379 -0.327,-4.362c0.24,-0.864 0.592,-1.181 1.315,-1.181c1.006,0 2.763,1.893 3.096,3.334c0.361,1.564 0.811,9.469 0.562,9.872c-0.069,0.111 -0.315,0.202 -0.546,0.202c-0.323,0 -0.627,-0.291 -1.317,-1.262Zm2.733,0.786c-0.057,-0.057 -0.105,-0.659 -0.105,-1.338c-0.001,-0.678 -0.113,-2.643 -0.249,-4.367c-0.137,-1.724 -0.378,-3.721 -0.444,-4.655c0,0 0.005,-1.164 0.071,-1.573c0.113,-0.693 0.476,-1.169 0.476,-1.169c0.603,-0.602 0.917,-0.547 1.321,-0.452c1.227,0.288 1.613,1.605 1.282,4.366c-0.115,0.958 -0.289,2.447 -0.386,3.309c-0.097,0.862 -0.328,2.507 -0.514,3.656c-0.185,1.15 -0.337,2.137 -0.337,2.194c-0,0.137 -0.981,0.163 -1.115,0.029l-0,-0Z" style="fill:#c146fb;fill-rule:nonzero;"/><path id="pistil" d="M18.682,24.873c-1.548,-0.605 -2.356,-1.757 -2.5,-3.564c-0.109,-1.372 0.157,-2.296 0.915,-3.182c1.826,-2.133 5.201,-2.231 6.938,-0.202c0.626,0.732 1.158,2.062 1.158,2.898c-0,1.609 -0.971,3.029 -2.644,3.864c-1.278,0.639 -2.55,0.7 -3.867,0.186Z" style="fill:#fcc337;fill-rule:nonzero;"/></g><path d="M44.035,36.556c-0,0.174 -0.069,0.34 -0.192,0.463c-0.123,0.123 -0.289,0.192 -0.463,0.192c-3.206,-0.002 -17.092,-0.008 -17.086,-0.021c0.339,-0.767 0.411,-1.176 0.315,-2.597c-0.024,-0.356 -0.062,-0.7 -0.116,-1.043c0.588,0.843 1.182,1.443 1.712,1.723c0.773,0.409 1.622,0.556 2.275,0.467c0.564,-0.077 0.998,-0.331 1.235,-0.693c0.189,-0.289 0.297,-0.691 0.289,-1.172c-0.009,-0.58 -0.186,-1.298 -0.532,-2.033c-0.054,-0.115 -0.186,-0.306 -0.379,-0.551c0.617,0.365 1.171,0.609 1.74,0.791c1.646,0.526 2.435,0.403 3.129,-0.193c0.26,-0.224 0.422,-0.443 0.509,-0.674c0.092,-0.247 0.109,-0.517 0.018,-0.85c-0.088,-0.321 -0.302,-0.737 -0.673,-1.32c-0.125,-0.197 -0.239,-0.362 -0.362,-0.509c0.948,0.126 1.598,-0.028 2.119,-0.399c0.459,-0.327 0.667,-0.662 0.713,-0.987c0.034,-0.236 -0.007,-0.487 -0.16,-0.761c-0.139,-0.252 -0.4,-0.549 -0.805,-0.905c-0.571,-0.503 -1.165,-0.904 -1.935,-1.251c1.102,0.016 2.027,-0.136 2.685,-0.443c0.591,-0.276 0.976,-0.512 1.204,-0.731c0.254,-0.245 0.367,-0.496 0.393,-0.754c0.025,-0.247 -0.034,-0.519 -0.206,-0.827c-0.413,-0.735 -1.636,-1.645 -2.79,-2.066c0.797,-0.173 1.436,-0.397 1.903,-0.661c0.789,-0.445 1.149,-1.027 1.149,-1.641c-0,-0.44 -0.208,-0.958 -0.704,-1.407c-0.444,-0.402 -1.145,-0.766 -2.135,-0.929c0.685,-0.614 0.923,-1.365 0.923,-1.916c0,-0.759 -0.371,-1.297 -0.971,-1.592c-0.717,-0.353 -1.863,-0.321 -3.083,0.294c-0.042,0.021 -0.088,0.045 -0.136,0.071c0.734,-0.82 1.167,-1.532 1.458,-2.295c0.249,-0.65 0.27,-1.21 0.123,-1.661c-0.164,-0.499 -0.529,-0.894 -1.12,-1.139c-0.743,-0.308 -1.625,-0.311 -2.611,0.016c-1.04,0.345 -2.216,1.07 -3.463,2.164c0.231,-0.465 0.632,-1.943 0.775,-2.378c-0,-0 3.566,-3.374 5.037,-4.766c0.165,-0.156 0.386,-0.24 0.613,-0.233c0.227,0.007 0.442,0.104 0.597,0.271c2.422,2.597 11.672,12.515 14.63,15.687c0.159,0.17 0.201,0.417 0.109,0.631c-0.093,0.213 -0.303,0.351 -0.536,0.351c-1.538,-0 -3.962,-0 -4.852,-0c-0.091,-0 -0.179,0.036 -0.243,0.1c-0.064,0.065 -0.1,0.152 -0.1,0.243c-0,2.25 -0,14.899 -0,17.934Z" style="fill:#11bee6;"/></g></g><g id="Company-name" serif:id="Company name"><g transform="matrix(27.3861,0,0,27.3861,122.786,31.111)"></g><text x="52.89px" y="31.111px" style="font-family:'MVBoli', 'MV Boli';font-style:italic;font-size:27.386px;fill:#7f07b8;">Aster</text><g transform="matrix(27.3861,0,0,27.3861,202.062,30.3889)"></g><text x="127.593px" y="30.389px" style="font-family:'MVBoli', 'MV Boli';font-style:italic;font-size:27.386px;fill:#7f07b8;">House</text></g></g></svg>