<?xml version="1.0" encoding="UTF-8" standalone="no"?>
<!DOCTYPE svg PUBLIC "-//W3C//DTD SVG 1.1//EN" "http://www.w3.org/Graphics/SVG/1.1/DTD/svg11.dtd">
<svg width="100%" height="100%" viewBox="0 0 667 665" version="1.1" xmlns="http://www.w3.org/2000/svg" xmlns:xlink="http://www.w3.org/1999/xlink" xml:space="preserve" xmlns:serif="http://www.serif.com/" style="fill-rule:evenodd;clip-rule:evenodd;stroke-linejoin:round;stroke-miterlimit:2;">
    <rect id="Artboard1" x="0" y="0" width="666.668" height="664.001" style="fill:none;"/>
    <clipPath id="_clip1">
        <rect x="0" y="0" width="666.668" height="664.001"/>
    </clipPath>
    <g clip-path="url(#_clip1)">
        <path id="fb_logo" d="M334,0.999C150.667,0.999 0.667,150.666 0.667,335C0.667,501.667 122.667,640 282,665L282,431.667L197.333,431.667L197.333,335L282,335L282,261.333C282,177.666 331.667,131.666 408,131.666C444.333,131.666 482.333,137.999 482.333,137.999L482.333,220.333L440.333,220.333C399,220.333 386,245.999 386,272.333L386,335L478.667,335L463.667,431.667L386,431.667L386,665C464.547,652.593 536.073,612.517 587.663,552C639.253,491.487 667.513,414.52 667.333,335C667.333,150.666 517.333,0.999 334,0.999Z" style="fill:white;fill-rule:nonzero;"/>
    </g>
</svg>
