<?xml version="1.0" encoding="UTF-8" standalone="no"?>
<!DOCTYPE svg PUBLIC "-//W3C//DTD SVG 1.1//EN" "http://www.w3.org/Graphics/SVG/1.1/DTD/svg11.dtd">
<svg width="100%" height="100%" viewBox="0 0 1790 1473" version="1.1" xmlns="http://www.w3.org/2000/svg" xmlns:xlink="http://www.w3.org/1999/xlink" xml:space="preserve" xmlns:serif="http://www.serif.com/" style="fill-rule:evenodd;clip-rule:evenodd;stroke-linejoin:round;stroke-miterlimit:2;">
    <rect id="Logo-with-Name" serif:id="Logo with Name" x="-0" y="0" width="1789.12" height="1472.01" style="fill:none;"/>
    <g id="Tree-2-Logo" serif:id="Tree 2 Logo">
        <g id="Foliage">
            <g>
                <path d="M604.158,657.194C586.796,660.178 555.705,661.208 542.09,659.249C519.089,655.941 502.395,648.711 474.407,629.937C457.165,618.372 457.45,619.136 464.821,604.281C473.873,586.035 487.641,572.551 507.088,562.885C524.983,553.99 532.389,555.13 554.824,570.237C564.576,576.803 577.875,590.105 581.488,596.905C583.811,601.279 583.896,602.082 582.155,603.19C579.169,605.09 540.571,617.722 526.824,621.299L514.824,624.42L529.491,623.896C540.45,623.505 548.203,622.302 560.158,619.138C570.453,616.413 579.75,614.829 586.234,614.694C596.276,614.486 596.384,614.521 616.901,624.712C641.194,636.778 646.535,638.743 692.551,652.541C646.535,638.743 586.796,660.178 604.158,657.194Z" style="fill:url(#_Linear1);"/>
                <path d="M435.801,605.237C423.158,591.404 417.813,570.79 420.616,546.674C424.271,515.232 434.81,491.899 454.643,471.336C461.945,463.766 470.755,457.93 475.007,457.848C475.84,457.832 477.276,461.869 478.197,466.819C482.245,488.58 491.662,510.18 505.826,530.191C510.575,536.902 514.654,543.013 514.889,543.772C515.125,544.531 509.42,547.999 502.213,551.479C481.281,561.585 464.084,579.273 452.297,602.819C448.855,609.694 446.731,612.485 444.941,612.485C443.557,612.485 439.444,609.224 435.801,605.237Z" style="fill:url(#_Linear2);"/>
            </g>
            <g>
                <path d="M708.172,629.981C697.993,618.804 687.321,607.447 680.262,600.485C661.086,581.576 648.625,565.961 636.201,545.276C626.291,528.775 621.076,516.004 615.302,494.1C611.79,480.78 611.099,475.448 610.596,457.819C610.271,446.452 610.5,436.443 611.104,435.577C613.749,431.783 690.304,431.318 702.307,435.023C695.853,433.031 719.847,457.828 738.824,469.956C719.847,457.828 720.744,458.07 713.052,463.006C694.208,475.098 684.824,492.957 684.824,516.727C684.824,523.194 684.431,528.485 683.95,528.485C681.773,528.485 673.633,521.01 668.71,514.489C659.986,502.935 653.576,483.329 651.924,463.152L650.996,451.819L649.147,457.819C645.602,469.324 648.751,490.722 656.288,506.345C658.04,509.977 659.121,513.294 658.691,513.717C658.26,514.139 650.614,510.708 641.7,506.092C631.398,500.757 626.949,498.945 629.491,501.12C636.403,507.032 677.608,534.92 684.075,538.061C687.885,539.912 690.432,542.102 690.723,543.774C695.544,571.505 700.773,589.557 708.887,606.485C711.64,612.228 716.483,619.541 722.213,626.89C714.914,617.959 708.21,609.01 704.116,603.472C686.608,579.792 677.671,561.224 673.57,555.118C670.852,551.071 688.248,607.824 697.914,618.565C701.381,622.418 704.835,626.259 708.172,629.981Z" style="fill:url(#_Linear3);"/>
                <path d="M666.158,629.082C618.748,618.915 583.315,585.791 566.899,536.29C563.246,525.275 559.021,501.531 559.724,495.968C560.14,492.676 560.537,492.891 569.491,501.273C584.388,515.219 597.626,524.18 610.391,528.962C616.23,531.148 617.111,532.158 624.293,544.891C639.749,572.294 654.556,591.689 677.117,614.089C685.023,621.938 691.491,628.988 691.491,629.756C691.491,631.726 676.649,631.331 666.158,629.082Z" style="fill:url(#_Linear4);"/>
                <path d="M554.426,555.212C544.474,549.226 537.613,543.888 526.997,533.871C506.752,514.768 495.868,494.437 486.639,458.485C483.606,446.668 483.286,443.257 483.831,428.485C484.55,408.962 487.594,398.311 498.323,377.768C507.302,360.578 515.957,349.171 532.884,332.22C549.331,315.75 566.916,303.624 580.857,299.142C595.981,294.279 599.295,296.335 602.7,312.694C607.138,334.013 614.67,352.41 626.62,371.116C629.184,375.129 631.011,378.851 630.679,379.386C630.348,379.922 622.026,380.377 612.184,380.397C585.217,380.452 559.307,386.899 552.224,395.316C550.367,397.523 547.492,403.64 545.836,408.907C543.121,417.543 542.829,421.11 542.869,445.152C542.931,482.591 548.248,515.588 559.412,547.806C561.658,554.288 563.345,559.743 563.16,559.928C562.975,560.112 559.045,557.99 554.426,555.212Z" style="fill:url(#_Linear5);"/>
                <path d="M601.312,515.222C581.504,505.28 562.173,483.575 555.324,463.587C552.701,455.934 552.207,451.833 552.219,437.819C552.242,411.714 555.901,403.045 568.822,398.486C584.172,393.07 623.179,390.481 637.986,393.894C647.92,396.185 669.293,408.143 680.436,417.646C686.621,422.92 685.391,423.275 658.824,423.876C644.891,424.191 628.778,424.941 623.017,425.543C610.257,426.878 609.97,426.495 613.851,413.318C615.384,408.113 616.444,403.661 616.208,403.424C615.425,402.642 607.799,417.03 605.398,423.819C603.68,428.676 602.882,435.985 602.458,450.749C601.832,472.545 604.12,488.889 610.849,510.702C612.51,516.083 613.403,520.485 612.834,520.485C612.265,520.485 607.08,518.117 601.312,515.222Z" style="fill:url(#_Linear6);"/>
            </g>
            <g>
                <path d="M735.155,602.583C724.593,598.814 713.375,586.758 706.984,572.309C703.579,564.609 698.51,543.688 699.75,542.449C700.141,542.058 704.892,542.426 710.309,543.267C724.94,545.538 755.99,544.166 771.491,540.564C802.049,533.462 823.539,540.816 823.469,558.349C823.442,565.16 818.922,573.415 813.055,577.369C804.239,583.31 788.385,584.306 776.953,579.637C774.457,578.618 772.288,577.942 772.133,578.135C771.977,578.328 770.807,581.678 769.532,585.579C764.537,600.865 750.205,607.954 735.155,602.583Z" style="fill:url(#_Radial7);"/>
                <path d="M711.308,535.805C699.928,533.538 694.417,530.648 693.347,526.387C692.88,524.525 692.757,518.059 693.074,512.017C694.166,491.22 703.446,477.953 720.334,473.043C729.139,470.484 735.817,471.612 741.341,476.592C746.415,481.167 745.453,483.602 736.703,488.326C728.039,493.004 720.824,498.018 720.824,499.361C720.824,500.009 723.074,499.41 725.824,498.03C735.597,493.124 748.255,489.772 757.667,489.598C766.027,489.444 767.999,489.942 776.255,494.29C792.901,503.057 797.501,510.119 793.85,521.301C792.505,525.42 790.925,527.091 786.158,529.435C771.753,536.517 731.905,539.908 711.308,535.805Z" style="fill:url(#_Radial8);"/>
            </g>
            <g>
                <path d="M861.36,406.247C856.461,400.365 850.419,393.858 842.86,386.073C820.348,362.886 817.251,358.944 810.651,345.082C803.326,329.697 800.481,318.633 800.301,304.824C800.222,298.777 799.719,293.827 799.183,293.824C797.292,293.814 796.159,301.288 796.252,313.152C796.394,331.405 801.284,345.684 814.867,367.51C818.085,372.681 820.44,377.362 820.1,377.913C818.823,379.979 791.984,372.396 778.158,366.062C767.098,360.996 753.888,351.937 747.58,345.094C739.159,335.958 733.154,322.177 731.628,308.485C729.028,285.149 735.384,257.819 743.411,257.819C744.855,257.819 757.476,263.542 771.457,270.537C790.698,280.165 800.679,286.125 812.518,295.06C841.892,317.23 843.883,320.086 859.424,362.351C864.52,376.211 869.39,388.211 870.246,389.018C871.432,390.135 871.527,387.779 870.647,379.152C867.263,345.979 872.238,325.634 889.883,300.485C896.607,290.902 907.839,277.103 911.86,273.485C916.847,268.998 911.673,271.198 905.278,276.284C891.621,287.143 878.699,303.39 868.777,322.174L862.511,334.038L859.834,329.595C847.585,309.261 844.859,280.967 853.36,262.398C860.778,246.194 881.285,221.819 887.499,221.819C892.42,221.819 909.547,240.06 915.787,251.945C927.987,275.187 927.623,288.513 914.17,311.152C904.057,328.169 894.559,348.092 891.923,357.819C894.586,343.517 903.471,313.894 899.941,319.729C897.396,323.935 876.905,359.058 875.117,383.045C874.793,387.383 873.442,391.366 871.835,392.2C870.238,393.03 868.386,390.728 867.795,390.171C866.939,389.364 842.529,357.945 833.858,349.709C826.829,343.032 856.461,400.365 861.36,406.247Z" style="fill:url(#_Radial9);"/>
                <path d="M702.158,316.994C678.433,299.779 660.954,289.249 644.986,282.553C636.378,278.943 632.824,276.786 632.824,275.169C632.824,271.705 639.634,263.031 647.65,256.285C668.32,238.892 691.301,228.485 709.041,228.485C717.631,228.485 718.453,228.76 723.477,233.299C731.87,240.88 732.613,245.555 727.708,259.917C721.82,277.159 720.388,287.487 721.281,306.268C721.704,315.188 722.443,324.435 722.922,326.819C723.402,329.202 723.276,331.123 722.642,331.087C722.009,331.052 712.791,324.709 702.158,316.994Z" style="fill:url(#_Radial10);"/>
            </g>
            <path d="M826.042,290.965C812.488,279.612 802.601,273.526 774.647,259.323C761.349,252.567 749.443,245.906 748.188,244.519C740.423,235.939 763.294,213.807 791.491,202.616C806.853,196.519 820.144,193.819 834.796,193.819C856.047,193.819 866.068,197.855 871.565,208.63C874.73,214.835 874.161,216.4 865.074,226.485C856.723,235.755 847.169,250.666 843.154,260.7C839.198,270.587 836.228,288.22 837.435,294.654C837.899,297.128 837.725,299.152 837.048,299.152C836.371,299.152 831.419,295.468 826.042,290.965Z" style="fill:url(#_Linear11);"/>
            <g>
                <path d="M1086.62,420.591C1095.01,414.947 1118.8,398.32 1126.59,395.76C1151.97,387.42 1213.21,391.072 1226.36,401.711C1229.24,404.042 1229.53,405.403 1229.92,418.698C1230.45,436.405 1228,449.222 1221.46,462.999C1212.73,481.374 1199.01,497.168 1180.34,510.338C1170.26,517.446 1159.49,523.72 1159.49,522.486C1159.49,521.98 1161.57,515.473 1164.11,508.026C1166.64,500.579 1169.64,489.157 1170.77,482.644C1173.31,468 1173.39,442.705 1170.94,431.152C1168.83,421.24 1163.58,408.636 1160.49,406.088C1158.71,404.615 1158.78,405.572 1160.94,412.541C1162.35,417.041 1163.49,422.47 1163.49,424.604C1163.49,428.347 1163.27,428.485 1157.16,428.473C1153.67,428.467 1143.32,427.61 1134.16,426.57C1124.99,425.53 1111.96,423.736 1105.16,423.774C1095.16,423.829 1089,428.398 1080.93,432.922C1093.04,423.365 1101.95,415.724 1101.32,414.706C1100.38,413.175 1095.32,415.441 1086.62,420.591Z" style="fill:url(#_Radial12);"/>
                <path d="M1054.16,600.259C1070.01,585.033 1079.51,567.441 1086.08,541.141C1087.13,536.948 1088.5,535.224 1092.43,533.141C1095.19,531.68 1100.46,528.067 1104.13,525.111C1107.81,522.156 1114.64,518.096 1119.3,516.09C1129.17,511.836 1145.62,502.442 1146.94,500.292C1147.45,499.475 1147.33,499.052 1146.68,499.353C1133.98,505.205 1129.49,507.012 1122.48,509.097C1117.89,510.463 1113.82,511.263 1113.44,510.877C1113.05,510.49 1113.91,505.744 1115.34,500.33C1118.59,488.061 1119.96,474.551 1118.77,466.58C1117.56,458.528 1115.49,458.779 1115.49,466.977C1115.49,475.946 1112.03,494.937 1108.86,503.426C1105.77,511.664 1099.54,519.701 1094.04,522.547L1090.16,524.554L1090.16,511.466C1090.16,488.73 1085.24,476.233 1071.02,462.834L1062.9,455.183L1068.87,449.1C1077.18,440.607 1085.47,435.615 1095.51,433.042C1103.52,430.991 1105.95,430.993 1130.8,433.074C1145.48,434.304 1158.99,435.424 1160.82,435.564L1164.16,435.819L1164.07,457.819C1163.97,482.865 1162.64,489.725 1153.47,512.486C1144.07,535.828 1132.31,553.565 1113.81,572.265C1094.82,591.473 1073.38,604.001 1057.29,605.297L1048.16,606.032L1054.16,600.259Z" style="fill:url(#_Radial13);"/>
                <path d="M1106.16,595.317C1106.16,594.814 1109.8,590.821 1114.26,586.444C1123.09,577.767 1134.76,563.284 1146.64,546.249C1153.43,536.515 1155.35,534.743 1164.53,529.723C1179.41,521.595 1195.79,509.449 1209.15,496.629C1222.32,484.001 1222.57,484.121 1218.89,501.398C1208.67,549.442 1174.29,584.122 1128.16,592.915C1114.21,595.573 1106.16,596.453 1106.16,595.317Z" style="fill:url(#_Radial14);"/>
                <path d="M1025.33,593.237C1021.4,591.527 1014.18,583.651 1014.14,581.026C1014.13,580.362 1013.61,579.015 1012.99,578.033C1012.07,576.585 1010.82,576.775 1006.39,579.033C993.737,585.489 974.823,580.647 968.138,569.239C961.772,558.377 964.677,544.732 974.432,539.668C981.456,536.023 995.462,535.813 1012.16,539.103C1031.8,542.973 1051.81,543.818 1066.16,541.383C1072.39,540.325 1077.69,539.636 1077.93,539.853C1078.99,540.809 1073.41,558.008 1069.22,566.701C1059.09,587.728 1039.66,599.474 1025.33,593.237Z" style="fill:url(#_Radial15);"/>
                <path d="M1211.49,550.682C1211.49,550.424 1214.42,543.974 1218.01,536.349C1226.79,517.677 1230.52,505.243 1236.43,474.842C1240.98,451.428 1241.43,447.144 1241.46,426.485C1241.49,398.605 1240.32,393.643 1232.78,389.795C1218.17,382.345 1179.31,376.945 1151.74,378.535L1135.25,379.487L1141.41,371.12C1150.94,358.167 1158.61,342.93 1166.19,321.819C1174.36,299.105 1176.76,294.72 1182.29,292.43C1187.97,290.08 1199.81,292.408 1212.26,298.322C1242.93,312.884 1273.11,342.682 1289.88,374.956C1299.88,394.187 1303.64,407.348 1304.48,425.981L1305.18,441.477L1299.81,453.314C1296.86,459.825 1292.21,470.252 1289.49,476.485C1279.3,499.831 1277.92,502.545 1270.85,513.17C1266.87,519.152 1259.47,527.957 1254.4,532.736C1245.69,540.959 1244.37,541.688 1230.01,546.29C1215.89,550.812 1211.49,551.856 1211.49,550.682Z" style="fill:url(#_Radial16);"/>
                <path d="M1023.49,535.652C987.094,528.928 983.491,527.147 983.491,515.877C983.491,512.149 984.668,509.816 988.822,505.31C994.528,499.119 1007.53,491.463 1015.33,489.704C1022.42,488.106 1038.07,490.55 1049.73,495.075C1055.39,497.273 1060.25,498.833 1060.55,498.543C1061.54,497.547 1046.82,489.86 1037.16,486.328C1031.84,484.385 1027.49,482.38 1027.49,481.873C1027.49,480.22 1033.37,475.513 1038.82,472.799C1047.28,468.591 1052.02,468.062 1060.12,470.419C1075.1,474.771 1082.54,487.857 1082.53,509.819C1082.52,527.38 1081.66,529.012 1070.55,532.601C1063.52,534.873 1057.61,535.61 1044.16,535.898C1034.62,536.102 1025.32,535.991 1023.49,535.652Z" style="fill:url(#_Radial17);"/>
            </g>
            <g>
                <path d="M1106.16,607.657C1109.39,607.491 1113.59,607.163 1118.15,606.805C1129.32,604.926 1172.1,591.229 1176.29,590.392C1178.88,589.874 1183.76,590.657 1189.6,592.529C1200.26,595.943 1232.71,597.771 1240.82,595.414C1245.07,594.18 1244.62,594.049 1235.77,593.939C1219.76,593.741 1200.04,588.728 1192.42,582.917C1190.19,581.221 1190.64,580.532 1198.42,573.67C1209.15,564.204 1209.95,563.807 1226.4,559.822C1249.42,554.244 1263.75,555.857 1285.69,566.499C1302.95,574.871 1320.82,589.887 1320.82,596.019C1320.82,596.944 1316.63,600.148 1311.51,603.139C1280.56,621.215 1248.22,628.878 1216.16,625.731C1209.56,625.084 1197.26,622.743 1188.82,620.529C1180.39,618.315 1167.19,614.949 1159.49,613.049C1153.78,611.64 1134.12,614.821 1122.8,615.637C1114.19,616.985 1106.14,618.3 1102.16,619.117C1112.79,616.938 1143.02,611.892 1153.42,610.923C1158.24,610.475 1171.41,609.957 1172.76,609.802C1179.46,609.035 1157.38,606.881 1153.55,606.671C1143.86,606.142 1119.63,606.966 1106.16,607.657Z" style="fill:url(#_Linear18);"/>
                <path d="M1344.16,595.273C1341.22,593.905 1332.76,587.098 1325.35,580.145C1306.67,562.636 1292.22,553.246 1273.49,546.46C1269.82,545.132 1266.29,543.575 1265.63,543C1264.96,542.418 1266.27,539.862 1268.59,537.22C1275.72,529.095 1286.32,512.501 1291.57,501.263C1296.2,491.316 1298.41,484.801 1304.11,464.152C1306.09,456.985 1306.49,456.485 1310.25,456.485C1320.18,456.485 1334.99,467.982 1345.59,483.916C1359.39,504.651 1366.16,526.688 1366.16,550.883C1366.16,570.596 1359.7,592.807 1352.91,596.441C1349.74,598.135 1350.52,598.239 1344.16,595.273Z" style="fill:url(#_Linear19);"/>
            </g>
            <g>
                <path d="M701.95,809.567C696.16,809.641 685.722,812.409 681.325,814.498C658.069,825.542 642.804,839.891 627.036,865.908C620.652,876.442 609.648,900.926 608.199,907.819C607.401,911.619 607.512,911.559 610.425,906.634C616.467,896.417 633.938,870.112 635.2,869.332C635.926,868.883 636.878,871.477 637.382,875.281C638.567,884.211 643.427,897.357 648.988,906.673C655.023,916.783 668.331,929.958 678.516,935.906C683.085,938.575 687.06,940.983 687.348,941.256C689.826,943.615 671.153,953.499 658.77,956.385C649.637,958.513 632.329,958.591 623.455,956.544C603.704,951.988 584.854,938.216 576.48,922.224C568.932,907.808 566.901,899.27 567.031,882.486C567.129,869.794 567.701,866.162 571.282,855.515C577.356,837.455 586.073,825.091 597.379,818.496C602.996,815.22 611.858,812.56 624.064,810.498C624.784,810.377 625.515,810.257 626.258,810.14C612.914,812.248 696.16,809.641 701.95,809.567Z" style="fill:url(#_Radial20);"/>
                <path d="M696.158,826.225C681.365,832.403 675.527,838.626 686.773,836.227C697.594,833.919 703.328,839.814 701.292,851.152C700.831,853.719 697.906,860.92 694.792,867.155C688.051,880.651 685.749,887.793 686.406,893.176C686.842,896.757 687.115,896.424 689.148,889.819C692.52,878.867 706.036,856.567 709.887,855.6C714.644,854.406 718.927,857.048 722.715,863.512C730.364,876.563 729.741,892.44 720.873,910.486C714.113,924.24 705.13,933.819 698.991,933.819C688.392,933.819 667.178,918.542 658.073,904.354C648.704,889.754 645.066,871.27 648.867,857.584C649.949,853.69 653.507,847.964 657.868,842.577C659.238,844.304 667.008,836.637 696.158,826.225Z" style="fill:url(#_Radial21);"/>
                <path d="M521.984,920.484C490.646,915.49 462.403,894.647 448.818,866.485C441.461,851.234 439.376,842.258 438.598,822.485C437.69,799.425 437.39,799.818 455.702,800.15C472.078,800.447 488.661,802.658 522.297,809.032C535.94,811.617 553.912,814.375 562.236,815.159C570.56,815.944 577.54,816.757 577.748,816.965C577.956,817.173 576.562,819.4 574.65,821.914C569.957,828.084 563.088,842.973 559.314,855.152C554.936,869.281 554.793,896.872 559.028,910.153C560.607,915.104 561.381,919.475 560.748,919.866C558.566,921.214 529.476,921.678 521.984,920.484Z" style="fill:url(#_Radial22);"/>
            </g>
            <g>
                <path d="M1120.16,778.522C1132.19,787.512 1145.45,803.316 1151.9,816.365L1157.49,827.657L1157.44,844.405C1157.38,862.208 1155.21,871.903 1148.21,885.704C1139.72,902.442 1123.28,918.968 1108.16,925.97C1094.98,932.073 1094.26,932.058 1087.91,925.545C1068.43,905.581 1060.02,870.379 1069.14,846.988C1078.06,824.091 1089.04,816.048 1097.59,826.152C1107.66,838.061 1111.16,857.018 1106.88,876.485C1102.04,898.533 1102.96,900.156 1109.52,881.152C1112.16,873.482 1113.38,866.889 1113.85,857.683C1114.59,843.014 1113.84,839.959 1105.22,822.485C1100.19,812.296 1099.39,809.592 1099.92,804.567C1100.59,798.311 1102.96,795.584 1108.82,794.316C1114.28,793.138 1115.79,792.675 1114.52,791.164C1121.5,797.671 1138.57,814.96 1138.23,813.162C1136.19,802.671 1123.13,780.744 1120.16,778.522Z" style="fill:url(#_Radial23);"/>
                <path d="M1145.55,955.038C1141.19,954.383 1135.49,953.161 1132.89,952.322C1125.29,949.873 1111.15,943.253 1108.61,940.961C1106.43,938.988 1106.95,938.412 1116.49,932.183C1143.41,914.61 1159.65,890.912 1166.8,858.783C1168.06,853.119 1169.23,848.485 1169.4,848.485C1169.57,848.485 1171.94,851.713 1174.65,855.658C1181.93,866.217 1206.7,889.589 1217.93,896.485C1227.14,902.144 1227.66,902.718 1227.05,906.569C1225.14,918.702 1209.21,938.383 1194.94,946.259C1181.19,953.847 1161.25,957.392 1145.55,955.038Z" style="fill:url(#_Radial24);"/>
                <path d="M1236.82,916.67C1236.82,916.038 1238.57,911.666 1240.71,906.955C1247.12,892.819 1248.95,883.92 1249.76,863.121C1250.4,846.231 1250.14,842.336 1247.69,832.634C1243.19,814.861 1232.02,791.212 1223.99,782.461L1221.16,779.375L1229.33,778.524C1255.03,775.846 1270.67,773.307 1286.45,769.254C1317.44,761.297 1335.2,757.75 1345.59,757.447C1354.3,757.193 1355.95,757.514 1357.62,759.778C1360.99,764.363 1362.4,772.573 1362.37,787.411C1362.31,821.412 1350.44,851.671 1325.74,880.759C1311.81,897.169 1288.29,911.823 1269.49,915.798C1259.38,917.936 1236.82,918.538 1236.82,916.67Z" style="fill:url(#_Radial25);"/>
                <path d="M1226.73,890.935C1217.62,886.052 1205.74,877.531 1198.33,870.558C1188.25,861.069 1181.48,851.038 1168.43,826.225C1156.55,803.639 1143.81,783.849 1136.9,777.222C1134.66,775.076 1132.82,772.749 1132.82,772.052C1132.82,770.413 1147.83,771.771 1167.58,775.196C1175.97,776.65 1188.22,778.222 1194.82,778.69C1206.46,779.515 1206.97,779.691 1211.49,784.431C1218.8,792.086 1229.78,811.921 1234.41,825.819C1238.33,837.615 1238.63,839.814 1238.72,857.819C1238.83,877.239 1237,889.571 1233.62,892.381C1232.46,893.338 1230.42,892.908 1226.73,890.935Z" style="fill:url(#_Radial26);"/>
            </g>
            <g>
                <path d="M564.158,800.471C558.291,799.836 551.091,798.806 548.158,798.182C543.348,797.159 542.782,796.607 542.391,792.556C541.838,786.832 544.062,774.025 547.515,763.044C550.762,752.719 561.03,731.715 562.652,732.081C563.291,732.225 566.024,737.325 568.725,743.414C577.968,764.253 589.002,778.423 606.689,792.168C613.687,797.606 614.254,798.391 611.831,799.287C607.39,800.93 575.677,801.717 564.158,800.471Z" style="fill:url(#_Linear27);"/>
                <path d="M500.158,792.414C491.358,791.094 476.058,789.066 466.158,787.907C440.739,784.931 436.564,783.766 429.723,777.745C422.814,771.663 415.721,758.13 411.244,742.485C408.573,733.149 408.191,728.825 408.187,707.819C408.182,686.891 408.575,682.384 411.252,672.608C417.992,647.999 431.867,625.819 440.522,625.819C444.811,625.819 454.819,631.104 473.961,643.478C483.019,649.333 495.619,656.854 501.961,660.189C508.302,663.525 513.651,666.367 513.847,666.504C514.043,666.641 512.118,670.217 509.569,674.449C499.268,691.555 494.034,716.611 496.802,735.566C499.467,753.814 505.097,767.742 516.982,785.485L523.456,795.152L519.807,794.983C517.8,794.89 508.958,793.734 500.158,792.414Z" style="fill:url(#_Linear28);"/>
                <path d="M636.824,793.072C622.309,789.943 609.497,782.737 598.066,771.273C592.516,765.707 586.11,757.852 583.831,753.819C578.683,744.709 572.824,727.512 572.824,721.512C572.824,709.464 592.052,686.397 608.988,678.13C623.574,671.009 622.812,669.912 622.903,698.155C622.977,721.127 623.19,723.118 626.725,733.819C634.501,757.359 647.778,777.272 663.119,788.402C666.947,791.179 669.697,793.835 669.23,794.302C667.709,795.823 645.715,794.988 636.824,793.072Z" style="fill:url(#_Linear29);"/>
                <path d="M684.701,791.395C662.19,782.232 642.221,757.165 634.076,727.846C629.633,711.851 629.946,711.493 641.269,719.617C652.366,727.579 661.135,731.681 673.672,734.775L682.347,736.915L688.426,749.034C696.86,765.847 701.063,771.773 711.905,782.135C717.074,787.075 720.957,791.464 720.534,791.887C720.111,792.31 713.253,792.933 705.294,793.272C693.255,793.785 689.796,793.469 684.701,791.395Z" style="fill:url(#_Linear30);"/>
                <path d="M525.545,778.286C519.31,770.123 512.252,755.525 509.525,745.152C503.529,722.347 509.644,691.755 523.269,676.402L528.314,670.717L541.95,672.268C549.45,673.121 563.727,673.819 573.677,673.819L591.768,673.819L581.685,684.537C559.028,708.622 542.495,738.504 534.242,770.286L530.485,784.754L525.545,778.286Z" style="fill:url(#_Linear31);"/>
                <path d="M729.302,781.827C711.22,777.743 690.003,746.797 685.958,718.608C683.075,698.512 686.731,686.516 697.185,681.771C704.395,678.498 709.134,678.511 719.894,681.834C730.618,685.147 740.414,691.735 743.685,697.834C748.034,705.943 746.674,718.636 740.829,724.481C738.136,727.174 738.236,729.819 741.03,729.819C744.497,729.819 750.795,736.222 753.814,742.816C759.675,755.618 756.186,772.125 746.283,778.451C740.66,782.043 735.126,783.143 729.302,781.827Z" style="fill:url(#_Linear32);"/>
                <path d="M664.055,725.334C653.806,721.523 647.474,717.666 637.824,709.355C630.529,703.072 630.158,702.451 630.158,696.527C630.158,693.104 631.089,687.166 632.228,683.332C634.781,674.735 639.177,671.683 650.805,670.438C658.238,669.642 680.742,671.453 683.336,673.056C683.916,673.415 682.944,678.024 681.175,683.298C678.291,691.896 678.003,694.73 678.391,710.689L678.824,728.489L675.491,728.418C673.658,728.378 668.512,726.991 664.055,725.334Z" style="fill:url(#_Linear33);"/>
            </g>
            <g>
                <path d="M1188.64,764.471C1178.5,763.5 1175.49,762.615 1175.49,760.599C1175.49,760.015 1180.25,755.798 1186.06,751.228C1203.04,737.882 1212.29,724.813 1223.38,698.49L1225.07,694.494L1227.82,697.823C1235.08,706.627 1246.01,736.906 1247.14,751.348C1247.99,762.26 1247.92,762.308 1229.11,764.338C1214.2,765.947 1204.39,765.979 1188.64,764.471Z" style="fill:url(#_Linear34);"/>
                <path d="M1264.82,760.063C1264.82,759.831 1268.29,755.054 1272.52,749.449C1282.47,736.264 1289.52,722.067 1292.99,708.224C1295.26,699.18 1295.64,694.466 1295.11,682.485C1294.33,665.042 1291.44,655.678 1282.75,642.447C1279.48,637.468 1276.96,633.305 1277.15,633.196C1277.34,633.087 1281.69,631.286 1286.82,629.194C1291.96,627.101 1304.33,621.286 1314.33,616.271C1339.13,603.824 1343.38,604.027 1356.4,618.275C1374.36,637.921 1383.32,674.606 1377.78,705.819C1374.6,723.786 1370,733.764 1361.94,740.184C1360.77,741.118 1351.49,743.084 1341.32,744.553C1331.15,746.022 1310.89,750.208 1296.31,753.855C1272.41,759.833 1264.82,761.328 1264.82,760.063Z" style="fill:url(#_Linear35);"/>
                <path d="M1112.82,756.773C1112.82,756.198 1116.53,753.966 1121.06,751.814C1137.47,744.023 1153.81,724.589 1162.01,703.12C1169.15,684.416 1170.75,675.28 1170.79,652.823C1170.81,640.178 1171.33,632.497 1172.16,632.502C1175.01,632.521 1187.43,640.626 1194.48,647.071C1198.56,650.795 1204.8,658.1 1208.36,663.307C1214.5,672.299 1214.82,673.215 1214.81,681.629C1214.77,699.488 1203.59,722.467 1188.42,735.844C1179.52,743.698 1160.11,753.332 1148.16,755.825C1138.33,757.875 1112.82,758.56 1112.82,756.773Z" style="fill:url(#_Linear36);"/>
                <path d="M1084.5,747.933L1075.51,744.98L1082.69,738.775C1092.16,730.601 1102.42,716.755 1107.72,705.011L1111.99,695.536L1121.41,693.178C1132.18,690.481 1148.1,682.48 1156.7,675.436L1162.58,670.625L1161.7,676.121C1161.22,679.144 1158.61,687.784 1155.9,695.321C1147.32,719.223 1133.46,736.25 1114.47,746.23C1103.41,752.043 1097.96,752.353 1084.5,747.933Z" style="fill:url(#_Linear37);"/>
                <path d="M1254.1,734.269C1242.22,698.496 1222.22,659.619 1207.64,643.982L1202.82,638.812L1216.82,639.621C1224.52,640.065 1237.82,639.794 1246.38,639.017C1257.57,638.001 1262.7,638.014 1264.66,639.063C1269.18,641.486 1279.63,657.395 1282.48,666.209C1290.36,690.552 1281.56,725.477 1263.15,742.936L1258.46,747.386L1254.1,734.269Z" style="fill:url(#_Linear38);"/>
                <path d="M1056.61,734.53C1050.76,731.226 1047.19,723.971 1046.47,713.919C1045.63,702.09 1048.92,694.14 1056.71,689.224L1062.16,685.784L1058.09,682.135C1044.55,670.003 1055.1,644.551 1076.21,638.413C1090.28,634.322 1100.37,637.166 1107.16,647.139C1109.73,650.916 1110.16,653.29 1110.16,663.736C1110.16,677.917 1107.83,688.133 1101.63,701.152C1092.12,721.123 1077.96,735.147 1066.41,736.045C1062.49,736.351 1058.84,735.786 1056.61,734.53Z" style="fill:url(#_Linear39);"/>
                <path d="M1116.38,683.612C1116.93,681.526 1117.34,672.919 1117.29,664.485C1117.2,651.87 1116.59,647.319 1113.81,638.811C1111.95,633.124 1110.94,628.162 1111.55,627.784C1114.67,625.854 1134.68,624.512 1142.23,625.727C1157.96,628.261 1163.49,634.62 1163.49,650.178C1163.49,661.288 1162.12,663.61 1149.92,673.156C1140.57,680.472 1131.28,684.759 1121.1,686.453L1115.38,687.406L1116.38,683.612Z" style="fill:url(#_Linear40);"/>
            </g>
            <g>
                <path d="M814.308,487.638C800.385,475.038 794.349,460.491 800.491,454.339C805.126,449.697 818.404,441.98 826.527,439.208C845.464,432.745 860.403,434.602 869.374,444.531C874.883,450.629 876.168,454.46 876.071,464.485C875.993,472.53 873.73,477.882 867.976,483.637C861.912,489.701 856.92,491.722 848.158,491.66C836.579,491.578 829.308,487.003 827.13,478.43C826.765,476.994 826.389,478.819 826.294,482.485C826.1,489.978 824.984,495.152 823.563,495.152C823.04,495.152 818.875,491.771 814.308,487.638Z" style="fill:url(#_Radial41);"/>
                <path d="M780.614,468.718C756.505,456.157 748.122,448.607 742.025,433.962C732.381,410.794 737.27,385.011 753.198,375.044C758.656,371.629 762.574,372.198 777.128,378.519L788.478,383.449L784.318,391.519C780.235,399.44 780.158,399.937 780.178,418.371C780.198,436.903 780.271,437.364 785.722,453.152C788.761,461.952 791.666,470.202 792.178,471.485C793.538,474.891 791.548,474.415 780.614,468.718Z" style="fill:url(#_Radial42);"/>
                <path d="M790.884,444.152C784.727,429.368 784.842,407.473 791.142,395.237C794.722,388.284 795.235,387.846 799.329,388.251C807.295,389.04 831.274,397.402 838.063,401.758C845.495,406.527 850.158,412.942 850.158,418.397C850.158,424.875 847.921,426.952 837.793,429.88C820.501,434.878 812.303,438.068 803.258,443.319C798.364,446.161 793.983,448.485 793.524,448.485C793.064,448.485 791.876,446.535 790.884,444.152Z" style="fill:url(#_Radial43);"/>
                <path d="M719.356,431.347C703.273,419.148 692.179,404.578 686.746,388.518C682.463,375.859 679.099,349.689 679.758,334.152C680.046,327.369 679.85,321.819 679.323,321.819C674.41,321.819 672.84,368.964 677.16,386.749C678.442,392.027 679.491,396.962 679.491,397.716C679.491,401.354 657.293,387.884 647.038,378.023C627.265,359.011 614.158,329.345 614.158,303.605C614.158,294.066 614.558,292.085 616.974,289.669C620.546,286.097 624.763,286.688 639.991,292.896C654.679,298.885 674.035,310.464 691.491,323.706C703.853,333.083 716.094,341.308 740.491,356.63C744.341,359.048 747.491,361.668 747.491,362.452C747.491,363.236 745.68,366.075 743.467,368.759C732.07,382.586 726.262,404.179 728.294,425.166C728.968,432.125 729.152,437.819 728.704,437.819C728.255,437.819 724.049,434.907 719.356,431.347Z" style="fill:url(#_Radial44);"/>
            </g>
            <g>
                <path d="M934.786,491.574C933.497,489.605 932.146,485.372 931.785,482.167C931.29,477.777 930.65,476.523 929.193,477.082C914.31,482.793 903.199,473.77 902.943,455.765C902.804,445.973 905.26,441.619 913.616,436.841C920.487,432.912 932.663,432.775 942.441,436.516C950.727,439.687 954.077,442.284 958.733,449.145C966.731,460.931 959.903,482.995 945.272,492.642C940.106,496.047 937.547,495.787 934.786,491.574Z" style="fill:url(#_Radial45);"/>
                <path d="M967.908,476.819C968.309,475.535 971.042,468.095 973.983,460.284C985.944,428.511 986.792,401.643 976.27,387.848C974.375,385.363 972.824,383.033 972.824,382.67C972.824,381.555 987.404,376.485 990.613,376.485C995.843,376.485 1007.25,383.136 1012.76,389.401C1020.65,398.359 1023.89,407.948 1023.95,422.485C1024.02,443.556 1016.85,455.347 996.653,467.346C988.182,472.379 972.092,479.152 968.608,479.152C967.823,479.152 967.508,478.102 967.908,476.819Z" style="fill:url(#_Radial46);"/>
                <path d="M964.418,444.639C960.399,438.566 948.582,431.824 935.19,427.964C926.401,425.43 924.536,423.009 926.085,416.143C928.44,405.699 940.42,395.692 957.675,389.755L964.759,387.318L969.32,392.647C974.59,398.804 976.824,406.297 976.824,417.813C976.824,427.912 973.388,443.494 970.328,447.273C968.035,450.105 968.034,450.104 964.418,444.639Z" style="fill:url(#_Radial47);"/>
                <path d="M1073.3,413.694C1073.79,411.929 1075.35,403.736 1076.77,395.487C1078.92,383 1080.35,378.647 1085.33,369.487C1091.63,357.908 1098.19,340.153 1098.11,334.917C1098.08,332.965 1095.24,337.244 1090.43,346.485C1086.24,354.552 1081.64,362.884 1080.21,365.001L1077.61,368.85L1076.67,365.668C1076.15,363.917 1074.71,359.103 1073.47,354.969C1072.23,350.834 1069.51,344.864 1067.41,341.702C1064.39,337.141 1063.93,335.56 1065.18,334.057C1066.05,333.014 1074.69,326.899 1084.4,320.468C1109.5,303.837 1132.88,292.881 1148.62,290.363C1153.76,289.542 1154.19,289.727 1155.59,293.32C1156.45,295.553 1156.75,300.394 1156.29,304.923C1152.85,339.092 1128.72,375.54 1090.91,403.68C1071.86,417.861 1072.19,417.674 1073.3,413.694Z" style="fill:url(#_Radial48);"/>
                <path d="M1042.84,325.485C1050.77,308.119 1052.62,284.021 1047.38,266.457C1041.99,248.374 1041.61,245.6 1043.87,240.256C1051.48,222.213 1087.7,226.132 1120.05,248.499C1130.84,255.959 1140.61,265.627 1144.02,272.225C1146.59,277.18 1147.28,276.639 1129.49,283.499C1113.71,289.581 1096.31,298.44 1081.49,307.932C1062.94,319.816 1041.89,332.485 1040.71,332.485C1040.12,332.485 1041.08,329.335 1042.84,325.485Z" style="fill:url(#_Radial49);"/>
                <path d="M1034.16,432.678C1034.16,409.655 1026.49,389.142 1012.63,375.06L1004.41,366.713L1007.62,364.103C1010.96,361.386 1048.62,342.688 1053.76,341.198C1056.13,340.511 1057.34,341.327 1060.05,345.418C1066.2,354.707 1069.1,365.331 1069.28,379.152C1069.56,401.546 1063.31,418.284 1050.25,430.064C1045.93,433.962 1040.54,438.236 1038.28,439.561L1034.16,441.97L1034.16,432.678Z" style="fill:url(#_Radial50);"/>
            </g>
            <g>
                <path d="M902.099,416.93C902.069,416.319 901.505,409.519 900.849,401.819C897.472,362.171 909.249,329.338 933.383,311.117C942.71,304.074 975.867,285.141 998.824,273.748C1019.48,263.499 1028.93,260.39 1032.53,262.66C1038.3,266.302 1040.46,291.391 1036.35,307.152C1032.88,320.443 1027.97,329.263 1018.33,339.483C1005.14,353.458 992.87,361.09 962.105,374.445L949.312,379.998L957.692,363.241C968.63,341.368 972.884,326.699 973.569,308.485C974.146,293.145 974.41,292.672 967.995,318.481C964.345,333.167 956.052,351.878 947.822,363.998C944.889,368.316 937.19,378.143 930.712,385.834C924.234,393.526 915.656,403.719 911.651,408.485C904.404,417.109 902.21,419.049 902.099,416.93Z" style="fill:url(#_Linear51);"/>
                <path d="M934.421,290.819C936.139,283.408 934.852,269.588 931.551,259.992C928.419,250.89 918.399,233.674 911.081,224.823C908.199,221.337 905.315,217.102 904.671,215.411C902.613,210.006 908.3,202.233 918.158,196.975C921.996,194.927 925.664,194.498 938.824,194.558C953.618,194.626 955.891,194.996 968.978,199.461C987.901,205.919 1000.54,213.57 1013.73,226.556C1024.25,236.908 1027.35,242.123 1025.64,246.588C1025.19,247.747 1019.28,251.176 1012.49,254.207C993.536,262.676 969.899,275.051 951.21,286.292C941.888,291.898 934.002,296.485 933.685,296.485C933.367,296.485 933.7,293.935 934.421,290.819Z" style="fill:url(#_Linear52);"/>
            </g>
            <path id="Leaves" d="M776.934,656.215C776.062,655.083 774.67,653.644 773.526,652.284C769.324,647.29 767.006,638.721 768.065,632.098C769.102,625.615 774.275,615.297 779.435,609.42C784.733,603.386 793.648,597.338 795.946,598.22C798.66,599.261 803.795,619.75 803.74,629.314C803.707,634.865 802.813,639.253 800.983,642.84C798.433,647.84 790.33,655.589 787.198,656.451C787.141,656.204 787.093,655.976 787.056,655.768C786.676,653.664 785.443,649.499 785.028,644.349C784.449,637.168 784.668,628.867 783.98,628.603C781.762,627.751 776.098,646.316 776.934,656.215ZM980.827,634.763C979.445,633.708 977.714,631.981 977.35,629.753C976.474,624.395 977.829,615.243 981.131,609.626C983.134,606.22 986.715,601.799 989.089,599.801C994.656,595.117 1004.47,590.35 1005.8,591.687C1007.28,593.179 1006.7,608.189 1004.9,614.852C1003.07,621.658 996.75,629.914 990.165,632.438C987.986,633.274 986.416,634.123 985.338,634.949C985.077,634.353 984.952,633.653 985.064,632.835C985.439,630.11 985.758,625.934 987.715,621.473C991.49,612.872 995.659,609.35 994.684,608.367C993.358,607.031 982.287,620.086 980.853,633.638C980.853,633.638 980.872,634.076 980.827,634.763ZM1022.65,742.772C1021.41,741.872 1018.46,740.571 1016.7,739.271C1011.62,735.518 1007.56,726.926 1007.51,719.819C1007.44,711.108 1010.59,688.485 1011.87,688.485C1014.35,688.485 1029.9,704.799 1033.18,710.835C1039.83,723.111 1037.37,734.367 1032.18,740.1C1031.28,741.088 1029.63,742.201 1028.19,743.072C1028.73,740.882 1029.39,737.364 1028.77,733.594C1026.39,719.098 1019.15,706.457 1017.13,706.457C1015.9,706.457 1029.94,732.019 1022.65,742.772Z" style="fill:url(#_Linear53);"/>
        </g>
        <g id="Trunk">
            <path id="Trunk-3" serif:id="Trunk 3" d="M1120.16,778.522C1123.13,780.744 1136.19,802.671 1138.23,813.162C1138.62,815.212 1116.36,792.44 1112.26,789.145C1106.04,784.148 1083.78,773.037 1072.16,769.124C1058.06,764.377 1036.24,763.133 1023.47,766.347C1009.16,769.946 998.555,776.076 987.281,787.272C966.579,807.829 956.706,837.231 951.281,894.485L949.512,913.152L947.907,887.26C946.107,858.229 943.561,838.82 938.699,817.04L935.399,802.261L941.112,796.206C944.254,792.876 950.995,785.506 956.092,779.829C961.19,774.152 968.55,767.151 972.449,764.27C983.351,756.217 999.76,748.838 1010.95,746.958C1016.38,746.045 1020.99,744.682 1021.56,744.099C1031.21,734.311 1015.85,706.457 1017.13,706.457C1019.15,706.457 1026.39,719.098 1028.77,733.594C1029.78,739.772 1027.36,745.277 1027.68,745.36C1031.28,746.308 1041.92,746.995 1041.92,746.995C1067.67,749.951 1098.59,762.411 1120.16,778.522ZM923.027,748.406C914.393,713.479 910.972,692.485 913.914,692.485C914.513,692.485 920.363,687.408 926.914,681.203C939.863,668.936 954.558,657.558 968.391,649.086C968.391,649.086 975.567,643.254 977.208,642.249C981.126,639.85 980.853,633.638 980.853,633.638C982.287,620.086 993.358,607.031 994.684,608.367C995.659,609.35 991.49,612.872 987.715,621.473C985.758,625.934 985.439,630.11 985.064,632.835C984.619,636.078 987.909,637.468 988.592,637.89C989.276,638.312 993.259,637.363 998.902,635.121C1038.51,619.388 1078.86,609.055 1106.16,607.657C1119.63,606.966 1143.86,606.142 1153.55,606.671C1157.38,606.881 1179.46,609.035 1172.76,609.802C1171.41,609.957 1158.24,610.475 1153.42,610.923C1143.02,611.892 1112.79,616.938 1102.16,619.117C1079.41,623.779 1059.23,629.948 1033.49,640.108C998.847,653.783 980.337,665.099 962.728,683.369C942.614,704.238 932.27,725.158 928.318,752.962L926.798,763.66L923.027,748.406Z" style="fill:url(#_Linear54);"/>
            <path id="Trunk-2" serif:id="Trunk 2" d="M738.824,469.956C719.847,457.828 695.853,433.031 702.307,435.023C704.956,435.84 716.356,442.303 727.641,449.385C738.925,456.467 758.358,467.933 770.824,474.866C796.386,489.081 806.439,495.973 825.247,512.176C845.362,529.507 863.603,552.395 873.691,572.964C875.72,577.101 877.805,580.485 878.325,580.485C879.504,580.485 881.29,572.219 884.372,552.485C887.702,531.163 887.761,477.493 884.475,458.944C880.333,435.571 875.847,423.642 861.36,406.247C856.461,400.365 826.829,343.032 833.858,349.709C842.529,357.945 866.939,389.364 867.795,390.171C868.386,390.728 870.238,393.03 871.835,392.2C873.442,391.366 874.793,387.383 875.117,383.045C876.905,359.058 897.396,323.935 899.941,319.729C903.471,313.894 894.586,343.517 891.923,357.819C887.439,381.908 888.618,408.254 891.782,424.485C892.997,430.719 895.826,445.306 898.068,456.903C903.268,483.792 905.319,510.297 904.15,535.485C903.648,546.302 903.546,555.152 903.924,555.152C904.302,555.152 914.409,545.367 926.384,533.408C954.722,505.109 960.8,500.609 1030.82,456.086C1073.48,428.965 1099.07,411.059 1101.32,414.706C1102.61,416.793 1063.78,446.744 1039.49,463.932C983.598,503.48 976.195,509.192 960.137,525.152C924.472,560.6 907.844,596.403 903.428,647.259C900.887,676.524 904.794,710.864 916.006,757.819C936.64,844.235 939.101,861.31 940.791,929.819C942.024,979.757 943.262,991.425 949.689,1013.67C961.108,1053.19 985.322,1083.73 1017.49,1099.16C1023.36,1101.98 1037.52,1110.67 1050.75,1115.04C1063.99,1119.41 1083.05,1124.91 1092.45,1127.65C1101.95,1130.41 1115.19,1135.46 1122.03,1137.36C1157.86,1147.33 1168.34,1153.85 1186.55,1168.88C1190.06,1171.78 1192.68,1174.41 1192.37,1174.71C1192.07,1175.02 1186.79,1173.2 1180.65,1170.68C1164.21,1163.91 1153.79,1160.99 1129.75,1156.43C1117.88,1154.17 1099.06,1150.36 1089.07,1149.42C1068.27,1147.46 1050.7,1146.14 1010.29,1129.23C957.313,1107.05 945.858,1080.82 942.361,1079.49C938.593,1078.06 955.375,1108.2 969.636,1121.42C979.925,1130.96 991.926,1136.4 1012.02,1150.07C1036.23,1166.55 1067.19,1195.2 1060.49,1194.93C1059.52,1194.89 1047.33,1189.02 1033.4,1181.88C1019.46,1174.74 999.985,1165.03 990.111,1160.31C970.067,1150.73 953.619,1144.26 941.041,1132.03C926.059,1117.47 920.836,1108.8 916.08,1098.43C910.664,1086.62 910.179,1070.45 911.263,1061.59C912.939,1047.89 919.961,1020.44 919.992,995.819C920.008,983.261 919.256,968.692 918.305,963.152C912.562,929.689 900.63,898.383 883.599,872.091C875.987,860.342 875.322,858.693 874.192,848.784C869.928,811.405 846.889,765.715 816.863,735.093C793.608,711.378 766.93,694.099 733.426,681.053C707.088,670.797 668.888,658.169 656.833,655.734C643.926,653.126 624.727,653.658 604.158,657.194C586.796,660.178 646.535,638.743 692.551,652.541C730.267,663.85 736.824,665.478 736.824,663.533C736.824,661.901 717.592,640.432 697.914,618.565C688.248,607.824 670.852,551.071 673.57,555.118C677.671,561.224 686.608,579.792 704.116,603.472C711.795,613.858 728.655,636.248 741.399,648.005C750.76,656.642 784.691,680.957 785.861,679.868C786.065,679.678 784.115,675.106 781.528,669.708C778.941,664.311 777.313,659.105 777.049,657.243C775.688,647.67 781.682,627.721 783.98,628.603C784.668,628.867 784.449,637.168 785.028,644.349C785.443,649.499 786.676,653.664 787.056,655.768C787.59,658.726 790.16,665.897 793.188,670.905C798.245,679.268 807.344,688.045 830.594,706.989C849.82,722.654 862.797,736.091 878.597,756.69C884.588,764.502 889.653,770.74 889.851,770.552C890.049,770.364 888.686,764.572 886.822,757.681C880.193,733.17 873.94,690.697 871.473,653.427C869.113,617.76 863.297,595.602 848.923,567.508C829.809,530.15 804.414,506.44 754.824,479.654C751.891,478.069 744.691,473.705 738.824,469.956Z" style="fill:url(#_Linear55);"/>
            <path id="Trunk-1" serif:id="Trunk 1" d="M795.464,1214.9C784.741,1200.1 784.187,1169.36 794.287,1149.57C795.729,1146.74 796.253,1144.49 795.468,1144.49C793.023,1144.49 759.166,1161.14 751.244,1166.24C742.691,1171.75 732.215,1180.22 715.169,1195.42C699.999,1208.95 697.108,1209.04 706.343,1195.68C727.607,1164.92 747.584,1141.43 789.824,1125.81C796.909,1123.19 806.484,1117.53 808.156,1116.2C832.065,1097.26 848.919,1071.99 847.229,1072.6C846.084,1073.01 811.273,1107.41 795.331,1115.27C781.991,1121.85 749.681,1135.81 734.158,1141.82C706.106,1152.68 700.086,1154.2 670.824,1157.81C643.724,1161.16 635.122,1163.03 619.776,1168.95C613.386,1171.41 606.958,1173.86 605.491,1174.39C604.024,1174.92 605.824,1172.58 609.491,1169.2C621.67,1157.97 641.859,1149.56 677.165,1141.01C690.642,1137.74 733.332,1120.75 745.432,1115.01C792.387,1092.74 796.296,1083.37 815.082,1064.75C839.882,1040.16 854.802,1010.35 860.074,974.845C861.22,967.126 862.154,957.287 862.15,952.981C862.13,933.172 855.679,907.855 846.072,889.88C831.655,862.908 804.531,839.431 775.186,828.524C749.739,819.065 716.074,819.111 696.158,826.225C667.008,836.637 659.238,844.304 657.868,842.577C657.535,842.156 667.464,832.58 669.08,831.364C678.983,823.912 692.439,818.268 703.401,814.793C708.503,813.175 712.632,811.307 712.577,810.642C712.522,809.977 707.74,809.493 701.95,809.567C696.16,809.641 612.914,812.248 626.258,810.14C636.457,808.528 648.85,807.308 663.491,806.469C671.191,806.028 685.591,804.754 695.491,803.637C732.83,799.427 763.324,801.638 789.716,810.469C835.17,825.679 868.386,855.322 889.493,899.513C911.591,945.778 916.405,989.953 906.164,1052.49C902.438,1075.23 901.988,1080.65 902.567,1095.82C903.683,1125.06 910.285,1141.95 927.346,1159.22C938.292,1170.3 950.849,1178.94 976.468,1193.03C992.784,1202 997.192,1205.23 991.269,1203.88C989.558,1203.49 983.958,1202.54 978.824,1201.77C955.509,1198.26 927.215,1187.26 911.353,1175.54C887.356,1157.82 868.421,1123.39 868.234,1097.15C868.175,1088.88 868.712,1085.67 870.626,1082.85C873.345,1078.84 882.199,1054.37 882.088,1051.17C882.05,1050.06 880.655,1052.82 878.989,1057.3C877.323,1061.78 874.254,1068.38 872.17,1071.97C865.635,1083.21 844.543,1112.85 823.792,1139.96C808.148,1160.4 800.198,1184.48 801.071,1208.78C801.302,1215.22 801.045,1220.49 800.499,1220.49C799.954,1220.49 797.688,1217.97 795.464,1214.9ZM865.689,1207.17C855.411,1196.27 846.29,1178.79 842.937,1163.56C839.054,1145.91 842.926,1121.62 845.994,1116.6C847.27,1114.51 861.685,1090.49 864.833,1090.04C866.303,1089.84 864.931,1116.1 864.801,1117.35C864.464,1120.62 863.89,1126.55 862.806,1133.15C857.973,1162.56 862.232,1192.96 873.511,1209.56C875.333,1212.24 876.824,1214.9 876.824,1215.46C876.824,1218.03 873.835,1215.8 865.689,1207.17Z" style="fill:url(#_Radial56);"/>
        </g>
        <path id="Circle" d="M547.898,1147.46C377.618,1040.19 265.194,856.058 265.194,647.091C265.194,316.329 546.861,47.792 893.797,47.792C1240.73,47.792 1522.4,316.329 1522.4,647.091C1522.4,856.058 1409.98,1040.19 1239.7,1147.46C1208.17,1134.84 1174.16,1123.9 1138.13,1114.89C1319.58,1029.72 1444.95,852.631 1444.95,647.091C1444.95,358.03 1196.99,125.243 893.797,125.243C590.601,125.243 342.645,358.03 342.645,647.091C342.645,852.631 468.012,1029.72 649.463,1114.89C613.435,1123.9 579.424,1134.84 547.898,1147.46Z" style="fill:rgb(50,194,216);"/>
    </g>
    <path id="Name---Zen-Maru" serif:id="Name - Zen Maru" d="M156.862,1399.68C148.244,1399.68 143.935,1395.22 143.935,1386.3L143.935,1254.31C143.935,1245.39 148.244,1240.93 156.862,1240.93C165.631,1240.93 170.016,1245.39 170.016,1254.31L170.016,1309.87L221.042,1251.14C224.369,1247.05 227.392,1244.33 230.114,1242.97C232.835,1241.61 236.313,1240.93 240.546,1240.93C244.326,1240.93 247.123,1241.84 248.937,1243.65C250.751,1245.47 251.621,1247.66 251.545,1250.23C251.469,1252.8 250.525,1255.22 248.71,1257.49L197.91,1314.86L251.885,1383.58C253.7,1386 254.682,1388.57 254.833,1391.29C254.985,1394.01 254.115,1396.28 252.225,1398.09C250.336,1399.91 247.198,1400.82 242.814,1400.82C238.278,1400.82 234.612,1399.95 231.815,1398.21C229.018,1396.47 226.561,1394.16 224.444,1391.29L170.016,1318.49L170.016,1386.3C170.016,1395.22 165.631,1399.68 156.862,1399.68Z" style="fill:rgb(35,74,132);fill-rule:nonzero;"/>
    <path d="M295.201,1399.68C286.583,1399.68 282.275,1395.22 282.275,1386.3L282.275,1254.31C282.275,1245.39 286.583,1240.93 295.201,1240.93C303.97,1240.93 308.355,1245.39 308.355,1254.31L308.355,1386.3C308.355,1395.22 303.97,1399.68 295.201,1399.68Z" style="fill:rgb(35,74,132);fill-rule:nonzero;"/>
    <path d="M353.485,1399.68C344.867,1399.68 340.559,1395.22 340.559,1386.3L340.559,1254.31C340.559,1245.39 344.867,1240.93 353.485,1240.93L356.434,1240.93C363.237,1240.93 368.604,1243.88 372.535,1249.78L441.478,1353.64L441.478,1254.31C441.478,1249.93 442.65,1246.6 444.993,1244.33C447.337,1242.07 450.625,1240.93 454.859,1240.93C463.628,1240.93 468.012,1245.39 468.012,1254.31L468.012,1386.3C468.012,1395.22 463.854,1399.68 455.539,1399.68L453.271,1399.68C446.316,1399.68 440.949,1396.73 437.169,1390.84L366.639,1283.79L366.639,1386.3C366.639,1395.22 362.254,1399.68 353.485,1399.68Z" style="fill:rgb(35,74,132);fill-rule:nonzero;"/>
    <path d="M513.369,1399.68C504.449,1399.68 499.989,1395.22 499.989,1386.3L499.989,1254.31C499.989,1245.39 504.449,1240.93 513.369,1240.93L551.016,1240.93C566.891,1240.93 580.611,1243.88 592.177,1249.78C603.743,1255.67 612.664,1264.52 618.938,1276.31C625.213,1288.1 628.35,1302.77 628.35,1320.31C628.35,1337.69 625.213,1352.28 618.938,1364.08C612.664,1375.87 603.743,1384.75 592.177,1390.72C580.611,1396.69 566.891,1399.68 551.016,1399.68L513.369,1399.68ZM526.069,1375.41L548.975,1375.41C565.303,1375.41 578.041,1370.69 587.188,1361.24C596.335,1351.79 600.909,1338.15 600.909,1320.31C600.909,1302.31 596.335,1288.63 587.188,1279.26C578.041,1269.88 565.303,1265.2 548.975,1265.2L526.069,1265.2L526.069,1375.41Z" style="fill:rgb(35,74,132);fill-rule:nonzero;"/>
    <path d="M665.996,1399.68C657.076,1399.68 652.616,1395.22 652.616,1386.3L652.616,1254.31C652.616,1245.39 657.076,1240.93 665.996,1240.93L745.371,1240.93C754.291,1240.93 758.752,1245.01 758.752,1253.18C758.752,1261.19 754.291,1265.2 745.371,1265.2L678.696,1265.2L678.696,1306.47L738.341,1306.47C747.261,1306.47 751.721,1310.55 751.721,1318.72C751.721,1326.88 747.261,1330.96 738.341,1330.96L678.696,1330.96L678.696,1375.41L747.866,1375.41C756.786,1375.41 761.246,1379.42 761.246,1387.43C761.246,1395.6 756.786,1399.68 747.866,1399.68L665.996,1399.68Z" style="fill:rgb(35,74,132);fill-rule:nonzero;"/>
    <path d="M798.439,1399.68C789.821,1399.68 785.512,1395.22 785.512,1386.3L785.512,1254.31C785.512,1245.39 789.972,1240.93 798.893,1240.93L858.084,1240.93C872.9,1240.93 884.656,1244.41 893.349,1251.36C902.042,1258.32 906.389,1270.04 906.389,1286.52C906.389,1300.42 903.214,1310.97 896.864,1318.15C890.514,1325.33 881.745,1329.76 870.557,1331.42L896.637,1383.81C898.905,1388.49 899.359,1392.31 897.998,1395.26C896.637,1398.21 893.765,1399.68 889.38,1399.68L885.071,1399.68C877.512,1399.68 872.296,1396.28 869.423,1389.48L843.343,1332.55L811.593,1332.55L811.593,1386.3C811.593,1395.22 807.208,1399.68 798.439,1399.68ZM811.593,1308.06L854.455,1308.06C862.166,1308.06 868.138,1306.4 872.371,1303.07C876.605,1299.74 878.721,1294.23 878.721,1286.52C878.721,1278.95 876.605,1273.51 872.371,1270.19C868.138,1266.86 862.166,1265.2 854.455,1265.2L811.593,1265.2L811.593,1308.06Z" style="fill:rgb(35,74,132);fill-rule:nonzero;"/>
    <path d="M1007.54,1399.68C998.767,1399.68 994.382,1395.22 994.382,1386.3L994.382,1254.31C994.382,1249.17 995.705,1245.66 998.351,1243.77C1001,1241.88 1004.89,1240.93 1010.03,1240.93C1016.99,1240.93 1022.28,1243.95 1025.9,1250L1066.05,1317.13L1105.73,1250.23C1107.85,1246.45 1110.31,1243.95 1113.1,1242.75C1115.9,1241.54 1119.57,1240.93 1124.1,1240.93C1133.02,1240.93 1137.48,1245.39 1137.48,1254.31L1137.48,1386.3C1137.48,1395.22 1133.02,1399.68 1124.1,1399.68C1115.18,1399.68 1110.72,1395.22 1110.72,1386.3L1110.72,1286.52L1078.75,1341.85C1075.57,1348.05 1071.26,1351.15 1065.82,1351.15C1060.38,1351.15 1056.07,1348.05 1052.89,1341.85L1020.69,1286.52L1020.69,1386.3C1020.69,1395.22 1016.31,1399.68 1007.54,1399.68Z" style="fill:rgb(35,74,132);fill-rule:nonzero;"/>
    <path d="M1182.39,1399.68C1173.77,1399.68 1169.46,1395.22 1169.46,1386.3L1169.46,1254.31C1169.46,1245.39 1173.77,1240.93 1182.39,1240.93C1191.16,1240.93 1195.54,1245.39 1195.54,1254.31L1195.54,1386.3C1195.54,1395.22 1191.16,1399.68 1182.39,1399.68Z" style="fill:rgb(35,74,132);fill-rule:nonzero;"/>
    <path d="M1240.67,1399.68C1232.05,1399.68 1227.75,1395.22 1227.75,1386.3L1227.75,1254.31C1227.75,1245.39 1232.05,1240.93 1240.67,1240.93L1243.62,1240.93C1250.42,1240.93 1255.79,1243.88 1259.72,1249.78L1328.66,1353.64L1328.66,1254.31C1328.66,1249.93 1329.84,1246.6 1332.18,1244.33C1334.52,1242.07 1337.81,1240.93 1342.05,1240.93C1350.81,1240.93 1355.2,1245.39 1355.2,1254.31L1355.2,1386.3C1355.2,1395.22 1351.04,1399.68 1342.73,1399.68L1340.46,1399.68C1333.5,1399.68 1328.13,1396.73 1324.36,1390.84L1253.83,1283.79L1253.83,1386.3C1253.83,1395.22 1249.44,1399.68 1240.67,1399.68Z" style="fill:rgb(35,74,132);fill-rule:nonzero;"/>
    <path d="M1400.56,1399.68C1391.63,1399.68 1387.17,1395.22 1387.17,1386.3L1387.17,1254.31C1387.17,1245.39 1391.63,1240.93 1400.56,1240.93L1438.2,1240.93C1454.08,1240.93 1467.8,1243.88 1479.36,1249.78C1490.93,1255.67 1499.85,1264.52 1506.12,1276.31C1512.4,1288.1 1515.54,1302.77 1515.54,1320.31C1515.54,1337.69 1512.4,1352.28 1506.12,1364.08C1499.85,1375.87 1490.93,1384.75 1479.36,1390.72C1467.8,1396.69 1454.08,1399.68 1438.2,1399.68L1400.56,1399.68ZM1413.26,1375.41L1436.16,1375.41C1452.49,1375.41 1465.23,1370.69 1474.37,1361.24C1483.52,1351.79 1488.1,1338.15 1488.1,1320.31C1488.1,1302.31 1483.52,1288.63 1474.37,1279.26C1465.23,1269.88 1452.49,1265.2 1436.16,1265.2L1413.26,1265.2L1413.26,1375.41Z" style="fill:rgb(35,74,132);fill-rule:nonzero;"/>
    <path d="M1597.18,1402.86C1585.99,1402.86 1575.56,1400.93 1565.88,1397.07C1556.21,1393.22 1547.89,1386.75 1540.94,1377.68C1538.37,1374.05 1537.5,1370.69 1538.33,1367.59C1539.16,1364.49 1541.39,1361.96 1545.02,1359.99C1548.5,1357.88 1551.67,1357.23 1554.54,1358.07C1557.42,1358.9 1560.29,1360.9 1563.16,1364.08C1567.24,1368.46 1572.12,1371.86 1577.79,1374.28C1583.46,1376.7 1590.22,1377.91 1598.09,1377.91C1608.67,1377.91 1616.12,1375.98 1620.42,1372.13C1624.73,1368.27 1626.89,1363.02 1626.89,1356.37C1626.89,1352.13 1625.94,1348.5 1624.05,1345.48C1622.16,1342.45 1618.23,1339.62 1612.26,1336.98C1606.29,1334.33 1597.1,1331.64 1584.71,1328.92C1570.04,1325.45 1559.19,1319.93 1552.16,1312.37C1545.13,1304.81 1541.62,1295.21 1541.62,1283.57C1541.62,1274.34 1543.85,1266.22 1548.31,1259.19C1552.77,1252.16 1559.04,1246.68 1567.13,1242.75C1575.22,1238.81 1584.71,1236.85 1595.59,1236.85C1606.93,1236.85 1616.83,1238.81 1625.3,1242.75C1633.77,1246.68 1640.87,1251.74 1646.62,1257.94C1649.49,1261.12 1650.62,1264.29 1650.02,1267.46C1649.41,1270.64 1647.45,1273.51 1644.12,1276.08C1640.8,1278.8 1637.62,1279.86 1634.6,1279.26C1631.58,1278.65 1628.55,1276.91 1625.53,1274.04C1621.75,1270.56 1617.44,1267.69 1612.6,1265.42C1607.76,1263.16 1602.02,1262.02 1595.37,1262.02C1587.5,1262.02 1581.12,1263.72 1576.2,1267.12C1571.29,1270.53 1568.83,1275.63 1568.83,1282.43C1568.83,1285.46 1569.55,1288.37 1570.99,1291.16C1572.42,1293.96 1575.6,1296.64 1580.51,1299.21C1585.42,1301.79 1593.02,1304.28 1603.3,1306.7C1621.44,1310.78 1634.52,1316.9 1642.54,1325.07C1650.55,1333.23 1654.56,1343.51 1654.56,1355.91C1654.56,1371.03 1649.3,1382.63 1638.79,1390.72C1628.29,1398.81 1614.41,1402.86 1597.18,1402.86Z" style="fill:rgb(35,74,132);fill-rule:nonzero;"/>
    <defs>
        <linearGradient id="_Linear1" x1="0" y1="0" x2="1" y2="0" gradientUnits="userSpaceOnUse" gradientTransform="matrix(-99.2564,52.3785,-52.3785,-99.2564,611.219,617.968)"><stop offset="0" style="stop-color:rgb(46,49,74);stop-opacity:1"/><stop offset="1" style="stop-color:rgb(49,44,73);stop-opacity:1"/></linearGradient>
        <linearGradient id="_Linear2" x1="0" y1="0" x2="1" y2="0" gradientUnits="userSpaceOnUse" gradientTransform="matrix(-99.2564,52.3785,-52.3785,-99.2564,611.219,617.968)"><stop offset="0" style="stop-color:rgb(46,49,74);stop-opacity:1"/><stop offset="1" style="stop-color:rgb(49,44,73);stop-opacity:1"/></linearGradient>
        <linearGradient id="_Linear3" x1="0" y1="0" x2="1" y2="0" gradientUnits="userSpaceOnUse" gradientTransform="matrix(199.904,323.758,-323.758,199.904,483.613,296.832)"><stop offset="0" style="stop-color:rgb(35,87,100);stop-opacity:1"/><stop offset="1" style="stop-color:rgb(45,49,68);stop-opacity:1"/></linearGradient>
        <linearGradient id="_Linear4" x1="0" y1="0" x2="1" y2="0" gradientUnits="userSpaceOnUse" gradientTransform="matrix(199.904,323.758,-323.758,199.904,483.613,296.832)"><stop offset="0" style="stop-color:rgb(35,87,100);stop-opacity:1"/><stop offset="1" style="stop-color:rgb(45,49,68);stop-opacity:1"/></linearGradient>
        <linearGradient id="_Linear5" x1="0" y1="0" x2="1" y2="0" gradientUnits="userSpaceOnUse" gradientTransform="matrix(199.904,323.758,-323.758,199.904,483.613,296.832)"><stop offset="0" style="stop-color:rgb(35,87,100);stop-opacity:1"/><stop offset="1" style="stop-color:rgb(45,49,68);stop-opacity:1"/></linearGradient>
        <linearGradient id="_Linear6" x1="0" y1="0" x2="1" y2="0" gradientUnits="userSpaceOnUse" gradientTransform="matrix(199.904,323.758,-323.758,199.904,483.613,296.832)"><stop offset="0" style="stop-color:rgb(35,87,100);stop-opacity:1"/><stop offset="1" style="stop-color:rgb(45,49,68);stop-opacity:1"/></linearGradient>
        <radialGradient id="_Radial7" cx="0" cy="0" r="1" gradientUnits="userSpaceOnUse" gradientTransform="matrix(94.0486,34.9745,-34.9745,94.0486,693.091,511.712)"><stop offset="0" style="stop-color:rgb(37,116,91);stop-opacity:1"/><stop offset="1" style="stop-color:rgb(79,182,139);stop-opacity:1"/></radialGradient>
        <radialGradient id="_Radial8" cx="0" cy="0" r="1" gradientUnits="userSpaceOnUse" gradientTransform="matrix(94.0486,34.9745,-34.9745,94.0486,693.091,511.712)"><stop offset="0" style="stop-color:rgb(37,116,91);stop-opacity:1"/><stop offset="1" style="stop-color:rgb(79,182,139);stop-opacity:1"/></radialGradient>
        <radialGradient id="_Radial9" cx="0" cy="0" r="1" gradientUnits="userSpaceOnUse" gradientTransform="matrix(-135.802,-193.59,193.59,-135.802,882.458,406.247)"><stop offset="0" style="stop-color:rgb(32,64,73);stop-opacity:1"/><stop offset="1" style="stop-color:rgb(0,113,99);stop-opacity:1"/></radialGradient>
        <radialGradient id="_Radial10" cx="0" cy="0" r="1" gradientUnits="userSpaceOnUse" gradientTransform="matrix(-135.802,-193.59,193.59,-135.802,882.458,406.247)"><stop offset="0" style="stop-color:rgb(32,64,73);stop-opacity:1"/><stop offset="1" style="stop-color:rgb(0,113,99);stop-opacity:1"/></radialGradient>
        <linearGradient id="_Linear11" x1="0" y1="0" x2="1" y2="0" gradientUnits="userSpaceOnUse" gradientTransform="matrix(-58.4629,-88.697,88.697,-58.4629,837.181,289.75)"><stop offset="0" style="stop-color:rgb(0,136,109);stop-opacity:1"/><stop offset="1" style="stop-color:rgb(0,176,137);stop-opacity:1"/></linearGradient>
        <radialGradient id="_Radial12" cx="0" cy="0" r="1" gradientUnits="userSpaceOnUse" gradientTransform="matrix(290.99,-198.141,198.141,290.99,974.461,556.677)"><stop offset="0" style="stop-color:rgb(250,69,78);stop-opacity:1"/><stop offset="0.42" style="stop-color:rgb(155,46,37);stop-opacity:1"/><stop offset="0.68" style="stop-color:rgb(104,110,43);stop-opacity:1"/><stop offset="1" style="stop-color:rgb(132,181,54);stop-opacity:1"/></radialGradient>
        <radialGradient id="_Radial13" cx="0" cy="0" r="1" gradientUnits="userSpaceOnUse" gradientTransform="matrix(290.99,-198.141,198.141,290.99,974.461,556.677)"><stop offset="0" style="stop-color:rgb(250,69,78);stop-opacity:1"/><stop offset="0.42" style="stop-color:rgb(155,46,37);stop-opacity:1"/><stop offset="0.68" style="stop-color:rgb(104,110,43);stop-opacity:1"/><stop offset="1" style="stop-color:rgb(132,181,54);stop-opacity:1"/></radialGradient>
        <radialGradient id="_Radial14" cx="0" cy="0" r="1" gradientUnits="userSpaceOnUse" gradientTransform="matrix(290.99,-198.141,198.141,290.99,974.461,556.677)"><stop offset="0" style="stop-color:rgb(250,69,78);stop-opacity:1"/><stop offset="0.42" style="stop-color:rgb(155,46,37);stop-opacity:1"/><stop offset="0.68" style="stop-color:rgb(104,110,43);stop-opacity:1"/><stop offset="1" style="stop-color:rgb(132,181,54);stop-opacity:1"/></radialGradient>
        <radialGradient id="_Radial15" cx="0" cy="0" r="1" gradientUnits="userSpaceOnUse" gradientTransform="matrix(290.99,-198.141,198.141,290.99,974.461,556.677)"><stop offset="0" style="stop-color:rgb(250,69,78);stop-opacity:1"/><stop offset="0.42" style="stop-color:rgb(155,46,37);stop-opacity:1"/><stop offset="0.68" style="stop-color:rgb(104,110,43);stop-opacity:1"/><stop offset="1" style="stop-color:rgb(132,181,54);stop-opacity:1"/></radialGradient>
        <radialGradient id="_Radial16" cx="0" cy="0" r="1" gradientUnits="userSpaceOnUse" gradientTransform="matrix(290.99,-198.141,198.141,290.99,974.461,556.677)"><stop offset="0" style="stop-color:rgb(250,69,78);stop-opacity:1"/><stop offset="0.42" style="stop-color:rgb(155,46,37);stop-opacity:1"/><stop offset="0.68" style="stop-color:rgb(104,110,43);stop-opacity:1"/><stop offset="1" style="stop-color:rgb(132,181,54);stop-opacity:1"/></radialGradient>
        <radialGradient id="_Radial17" cx="0" cy="0" r="1" gradientUnits="userSpaceOnUse" gradientTransform="matrix(290.99,-198.141,198.141,290.99,974.461,556.677)"><stop offset="0" style="stop-color:rgb(250,69,78);stop-opacity:1"/><stop offset="0.42" style="stop-color:rgb(155,46,37);stop-opacity:1"/><stop offset="0.68" style="stop-color:rgb(104,110,43);stop-opacity:1"/><stop offset="1" style="stop-color:rgb(132,181,54);stop-opacity:1"/></radialGradient>
        <linearGradient id="_Linear18" x1="0" y1="0" x2="1" y2="0" gradientUnits="userSpaceOnUse" gradientTransform="matrix(234.576,-83.3903,83.3903,234.576,1135.25,606.032)"><stop offset="0" style="stop-color:rgb(148,95,35);stop-opacity:1"/><stop offset="1" style="stop-color:rgb(217,197,59);stop-opacity:1"/></linearGradient>
        <linearGradient id="_Linear19" x1="0" y1="0" x2="1" y2="0" gradientUnits="userSpaceOnUse" gradientTransform="matrix(234.576,-83.3903,83.3903,234.576,1135.25,606.032)"><stop offset="0" style="stop-color:rgb(148,95,35);stop-opacity:1"/><stop offset="1" style="stop-color:rgb(217,197,59);stop-opacity:1"/></linearGradient>
        <radialGradient id="_Radial20" cx="0" cy="0" r="1" gradientUnits="userSpaceOnUse" gradientTransform="matrix(-267.442,54.784,-54.784,-267.442,720.566,851.706)"><stop offset="0" style="stop-color:rgb(251,67,126);stop-opacity:1"/><stop offset="0.54" style="stop-color:rgb(151,30,96);stop-opacity:1"/><stop offset="0.63" style="stop-color:rgb(91,33,79);stop-opacity:1"/><stop offset="0.7" style="stop-color:rgb(107,34,90);stop-opacity:1"/><stop offset="0.79" style="stop-color:rgb(124,36,101);stop-opacity:1"/><stop offset="1" style="stop-color:rgb(132,37,106);stop-opacity:1"/></radialGradient>
        <radialGradient id="_Radial21" cx="0" cy="0" r="1" gradientUnits="userSpaceOnUse" gradientTransform="matrix(-267.442,54.784,-54.784,-267.442,720.566,851.706)"><stop offset="0" style="stop-color:rgb(251,67,126);stop-opacity:1"/><stop offset="0.54" style="stop-color:rgb(151,30,96);stop-opacity:1"/><stop offset="0.63" style="stop-color:rgb(91,33,79);stop-opacity:1"/><stop offset="0.7" style="stop-color:rgb(107,34,90);stop-opacity:1"/><stop offset="0.79" style="stop-color:rgb(124,36,101);stop-opacity:1"/><stop offset="1" style="stop-color:rgb(132,37,106);stop-opacity:1"/></radialGradient>
        <radialGradient id="_Radial22" cx="0" cy="0" r="1" gradientUnits="userSpaceOnUse" gradientTransform="matrix(-267.442,54.784,-54.784,-267.442,720.566,851.706)"><stop offset="0" style="stop-color:rgb(251,67,126);stop-opacity:1"/><stop offset="0.54" style="stop-color:rgb(151,30,96);stop-opacity:1"/><stop offset="0.63" style="stop-color:rgb(91,33,79);stop-opacity:1"/><stop offset="0.7" style="stop-color:rgb(107,34,90);stop-opacity:1"/><stop offset="0.79" style="stop-color:rgb(124,36,101);stop-opacity:1"/><stop offset="1" style="stop-color:rgb(132,37,106);stop-opacity:1"/></radialGradient>
        <radialGradient id="_Radial23" cx="0" cy="0" r="1" gradientUnits="userSpaceOnUse" gradientTransform="matrix(373.478,0,0,373.478,1024.88,848.485)"><stop offset="0" style="stop-color:rgb(255,129,72);stop-opacity:1"/><stop offset="0.26" style="stop-color:rgb(252,114,67);stop-opacity:1"/><stop offset="0.34" style="stop-color:rgb(245,77,55);stop-opacity:1"/><stop offset="0.42" style="stop-color:rgb(238,35,41);stop-opacity:1"/><stop offset="0.55" style="stop-color:rgb(252,44,40);stop-opacity:1"/><stop offset="0.64" style="stop-color:rgb(235,34,42);stop-opacity:1"/><stop offset="1" style="stop-color:rgb(255,76,43);stop-opacity:1"/></radialGradient>
        <radialGradient id="_Radial24" cx="0" cy="0" r="1" gradientUnits="userSpaceOnUse" gradientTransform="matrix(373.478,0,0,373.478,1024.88,848.485)"><stop offset="0" style="stop-color:rgb(255,129,72);stop-opacity:1"/><stop offset="0.26" style="stop-color:rgb(252,114,67);stop-opacity:1"/><stop offset="0.34" style="stop-color:rgb(245,77,55);stop-opacity:1"/><stop offset="0.42" style="stop-color:rgb(238,35,41);stop-opacity:1"/><stop offset="0.55" style="stop-color:rgb(252,44,40);stop-opacity:1"/><stop offset="0.64" style="stop-color:rgb(235,34,42);stop-opacity:1"/><stop offset="1" style="stop-color:rgb(255,76,43);stop-opacity:1"/></radialGradient>
        <radialGradient id="_Radial25" cx="0" cy="0" r="1" gradientUnits="userSpaceOnUse" gradientTransform="matrix(373.478,0,0,373.478,1024.88,848.485)"><stop offset="0" style="stop-color:rgb(255,129,72);stop-opacity:1"/><stop offset="0.26" style="stop-color:rgb(252,114,67);stop-opacity:1"/><stop offset="0.34" style="stop-color:rgb(245,77,55);stop-opacity:1"/><stop offset="0.42" style="stop-color:rgb(238,35,41);stop-opacity:1"/><stop offset="0.55" style="stop-color:rgb(252,44,40);stop-opacity:1"/><stop offset="0.64" style="stop-color:rgb(235,34,42);stop-opacity:1"/><stop offset="1" style="stop-color:rgb(255,76,43);stop-opacity:1"/></radialGradient>
        <radialGradient id="_Radial26" cx="0" cy="0" r="1" gradientUnits="userSpaceOnUse" gradientTransform="matrix(373.478,0,0,373.478,1024.88,848.485)"><stop offset="0" style="stop-color:rgb(255,129,72);stop-opacity:1"/><stop offset="0.26" style="stop-color:rgb(252,114,67);stop-opacity:1"/><stop offset="0.34" style="stop-color:rgb(245,77,55);stop-opacity:1"/><stop offset="0.42" style="stop-color:rgb(238,35,41);stop-opacity:1"/><stop offset="0.55" style="stop-color:rgb(252,44,40);stop-opacity:1"/><stop offset="0.64" style="stop-color:rgb(235,34,42);stop-opacity:1"/><stop offset="1" style="stop-color:rgb(255,76,43);stop-opacity:1"/></radialGradient>
        <linearGradient id="_Linear27" x1="0" y1="0" x2="1" y2="0" gradientUnits="userSpaceOnUse" gradientTransform="matrix(-347.456,-31.8116,31.8116,-347.456,755.643,742.297)"><stop offset="0" style="stop-color:rgb(217,73,122);stop-opacity:1"/><stop offset="0.28" style="stop-color:rgb(171,64,106);stop-opacity:1"/><stop offset="0.61" style="stop-color:rgb(52,40,64);stop-opacity:1"/><stop offset="0.79" style="stop-color:rgb(77,45,86);stop-opacity:1"/><stop offset="1" style="stop-color:rgb(84,46,92);stop-opacity:1"/></linearGradient>
        <linearGradient id="_Linear28" x1="0" y1="0" x2="1" y2="0" gradientUnits="userSpaceOnUse" gradientTransform="matrix(-347.456,-31.8116,31.8116,-347.456,755.643,742.297)"><stop offset="0" style="stop-color:rgb(217,73,122);stop-opacity:1"/><stop offset="0.28" style="stop-color:rgb(171,64,106);stop-opacity:1"/><stop offset="0.61" style="stop-color:rgb(52,40,64);stop-opacity:1"/><stop offset="0.79" style="stop-color:rgb(77,45,86);stop-opacity:1"/><stop offset="1" style="stop-color:rgb(84,46,92);stop-opacity:1"/></linearGradient>
        <linearGradient id="_Linear29" x1="0" y1="0" x2="1" y2="0" gradientUnits="userSpaceOnUse" gradientTransform="matrix(-347.456,-31.8116,31.8116,-347.456,755.643,742.297)"><stop offset="0" style="stop-color:rgb(217,73,122);stop-opacity:1"/><stop offset="0.28" style="stop-color:rgb(171,64,106);stop-opacity:1"/><stop offset="0.61" style="stop-color:rgb(52,40,64);stop-opacity:1"/><stop offset="0.79" style="stop-color:rgb(77,45,86);stop-opacity:1"/><stop offset="1" style="stop-color:rgb(84,46,92);stop-opacity:1"/></linearGradient>
        <linearGradient id="_Linear30" x1="0" y1="0" x2="1" y2="0" gradientUnits="userSpaceOnUse" gradientTransform="matrix(-347.456,-31.8116,31.8116,-347.456,755.643,742.297)"><stop offset="0" style="stop-color:rgb(217,73,122);stop-opacity:1"/><stop offset="0.28" style="stop-color:rgb(171,64,106);stop-opacity:1"/><stop offset="0.61" style="stop-color:rgb(52,40,64);stop-opacity:1"/><stop offset="0.79" style="stop-color:rgb(77,45,86);stop-opacity:1"/><stop offset="1" style="stop-color:rgb(84,46,92);stop-opacity:1"/></linearGradient>
        <linearGradient id="_Linear31" x1="0" y1="0" x2="1" y2="0" gradientUnits="userSpaceOnUse" gradientTransform="matrix(-347.456,-31.8116,31.8116,-347.456,755.643,742.297)"><stop offset="0" style="stop-color:rgb(217,73,122);stop-opacity:1"/><stop offset="0.28" style="stop-color:rgb(171,64,106);stop-opacity:1"/><stop offset="0.61" style="stop-color:rgb(52,40,64);stop-opacity:1"/><stop offset="0.79" style="stop-color:rgb(77,45,86);stop-opacity:1"/><stop offset="1" style="stop-color:rgb(84,46,92);stop-opacity:1"/></linearGradient>
        <linearGradient id="_Linear32" x1="0" y1="0" x2="1" y2="0" gradientUnits="userSpaceOnUse" gradientTransform="matrix(-347.456,-31.8116,31.8116,-347.456,755.643,742.297)"><stop offset="0" style="stop-color:rgb(217,73,122);stop-opacity:1"/><stop offset="0.28" style="stop-color:rgb(171,64,106);stop-opacity:1"/><stop offset="0.61" style="stop-color:rgb(52,40,64);stop-opacity:1"/><stop offset="0.79" style="stop-color:rgb(77,45,86);stop-opacity:1"/><stop offset="1" style="stop-color:rgb(84,46,92);stop-opacity:1"/></linearGradient>
        <linearGradient id="_Linear33" x1="0" y1="0" x2="1" y2="0" gradientUnits="userSpaceOnUse" gradientTransform="matrix(-347.456,-31.8116,31.8116,-347.456,755.643,742.297)"><stop offset="0" style="stop-color:rgb(217,73,122);stop-opacity:1"/><stop offset="0.28" style="stop-color:rgb(171,64,106);stop-opacity:1"/><stop offset="0.61" style="stop-color:rgb(52,40,64);stop-opacity:1"/><stop offset="0.79" style="stop-color:rgb(77,45,86);stop-opacity:1"/><stop offset="1" style="stop-color:rgb(84,46,92);stop-opacity:1"/></linearGradient>
        <linearGradient id="_Linear34" x1="0" y1="0" x2="1" y2="0" gradientUnits="userSpaceOnUse" gradientTransform="matrix(330.112,-45.2157,45.2157,330.112,1046.34,710.429)"><stop offset="0" style="stop-color:rgb(255,68,74);stop-opacity:1"/><stop offset="0.25" style="stop-color:rgb(253,61,37);stop-opacity:1"/><stop offset="0.6" style="stop-color:rgb(216,115,6);stop-opacity:1"/><stop offset="1" style="stop-color:rgb(253,136,42);stop-opacity:1"/></linearGradient>
        <linearGradient id="_Linear35" x1="0" y1="0" x2="1" y2="0" gradientUnits="userSpaceOnUse" gradientTransform="matrix(330.112,-45.2157,45.2157,330.112,1046.34,710.429)"><stop offset="0" style="stop-color:rgb(255,68,74);stop-opacity:1"/><stop offset="0.25" style="stop-color:rgb(253,61,37);stop-opacity:1"/><stop offset="0.6" style="stop-color:rgb(216,115,6);stop-opacity:1"/><stop offset="1" style="stop-color:rgb(253,136,42);stop-opacity:1"/></linearGradient>
        <linearGradient id="_Linear36" x1="0" y1="0" x2="1" y2="0" gradientUnits="userSpaceOnUse" gradientTransform="matrix(330.112,-45.2157,45.2157,330.112,1046.34,710.429)"><stop offset="0" style="stop-color:rgb(255,68,74);stop-opacity:1"/><stop offset="0.25" style="stop-color:rgb(253,61,37);stop-opacity:1"/><stop offset="0.6" style="stop-color:rgb(216,115,6);stop-opacity:1"/><stop offset="1" style="stop-color:rgb(253,136,42);stop-opacity:1"/></linearGradient>
        <linearGradient id="_Linear37" x1="0" y1="0" x2="1" y2="0" gradientUnits="userSpaceOnUse" gradientTransform="matrix(330.112,-45.2157,45.2157,330.112,1046.34,710.429)"><stop offset="0" style="stop-color:rgb(255,68,74);stop-opacity:1"/><stop offset="0.25" style="stop-color:rgb(253,61,37);stop-opacity:1"/><stop offset="0.6" style="stop-color:rgb(216,115,6);stop-opacity:1"/><stop offset="1" style="stop-color:rgb(253,136,42);stop-opacity:1"/></linearGradient>
        <linearGradient id="_Linear38" x1="0" y1="0" x2="1" y2="0" gradientUnits="userSpaceOnUse" gradientTransform="matrix(330.112,-45.2157,45.2157,330.112,1046.34,710.429)"><stop offset="0" style="stop-color:rgb(255,68,74);stop-opacity:1"/><stop offset="0.25" style="stop-color:rgb(253,61,37);stop-opacity:1"/><stop offset="0.6" style="stop-color:rgb(216,115,6);stop-opacity:1"/><stop offset="1" style="stop-color:rgb(253,136,42);stop-opacity:1"/></linearGradient>
        <linearGradient id="_Linear39" x1="0" y1="0" x2="1" y2="0" gradientUnits="userSpaceOnUse" gradientTransform="matrix(330.112,-45.2157,45.2157,330.112,1046.34,710.429)"><stop offset="0" style="stop-color:rgb(255,68,74);stop-opacity:1"/><stop offset="0.25" style="stop-color:rgb(253,61,37);stop-opacity:1"/><stop offset="0.6" style="stop-color:rgb(216,115,6);stop-opacity:1"/><stop offset="1" style="stop-color:rgb(253,136,42);stop-opacity:1"/></linearGradient>
        <linearGradient id="_Linear40" x1="0" y1="0" x2="1" y2="0" gradientUnits="userSpaceOnUse" gradientTransform="matrix(330.112,-45.2157,45.2157,330.112,1046.34,710.429)"><stop offset="0" style="stop-color:rgb(255,68,74);stop-opacity:1"/><stop offset="0.25" style="stop-color:rgb(253,61,37);stop-opacity:1"/><stop offset="0.6" style="stop-color:rgb(216,115,6);stop-opacity:1"/><stop offset="1" style="stop-color:rgb(253,136,42);stop-opacity:1"/></linearGradient>
        <radialGradient id="_Radial41" cx="0" cy="0" r="1" gradientUnits="userSpaceOnUse" gradientTransform="matrix(-261.89,-181.226,181.226,-261.89,873.311,480.378)"><stop offset="0" style="stop-color:rgb(55,163,127);stop-opacity:1"/><stop offset="0.6" style="stop-color:rgb(25,68,72);stop-opacity:1"/><stop offset="1" style="stop-color:rgb(0,108,99);stop-opacity:1"/></radialGradient>
        <radialGradient id="_Radial42" cx="0" cy="0" r="1" gradientUnits="userSpaceOnUse" gradientTransform="matrix(-261.89,-181.226,181.226,-261.89,873.311,480.378)"><stop offset="0" style="stop-color:rgb(55,163,127);stop-opacity:1"/><stop offset="0.6" style="stop-color:rgb(25,68,72);stop-opacity:1"/><stop offset="1" style="stop-color:rgb(0,108,99);stop-opacity:1"/></radialGradient>
        <radialGradient id="_Radial43" cx="0" cy="0" r="1" gradientUnits="userSpaceOnUse" gradientTransform="matrix(-261.89,-181.226,181.226,-261.89,873.311,480.378)"><stop offset="0" style="stop-color:rgb(55,163,127);stop-opacity:1"/><stop offset="0.6" style="stop-color:rgb(25,68,72);stop-opacity:1"/><stop offset="1" style="stop-color:rgb(0,108,99);stop-opacity:1"/></radialGradient>
        <radialGradient id="_Radial44" cx="0" cy="0" r="1" gradientUnits="userSpaceOnUse" gradientTransform="matrix(-261.89,-181.226,181.226,-261.89,873.311,480.378)"><stop offset="0" style="stop-color:rgb(55,163,127);stop-opacity:1"/><stop offset="0.6" style="stop-color:rgb(25,68,72);stop-opacity:1"/><stop offset="1" style="stop-color:rgb(0,108,99);stop-opacity:1"/></radialGradient>
        <radialGradient id="_Radial45" cx="0" cy="0" r="1" gradientUnits="userSpaceOnUse" gradientTransform="matrix(181.563,-237.119,237.119,181.563,920.595,478.786)"><stop offset="0" style="stop-color:rgb(63,148,112);stop-opacity:1"/><stop offset="0.25" style="stop-color:rgb(61,132,98);stop-opacity:1"/><stop offset="0.5" style="stop-color:rgb(55,85,54);stop-opacity:1"/><stop offset="1" style="stop-color:rgb(72,127,62);stop-opacity:1"/></radialGradient>
        <radialGradient id="_Radial46" cx="0" cy="0" r="1" gradientUnits="userSpaceOnUse" gradientTransform="matrix(181.563,-237.119,237.119,181.563,920.595,478.786)"><stop offset="0" style="stop-color:rgb(63,148,112);stop-opacity:1"/><stop offset="0.25" style="stop-color:rgb(61,132,98);stop-opacity:1"/><stop offset="0.5" style="stop-color:rgb(55,85,54);stop-opacity:1"/><stop offset="1" style="stop-color:rgb(72,127,62);stop-opacity:1"/></radialGradient>
        <radialGradient id="_Radial47" cx="0" cy="0" r="1" gradientUnits="userSpaceOnUse" gradientTransform="matrix(181.563,-237.119,237.119,181.563,920.595,478.786)"><stop offset="0" style="stop-color:rgb(63,148,112);stop-opacity:1"/><stop offset="0.25" style="stop-color:rgb(61,132,98);stop-opacity:1"/><stop offset="0.5" style="stop-color:rgb(55,85,54);stop-opacity:1"/><stop offset="1" style="stop-color:rgb(72,127,62);stop-opacity:1"/></radialGradient>
        <radialGradient id="_Radial48" cx="0" cy="0" r="1" gradientUnits="userSpaceOnUse" gradientTransform="matrix(181.563,-237.119,237.119,181.563,920.595,478.786)"><stop offset="0" style="stop-color:rgb(63,148,112);stop-opacity:1"/><stop offset="0.25" style="stop-color:rgb(61,132,98);stop-opacity:1"/><stop offset="0.5" style="stop-color:rgb(55,85,54);stop-opacity:1"/><stop offset="1" style="stop-color:rgb(72,127,62);stop-opacity:1"/></radialGradient>
        <radialGradient id="_Radial49" cx="0" cy="0" r="1" gradientUnits="userSpaceOnUse" gradientTransform="matrix(181.563,-237.119,237.119,181.563,920.595,478.786)"><stop offset="0" style="stop-color:rgb(63,148,112);stop-opacity:1"/><stop offset="0.25" style="stop-color:rgb(61,132,98);stop-opacity:1"/><stop offset="0.5" style="stop-color:rgb(55,85,54);stop-opacity:1"/><stop offset="1" style="stop-color:rgb(72,127,62);stop-opacity:1"/></radialGradient>
        <radialGradient id="_Radial50" cx="0" cy="0" r="1" gradientUnits="userSpaceOnUse" gradientTransform="matrix(181.563,-237.119,237.119,181.563,920.595,478.786)"><stop offset="0" style="stop-color:rgb(63,148,112);stop-opacity:1"/><stop offset="0.25" style="stop-color:rgb(61,132,98);stop-opacity:1"/><stop offset="0.5" style="stop-color:rgb(55,85,54);stop-opacity:1"/><stop offset="1" style="stop-color:rgb(72,127,62);stop-opacity:1"/></radialGradient>
        <linearGradient id="_Linear51" x1="0" y1="0" x2="1" y2="0" gradientUnits="userSpaceOnUse" gradientTransform="matrix(89.7582,-214.693,214.693,89.7582,902.938,418.233)"><stop offset="0" style="stop-color:rgb(26,71,61);stop-opacity:1"/><stop offset="1" style="stop-color:rgb(31,105,73);stop-opacity:1"/></linearGradient>
        <linearGradient id="_Linear52" x1="0" y1="0" x2="1" y2="0" gradientUnits="userSpaceOnUse" gradientTransform="matrix(89.7582,-214.693,214.693,89.7582,902.938,418.233)"><stop offset="0" style="stop-color:rgb(26,71,61);stop-opacity:1"/><stop offset="1" style="stop-color:rgb(31,105,73);stop-opacity:1"/></linearGradient>
        <linearGradient id="_Linear53" x1="0" y1="0" x2="1" y2="0" gradientUnits="userSpaceOnUse" gradientTransform="matrix(22.793,-135.714,135.714,22.793,902.511,756.955)"><stop offset="0" style="stop-color:rgb(151,159,52);stop-opacity:1"/><stop offset="1" style="stop-color:rgb(189,191,56);stop-opacity:1"/></linearGradient>
        <linearGradient id="_Linear54" x1="0" y1="0" x2="1" y2="0" gradientUnits="userSpaceOnUse" gradientTransform="matrix(222.515,-114.058,114.058,222.515,928.081,754.634)"><stop offset="0" style="stop-color:rgb(195,26,90);stop-opacity:1"/><stop offset="0.15" style="stop-color:rgb(201,34,82);stop-opacity:1"/><stop offset="0.21" style="stop-color:rgb(214,51,66);stop-opacity:1"/><stop offset="0.26" style="stop-color:rgb(226,67,50);stop-opacity:1"/><stop offset="0.41" style="stop-color:rgb(238,82,45);stop-opacity:1"/><stop offset="0.57" style="stop-color:rgb(250,96,41);stop-opacity:1"/><stop offset="1" style="stop-color:rgb(255,103,39);stop-opacity:1"/></linearGradient>
        <linearGradient id="_Linear55" x1="0" y1="0" x2="1" y2="0" gradientUnits="userSpaceOnUse" gradientTransform="matrix(-498.958,-615.536,615.536,-498.958,1174.02,1148.15)"><stop offset="0" style="stop-color:rgb(129,41,86);stop-opacity:1"/><stop offset="1" style="stop-color:rgb(66,55,81);stop-opacity:1"/></linearGradient>
        <radialGradient id="_Radial56" cx="0" cy="0" r="1" gradientUnits="userSpaceOnUse" gradientTransform="matrix(251.215,303.304,-161.311,133.608,734.928,899.633)"><stop offset="0" style="stop-color:rgb(65,24,54);stop-opacity:1"/><stop offset="0.42" style="stop-color:rgb(77,29,61);stop-opacity:1"/><stop offset="1" style="stop-color:rgb(103,40,76);stop-opacity:1"/></radialGradient>
    </defs>
</svg>
