<?xml version="1.0" encoding="UTF-8" standalone="no"?>
<!DOCTYPE svg PUBLIC "-//W3C//DTD SVG 1.1//EN" "http://www.w3.org/Graphics/SVG/1.1/DTD/svg11.dtd">
<svg width="100%" height="100%" viewBox="0 0 5777 1202" version="1.1" xmlns="http://www.w3.org/2000/svg" xmlns:xlink="http://www.w3.org/1999/xlink" xml:space="preserve" xmlns:serif="http://www.serif.com/" style="fill-rule:evenodd;clip-rule:evenodd;stroke-linejoin:round;stroke-miterlimit:2;">
    <g transform="matrix(1,0,0,1,-7477.95,-1683.98)">
        <g id="Logo-Long-Name-Side" serif:id="Logo Long Name Side" transform="matrix(3.40096,0,0,0.870115,5990.24,731.576)">
            <rect x="437.438" y="1094.58" width="1698.48" height="1380.53" style="fill:none;"/>
            <g id="Tree-2-Logo" serif:id="Tree 2 Logo" transform="matrix(0.294034,0,0,1.14927,100.239,54.4638)">
                <g id="Foliage">
                    <g>
                        <g transform="matrix(3.77953,0,0,3.77953,1403.84,1010.71)">
                            <path d="M27.289,137.046C22.696,137.835 14.469,138.108 10.867,137.59C4.781,136.714 0.364,134.801 -7.041,129.834C-11.603,126.774 -11.527,126.976 -9.577,123.046C-7.182,118.218 -3.539,114.651 1.606,112.093C6.341,109.74 8.3,110.041 14.236,114.038C16.817,115.776 20.335,119.295 21.291,121.094C21.906,122.252 21.928,122.464 21.468,122.757C20.678,123.26 10.465,126.602 6.828,127.548L3.653,128.374L7.534,128.236C10.433,128.132 12.484,127.814 15.648,126.977C18.372,126.256 20.831,125.837 22.547,125.801C25.204,125.746 25.232,125.755 30.661,128.452C37.088,131.644 38.502,132.164 50.677,135.815C38.502,132.164 22.696,137.835 27.289,137.046Z" style="fill:url(#_Linear1);"/>
                        </g>
                        <g transform="matrix(3.77953,0,0,3.77953,1403.84,1010.71)">
                            <path d="M-17.255,123.299C-20.6,119.639 -22.014,114.185 -21.273,107.804C-20.306,99.485 -17.517,93.311 -12.27,87.871C-10.338,85.868 -8.007,84.324 -6.882,84.302C-6.661,84.298 -6.282,85.366 -6.038,86.676C-4.967,92.433 -2.475,98.148 1.272,103.443C2.529,105.218 3.608,106.835 3.67,107.036C3.733,107.237 2.223,108.155 0.316,109.075C-5.222,111.749 -9.772,116.429 -12.891,122.659C-13.801,124.478 -14.363,125.217 -14.837,125.217C-15.203,125.217 -16.291,124.354 -17.255,123.299Z" style="fill:url(#_Linear2);"/>
                        </g>
                    </g>
                    <g>
                        <g transform="matrix(3.77953,0,0,3.77953,1403.84,1010.71)">
                            <path d="M54.81,129.846C52.116,126.888 49.293,123.883 47.425,122.042C42.352,117.038 39.055,112.907 35.767,107.434C33.145,103.068 31.765,99.689 30.238,93.894C29.309,90.37 29.126,88.959 28.993,84.294C28.907,81.287 28.967,78.639 29.127,78.41C29.827,77.406 50.082,77.283 53.258,78.263C51.55,77.736 57.899,84.297 62.92,87.506C57.899,84.297 58.136,84.361 56.101,85.667C51.115,88.866 48.632,93.591 48.632,99.881C48.632,101.592 48.528,102.992 48.401,102.992C47.825,102.992 45.671,101.014 44.369,99.288C42.061,96.231 40.364,91.044 39.927,85.706L39.682,82.707L39.193,84.294C38.255,87.338 39.088,93 41.082,97.134C41.546,98.095 41.832,98.972 41.718,99.084C41.604,99.196 39.581,98.288 37.222,97.067C34.497,95.655 33.319,95.176 33.992,95.751C35.821,97.316 46.723,104.694 48.434,105.525C49.442,106.015 50.116,106.594 50.193,107.037C51.469,114.374 52.852,119.15 54.999,123.629C55.727,125.148 57.009,127.084 58.525,129.028C56.594,126.665 54.82,124.297 53.737,122.832C49.104,116.566 46.74,111.654 45.655,110.038C44.936,108.968 49.538,123.983 52.096,126.825C53.013,127.845 53.927,128.861 54.81,129.846Z" style="fill:url(#_Linear3);"/>
                        </g>
                        <g transform="matrix(3.77953,0,0,3.77953,1403.84,1010.71)">
                            <path d="M43.693,129.608C31.15,126.918 21.775,118.154 17.431,105.057C16.465,102.142 15.347,95.86 15.533,94.388C15.643,93.517 15.748,93.574 18.117,95.792C22.059,99.482 25.561,101.853 28.939,103.118C30.483,103.696 30.716,103.963 32.617,107.332C36.706,114.583 40.624,119.714 46.593,125.641C48.685,127.718 50.396,129.583 50.396,129.786C50.396,130.307 46.469,130.203 43.693,129.608Z" style="fill:url(#_Linear4);"/>
                        </g>
                        <g transform="matrix(3.77953,0,0,3.77953,1403.84,1010.71)">
                            <path d="M14.131,110.063C11.498,108.479 9.683,107.067 6.874,104.417C1.517,99.362 -1.362,93.983 -3.804,84.471C-4.607,81.344 -4.691,80.442 -4.547,76.533C-4.357,71.368 -3.552,68.55 -0.713,63.114C1.663,58.566 3.953,55.548 8.431,51.063C12.783,46.705 17.436,43.497 21.124,42.311C25.126,41.024 26.003,41.569 26.904,45.897C28.078,51.537 30.071,56.405 33.232,61.354C33.911,62.416 34.394,63.401 34.306,63.543C34.219,63.684 32.017,63.805 29.413,63.81C22.278,63.824 15.423,65.53 13.549,67.757C13.057,68.341 12.296,69.96 11.858,71.353C11.14,73.638 11.063,74.582 11.073,80.943C11.09,90.849 12.497,99.579 15.45,108.104C16.045,109.819 16.491,111.262 16.442,111.311C16.393,111.36 15.353,110.798 14.131,110.063Z" style="fill:url(#_Linear5);"/>
                        </g>
                        <g transform="matrix(3.77953,0,0,3.77953,1403.84,1010.71)">
                            <path d="M26.536,99.482C21.295,96.852 16.181,91.109 14.369,85.821C13.675,83.796 13.544,82.711 13.547,79.003C13.553,72.096 14.521,69.802 17.94,68.596C22.001,67.163 32.322,66.478 36.24,67.381C38.868,67.987 44.523,71.151 47.471,73.665C49.108,75.061 48.782,75.155 41.753,75.314C38.067,75.397 33.803,75.596 32.279,75.755C28.903,76.108 28.827,76.007 29.854,72.52C30.259,71.143 30.54,69.965 30.477,69.903C30.27,69.696 28.253,73.503 27.617,75.299C27.163,76.584 26.952,78.518 26.84,82.424C26.674,88.191 27.279,92.515 29.06,98.286C29.499,99.71 29.735,100.875 29.585,100.875C29.434,100.875 28.063,100.248 26.536,99.482Z" style="fill:url(#_Linear6);"/>
                        </g>
                    </g>
                    <g>
                        <g transform="matrix(3.77953,0,0,3.77953,1403.84,1010.71)">
                            <path d="M61.949,122.597C59.154,121.599 56.186,118.41 54.495,114.587C53.595,112.549 52.253,107.014 52.581,106.686C52.685,106.583 53.942,106.68 55.375,106.903C59.246,107.503 67.461,107.14 71.563,106.187C79.648,104.309 85.334,106.254 85.315,110.893C85.308,112.695 84.112,114.879 82.56,115.925C80.227,117.497 76.033,117.761 73.008,116.526C72.348,116.256 71.774,116.077 71.733,116.128C71.692,116.179 71.382,117.065 71.045,118.098C69.723,122.142 65.931,124.018 61.949,122.597Z" style="fill:url(#_Radial7);"/>
                        </g>
                        <g transform="matrix(3.77953,0,0,3.77953,1403.84,1010.71)">
                            <path d="M55.639,104.928C52.628,104.329 51.17,103.564 50.887,102.436C50.764,101.944 50.731,100.233 50.815,98.634C51.104,93.132 53.559,89.622 58.028,88.323C60.357,87.645 62.124,87.944 63.586,89.262C64.928,90.472 64.674,91.116 62.359,92.366C60.066,93.604 58.157,94.93 58.157,95.286C58.157,95.457 58.753,95.299 59.48,94.934C62.066,93.636 65.415,92.749 67.905,92.703C70.117,92.662 70.639,92.794 72.823,93.944C77.228,96.264 78.445,98.132 77.479,101.091C77.123,102.181 76.705,102.623 75.443,103.243C71.632,105.117 61.089,106.014 55.639,104.928Z" style="fill:url(#_Radial8);"/>
                        </g>
                    </g>
                    <g>
                        <g transform="matrix(3.77953,0,0,3.77953,1403.84,1010.71)">
                            <path d="M95.341,70.649C94.045,69.093 92.446,67.372 90.446,65.312C84.49,59.177 83.67,58.134 81.924,54.466C79.986,50.396 79.233,47.468 79.186,43.815C79.165,42.215 79.032,40.905 78.89,40.904C78.389,40.901 78.09,42.879 78.114,46.018C78.152,50.848 79.446,54.625 83.039,60.4C83.891,61.769 84.514,63.007 84.424,63.153C84.086,63.699 76.985,61.693 73.327,60.017C70.401,58.677 66.905,56.28 65.236,54.469C63.008,52.052 61.419,48.406 61.016,44.783C60.328,38.609 62.01,31.378 64.133,31.378C64.516,31.378 67.855,32.892 71.554,34.743C76.645,37.29 79.286,38.867 82.418,41.231C90.19,47.097 90.717,47.853 94.828,59.035C96.177,62.702 97.465,65.877 97.692,66.091C98.005,66.386 98.031,65.763 97.798,63.481C96.903,54.704 98.219,49.321 102.887,42.667C104.667,40.131 107.638,36.48 108.702,35.523C110.022,34.336 108.653,34.918 106.961,36.263C103.347,39.137 99.928,43.435 97.303,48.405L95.645,51.544L94.937,50.369C91.696,44.989 90.975,37.502 93.224,32.589C95.187,28.302 100.613,21.853 102.257,21.853C103.559,21.853 108.09,26.679 109.741,29.824C112.969,35.973 112.873,39.499 109.313,45.489C106.638,49.991 104.125,55.263 103.427,57.836C104.132,54.052 106.483,46.214 105.548,47.758C104.875,48.871 99.454,58.164 98.981,64.511C98.895,65.658 98.538,66.712 98.112,66.933C97.69,67.152 97.2,66.543 97.043,66.396C96.817,66.182 90.358,57.87 88.064,55.69C86.204,53.924 94.045,69.093 95.341,70.649Z" style="fill:url(#_Radial9);"/>
                        </g>
                        <g transform="matrix(3.77953,0,0,3.77953,1403.84,1010.71)">
                            <path d="M53.218,47.034C46.941,42.48 42.317,39.694 38.092,37.922C35.814,36.967 34.874,36.396 34.874,35.968C34.874,35.052 36.676,32.757 38.797,30.972C44.266,26.37 50.346,23.617 55.04,23.617C57.312,23.617 57.53,23.689 58.859,24.89C61.08,26.896 61.276,28.133 59.979,31.933C58.421,36.495 58.042,39.227 58.278,44.197C58.39,46.557 58.586,49.003 58.712,49.634C58.839,50.265 58.806,50.773 58.638,50.763C58.471,50.754 56.032,49.076 53.218,47.034Z" style="fill:url(#_Radial10);"/>
                        </g>
                    </g>
                    <g transform="matrix(3.77953,0,0,3.77953,1403.84,1010.71)">
                        <path d="M85.996,40.148C82.41,37.144 79.794,35.534 72.398,31.776C68.88,29.988 65.729,28.226 65.397,27.859C63.343,25.589 69.394,19.733 76.855,16.772C80.919,15.159 84.436,14.444 88.312,14.444C93.935,14.444 96.586,15.513 98.041,18.363C98.878,20.005 98.728,20.419 96.323,23.088C94.114,25.54 91.586,29.485 90.524,32.14C89.477,34.756 88.691,39.421 89.01,41.124C89.133,41.778 89.087,42.314 88.908,42.314C88.729,42.314 87.419,41.339 85.996,40.148Z" style="fill:url(#_Linear11);"/>
                    </g>
                    <g>
                        <g transform="matrix(3.77953,0,0,3.77953,1403.84,1010.71)">
                            <path d="M154.94,74.445C157.159,72.951 163.455,68.552 165.516,67.875C172.231,65.668 188.434,66.634 191.913,69.449C192.676,70.066 192.751,70.426 192.856,73.944C192.996,78.629 192.348,82.02 190.617,85.665C188.308,90.527 184.678,94.706 179.737,98.19C177.069,100.071 174.221,101.731 174.221,101.404C174.221,101.271 174.77,99.549 175.442,97.578C176.113,95.608 176.907,92.586 177.206,90.863C177.878,86.988 177.899,80.296 177.249,77.239C176.692,74.616 175.303,71.282 174.486,70.607C174.014,70.218 174.032,70.471 174.606,72.315C174.976,73.505 175.28,74.942 175.28,75.506C175.28,76.497 175.22,76.533 173.604,76.53C172.682,76.528 169.944,76.302 167.518,76.027C165.093,75.751 161.645,75.277 159.845,75.287C157.199,75.301 155.572,76.51 153.436,77.707C156.64,75.179 158.997,73.157 158.831,72.888C158.58,72.483 157.243,73.082 154.94,74.445Z" style="fill:url(#_Radial12);"/>
                        </g>
                        <g transform="matrix(3.77953,0,0,3.77953,1403.84,1010.71)">
                            <path d="M146.354,121.982C150.545,117.953 153.058,113.299 154.799,106.34C155.076,105.231 155.438,104.775 156.479,104.223C157.208,103.837 158.602,102.881 159.575,102.099C160.548,101.317 162.353,100.243 163.586,99.712C166.2,98.586 170.55,96.101 170.901,95.532C171.035,95.316 171.003,95.204 170.831,95.284C167.471,96.832 166.284,97.31 164.429,97.862C163.215,98.223 162.138,98.435 162.036,98.333C161.934,98.23 162.161,96.975 162.54,95.542C163.4,92.296 163.763,88.722 163.447,86.613C163.127,84.482 162.579,84.548 162.579,86.718C162.579,89.091 161.665,94.115 160.824,96.361C160.008,98.541 158.36,100.667 156.903,101.421L155.877,101.951L155.877,98.489C155.877,92.473 154.576,89.166 150.814,85.621L148.666,83.597L150.243,81.988C152.444,79.741 154.636,78.42 157.294,77.739C159.412,77.196 160.057,77.197 166.63,77.747C170.514,78.073 174.089,78.369 174.574,78.406L175.456,78.474L175.432,84.294C175.405,90.921 175.054,92.736 172.628,98.758C170.141,104.934 167.028,109.627 162.136,114.575C157.11,119.657 151.438,122.972 147.18,123.315L144.764,123.509L146.354,121.982Z" style="fill:url(#_Radial13);"/>
                        </g>
                        <g transform="matrix(3.77953,0,0,3.77953,1403.84,1010.71)">
                            <path d="M160.11,120.674C160.11,120.541 161.075,119.485 162.254,118.326C164.591,116.031 167.678,112.199 170.821,107.692C172.617,105.116 173.125,104.647 175.556,103.319C179.491,101.169 183.824,97.955 187.361,94.563C190.846,91.222 190.91,91.253 189.937,95.825C187.233,108.537 178.135,117.712 165.931,120.039C162.242,120.742 160.11,120.975 160.11,120.674Z" style="fill:url(#_Radial14);"/>
                        </g>
                        <g transform="matrix(3.77953,0,0,3.77953,1403.84,1010.71)">
                            <path d="M138.724,120.124C137.685,119.671 135.775,117.588 135.763,116.893C135.76,116.717 135.623,116.361 135.458,116.101C135.215,115.718 134.885,115.768 133.714,116.366C130.365,118.074 125.361,116.793 123.592,113.774C121.908,110.9 122.677,107.29 125.258,105.95C127.116,104.986 130.822,104.93 135.239,105.801C140.435,106.825 145.73,107.048 149.527,106.404C151.176,106.124 152.577,105.942 152.641,105.999C152.921,106.252 151.446,110.803 150.338,113.103C147.658,118.666 142.517,121.774 138.724,120.124Z" style="fill:url(#_Radial15);"/>
                        </g>
                        <g transform="matrix(3.77953,0,0,3.77953,1403.84,1010.71)">
                            <path d="M187.98,108.865C187.98,108.796 188.756,107.09 189.705,105.072C192.028,100.132 193.013,96.842 194.578,88.799C195.782,82.604 195.9,81.47 195.908,76.004C195.918,68.628 195.607,67.315 193.612,66.297C189.748,64.325 179.466,62.897 172.171,63.317L167.807,63.569L169.437,61.355C171.96,57.928 173.987,53.897 175.995,48.311C178.156,42.302 178.791,41.141 180.254,40.535C181.755,39.913 184.889,40.53 188.184,42.094C196.297,45.947 204.282,53.831 208.721,62.37C211.365,67.459 212.362,70.941 212.583,75.871L212.767,79.971L211.347,83.103C210.566,84.825 209.337,87.584 208.617,89.233C205.921,95.41 205.556,96.128 203.685,98.939C202.632,100.522 200.674,102.852 199.333,104.116C197.027,106.292 196.68,106.485 192.879,107.703C189.144,108.899 187.98,109.175 187.98,108.865Z" style="fill:url(#_Radial16);"/>
                        </g>
                        <g transform="matrix(3.77953,0,0,3.77953,1403.84,1010.71)">
                            <path d="M138.238,104.888C128.608,103.109 127.655,102.638 127.655,99.656C127.655,98.669 127.966,98.052 129.065,96.86C130.575,95.222 134.016,93.196 136.079,92.731C137.954,92.308 142.096,92.955 145.179,94.152C146.677,94.733 147.965,95.146 148.042,95.069C148.305,94.806 144.411,92.772 141.854,91.837C140.447,91.323 139.296,90.793 139.296,90.659C139.296,90.221 140.852,88.976 142.295,88.258C144.531,87.145 145.786,87.005 147.931,87.628C151.892,88.78 153.861,92.242 153.858,98.053C153.856,102.699 153.629,103.131 150.689,104.081C148.828,104.682 147.266,104.877 143.706,104.953C141.184,105.007 138.723,104.977 138.238,104.888Z" style="fill:url(#_Radial17);"/>
                        </g>
                    </g>
                    <g>
                        <g transform="matrix(3.77953,0,0,3.77953,1403.84,1010.71)">
                            <path d="M160.11,123.939C160.967,123.895 162.076,123.808 163.282,123.714C166.239,123.217 177.558,119.593 178.666,119.371C179.352,119.234 180.642,119.441 182.188,119.937C185.008,120.84 193.593,121.323 195.741,120.7C196.865,120.373 196.745,120.339 194.403,120.31C190.167,120.257 184.95,118.931 182.934,117.393C182.345,116.945 182.463,116.762 184.521,114.947C187.36,112.442 187.572,112.337 191.924,111.283C198.016,109.807 201.807,110.234 207.612,113.049C212.179,115.264 216.907,119.238 216.907,120.86C216.907,121.105 215.799,121.952 214.444,122.744C206.255,127.526 197.698,129.554 189.214,128.721C187.468,128.55 184.214,127.931 181.982,127.345C179.751,126.759 176.258,125.869 174.221,125.366C172.71,124.993 167.508,125.835 164.514,126.051C162.237,126.407 160.106,126.755 159.052,126.971C161.865,126.395 169.863,125.06 172.615,124.803C173.89,124.685 177.375,124.548 177.733,124.507C179.504,124.304 173.663,123.734 172.648,123.678C170.085,123.538 163.676,123.756 160.11,123.939Z" style="fill:url(#_Linear18);"/>
                        </g>
                        <g transform="matrix(3.77953,0,0,3.77953,1403.84,1010.71)">
                            <path d="M223.081,120.663C222.305,120.301 220.065,118.499 218.103,116.66C213.163,112.027 209.338,109.543 204.384,107.748C203.414,107.396 202.477,106.984 202.303,106.832C202.126,106.678 202.472,106.002 203.086,105.303C204.973,103.153 207.779,98.762 209.166,95.789C210.393,93.157 210.976,91.434 212.486,85.97C213.01,84.074 213.116,83.942 214.109,83.942C216.736,83.942 220.656,86.983 223.461,91.199C227.111,96.685 228.902,102.516 228.902,108.918C228.902,114.133 227.193,120.01 225.396,120.972C224.558,121.42 224.764,121.447 223.081,120.663Z" style="fill:url(#_Linear19);"/>
                        </g>
                    </g>
                    <g>
                        <g transform="matrix(3.77953,0,0,3.77953,1403.84,1010.71)">
                            <path d="M53.163,177.361C51.631,177.381 48.87,178.113 47.706,178.666C41.553,181.588 37.514,185.384 33.342,192.268C31.653,195.055 28.742,201.533 28.359,203.357C28.147,204.362 28.177,204.347 28.947,203.044C30.546,200.34 35.169,193.38 35.503,193.174C35.695,193.055 35.946,193.741 36.08,194.748C36.393,197.111 37.679,200.589 39.151,203.054C40.747,205.729 44.269,209.215 46.963,210.788C48.172,211.495 49.224,212.132 49.3,212.204C49.956,212.828 45.015,215.443 41.739,216.207C39.322,216.77 34.743,216.79 32.395,216.249C27.169,215.043 22.182,211.4 19.966,207.168C17.969,203.354 17.432,201.095 17.466,196.654C17.492,193.296 17.644,192.335 18.591,189.518C20.198,184.74 22.504,181.468 25.496,179.724C26.982,178.857 29.327,178.153 32.556,177.608C32.747,177.575 32.94,177.544 33.137,177.513C29.606,178.071 51.631,177.381 53.163,177.361Z" style="fill:url(#_Radial20);"/>
                        </g>
                        <g transform="matrix(3.77953,0,0,3.77953,1403.84,1010.71)">
                            <path d="M51.631,181.768C47.717,183.403 46.172,185.05 49.148,184.415C52.011,183.804 53.528,185.364 52.989,188.364C52.867,189.043 52.093,190.948 51.269,192.598C49.486,196.169 48.877,198.058 49.051,199.483C49.166,200.43 49.238,200.342 49.776,198.594C50.668,195.697 54.245,189.797 55.264,189.541C56.522,189.225 57.655,189.924 58.658,191.634C60.681,195.087 60.516,199.288 58.17,204.063C56.382,207.702 54.005,210.236 52.381,210.236C49.576,210.236 43.963,206.194 41.554,202.44C39.076,198.577 38.113,193.687 39.119,190.066C39.405,189.035 40.346,187.52 41.5,186.095C41.863,186.552 43.918,184.523 51.631,181.768Z" style="fill:url(#_Radial21);"/>
                        </g>
                        <g transform="matrix(3.77953,0,0,3.77953,1403.84,1010.71)">
                            <path d="M5.547,206.708C-2.744,205.387 -10.217,199.872 -13.811,192.421C-15.758,188.386 -16.309,186.011 -16.515,180.779C-16.755,174.678 -16.835,174.782 -11.99,174.87C-7.657,174.948 -3.269,175.533 5.63,177.22C9.24,177.904 13.995,178.633 16.197,178.841C18.4,179.049 20.247,179.263 20.302,179.319C20.357,179.374 19.988,179.963 19.482,180.628C18.24,182.26 16.423,186.2 15.424,189.422C14.266,193.161 14.228,200.461 15.349,203.975C15.767,205.284 15.971,206.441 15.804,206.544C15.227,206.901 7.53,207.024 5.547,206.708Z" style="fill:url(#_Radial22);"/>
                        </g>
                    </g>
                    <g>
                        <g transform="matrix(3.77953,0,0,3.77953,1403.84,1010.71)">
                            <path d="M163.814,169.147C166.998,171.526 170.506,175.707 172.214,179.16L173.692,182.148L173.678,186.579C173.663,191.289 173.09,193.854 171.237,197.506C168.99,201.934 164.64,206.307 160.639,208.159C157.152,209.774 156.962,209.77 155.281,208.047C150.129,202.765 147.903,193.451 150.315,187.262C152.675,181.204 155.581,179.076 157.842,181.749C160.507,184.9 161.434,189.916 160.302,195.067C159.021,200.9 159.263,201.33 160.999,196.301C161.7,194.272 162.021,192.528 162.145,190.092C162.341,186.211 162.143,185.402 159.861,180.779C158.53,178.083 158.319,177.368 158.461,176.038C158.637,174.383 159.263,173.661 160.816,173.326C162.258,173.014 162.657,172.892 162.322,172.492C164.168,174.214 168.687,178.788 168.594,178.312C168.057,175.537 164.601,169.735 163.814,169.147Z" style="fill:url(#_Radial23);"/>
                        </g>
                        <g transform="matrix(3.77953,0,0,3.77953,1403.84,1010.71)">
                            <path d="M170.534,215.85C169.379,215.677 167.871,215.354 167.182,215.132C165.172,214.484 161.43,212.732 160.76,212.126C160.183,211.604 160.319,211.451 162.844,209.803C169.966,205.154 174.264,198.884 176.155,190.383C176.489,188.884 176.798,187.658 176.844,187.658C176.889,187.658 177.514,188.512 178.233,189.556C180.157,192.35 186.711,198.534 189.682,200.358C192.12,201.856 192.257,202.007 192.096,203.026C191.59,206.237 187.377,211.444 183.6,213.528C179.962,215.535 174.685,216.473 170.534,215.85Z" style="fill:url(#_Radial24);"/>
                        </g>
                        <g transform="matrix(3.77953,0,0,3.77953,1403.84,1010.71)">
                            <path d="M194.682,205.699C194.682,205.532 195.145,204.375 195.71,203.128C197.406,199.388 197.892,197.034 198.104,191.531C198.276,187.062 198.206,186.031 197.557,183.464C196.367,178.762 193.412,172.505 191.287,170.189L190.537,169.373L192.698,169.148C199.498,168.439 203.638,167.767 207.814,166.695C216.013,164.59 220.712,163.651 223.46,163.571C225.763,163.504 226.202,163.589 226.642,164.188C227.533,165.401 227.907,167.573 227.9,171.499C227.883,180.495 224.742,188.501 218.209,196.197C214.523,200.539 208.298,204.416 203.325,205.468C200.651,206.034 194.682,206.193 194.682,205.699Z" style="fill:url(#_Radial25);"/>
                        </g>
                        <g transform="matrix(3.77953,0,0,3.77953,1403.84,1010.71)">
                            <path d="M192.012,198.89C189.6,197.598 186.458,195.343 184.497,193.498C181.83,190.988 180.04,188.334 176.586,181.769C173.443,175.793 170.073,170.557 168.243,168.803C167.651,168.235 167.166,167.62 167.166,167.435C167.166,167.002 171.137,167.361 176.362,168.267C178.58,168.652 181.824,169.068 183.57,169.192C186.647,169.41 186.783,169.456 187.98,170.711C189.912,172.736 192.818,177.984 194.042,181.661C195.082,184.782 195.16,185.364 195.185,190.128C195.212,195.266 194.729,198.529 193.834,199.272C193.529,199.526 192.987,199.412 192.012,198.89Z" style="fill:url(#_Radial26);"/>
                        </g>
                    </g>
                    <g>
                        <g transform="matrix(3.77953,0,0,3.77953,1403.84,1010.71)">
                            <path d="M16.706,174.954C15.154,174.786 13.249,174.514 12.473,174.349C11.2,174.078 11.05,173.932 10.947,172.86C10.801,171.346 11.389,167.957 12.303,165.052C13.162,162.32 15.878,156.763 16.308,156.86C16.477,156.898 17.2,158.247 17.914,159.858C20.36,165.372 23.279,169.121 27.959,172.758C29.811,174.197 29.961,174.404 29.319,174.641C28.144,175.076 19.754,175.284 16.706,174.954Z" style="fill:url(#_Linear27);"/>
                        </g>
                        <g transform="matrix(3.77953,0,0,3.77953,1403.84,1010.71)">
                            <path d="M-0.227,172.823C-2.556,172.474 -6.604,171.937 -9.223,171.63C-15.949,170.843 -17.053,170.535 -18.863,168.942C-20.691,167.332 -22.568,163.752 -23.752,159.613C-24.459,157.142 -24.56,155.998 -24.561,150.44C-24.563,144.903 -24.459,143.711 -23.75,141.124C-21.967,134.613 -18.296,128.744 -16.006,128.744C-14.871,128.744 -12.223,130.143 -7.159,133.417C-4.762,134.966 -1.428,136.956 0.25,137.838C1.928,138.721 3.343,139.473 3.395,139.509C3.446,139.545 2.937,140.491 2.263,141.611C-0.463,146.137 -1.848,152.767 -1.115,157.782C-0.41,162.61 1.079,166.295 4.224,170.99L5.937,173.547L4.971,173.502C4.44,173.478 2.101,173.172 -0.227,172.823Z" style="fill:url(#_Linear28);"/>
                        </g>
                        <g transform="matrix(3.77953,0,0,3.77953,1403.84,1010.71)">
                            <path d="M35.932,172.997C32.092,172.169 28.702,170.262 25.678,167.229C24.209,165.756 22.514,163.678 21.911,162.611C20.549,160.201 18.999,155.651 18.999,154.063C18.999,150.876 24.086,144.773 28.567,142.585C32.427,140.701 32.225,140.411 32.249,147.883C32.269,153.962 32.325,154.488 33.26,157.319C35.317,163.548 38.83,168.816 42.889,171.761C43.902,172.496 44.63,173.199 44.506,173.322C44.104,173.725 38.285,173.504 35.932,172.997Z" style="fill:url(#_Linear29);"/>
                        </g>
                        <g transform="matrix(3.77953,0,0,3.77953,1403.84,1010.71)">
                            <path d="M48.6,172.553C42.644,170.129 37.36,163.496 35.205,155.739C34.03,151.507 34.112,151.412 37.108,153.562C40.044,155.668 42.365,156.754 45.682,157.572L47.977,158.139L49.585,161.345C51.817,165.794 52.929,167.361 55.797,170.103C57.165,171.41 58.192,172.571 58.08,172.683C57.969,172.795 56.154,172.96 54.048,173.05C50.863,173.185 49.948,173.102 48.6,172.553Z" style="fill:url(#_Linear30);"/>
                        </g>
                        <g transform="matrix(3.77953,0,0,3.77953,1403.84,1010.71)">
                            <path d="M6.49,169.085C4.84,166.925 2.973,163.062 2.251,160.318C0.664,154.284 2.283,146.19 5.888,142.128L7.222,140.624L10.83,141.034C12.815,141.26 16.592,141.444 19.225,141.444L24.011,141.444L21.343,144.28C15.349,150.653 10.974,158.559 8.791,166.968L7.797,170.796L6.49,169.085Z" style="fill:url(#_Linear31);"/>
                        </g>
                        <g transform="matrix(3.77953,0,0,3.77953,1403.84,1010.71)">
                            <path d="M60.4,170.022C55.616,168.941 50.002,160.753 48.932,153.295C48.169,147.978 49.137,144.804 51.903,143.548C53.81,142.682 55.064,142.686 57.911,143.565C60.748,144.442 63.34,146.185 64.206,147.798C65.357,149.944 64.997,153.302 63.45,154.849C62.738,155.561 62.764,156.261 63.504,156.261C64.421,156.261 66.087,157.955 66.886,159.7C68.437,163.087 67.514,167.455 64.893,169.128C63.405,170.079 61.941,170.37 60.4,170.022Z" style="fill:url(#_Linear32);"/>
                        </g>
                        <g transform="matrix(3.77953,0,0,3.77953,1403.84,1010.71)">
                            <path d="M43.137,155.075C40.425,154.066 38.75,153.046 36.197,150.847C34.267,149.184 34.168,149.02 34.168,147.453C34.168,146.547 34.415,144.976 34.716,143.961C35.392,141.687 36.555,140.879 39.631,140.55C41.598,140.339 47.552,140.819 48.238,141.243C48.392,141.338 48.135,142.557 47.667,143.953C46.904,146.227 46.828,146.977 46.93,151.2L47.045,155.909L46.163,155.89C45.678,155.88 44.316,155.513 43.137,155.075Z" style="fill:url(#_Linear33);"/>
                        </g>
                    </g>
                    <g>
                        <g transform="matrix(3.77953,0,0,3.77953,1403.84,1010.71)">
                            <path d="M181.934,165.43C179.249,165.173 178.455,164.939 178.455,164.405C178.455,164.251 179.713,163.135 181.251,161.926C185.743,158.395 188.19,154.937 191.126,147.972L191.571,146.915L192.299,147.796C194.221,150.125 197.114,158.136 197.411,161.957C197.636,164.844 197.619,164.857 192.64,165.394C188.696,165.82 186.102,165.829 181.934,165.43Z" style="fill:url(#_Linear34);"/>
                        </g>
                        <g transform="matrix(3.77953,0,0,3.77953,1403.84,1010.71)">
                            <path d="M202.091,164.263C202.091,164.202 203.006,162.938 204.126,161.455C206.759,157.967 208.624,154.21 209.542,150.547C210.142,148.155 210.245,146.907 210.104,143.738C209.898,139.122 209.133,136.645 206.834,133.144C205.968,131.827 205.301,130.725 205.351,130.696C205.401,130.667 206.553,130.191 207.911,129.637C209.27,129.084 212.544,127.545 215.188,126.218C221.75,122.925 222.875,122.979 226.32,126.748C231.071,131.947 233.441,141.653 231.977,149.911C231.135,154.665 229.918,157.305 227.786,159.004C227.476,159.251 225.02,159.771 222.329,160.16C219.638,160.548 214.28,161.656 210.421,162.621C204.097,164.202 202.091,164.598 202.091,164.263Z" style="fill:url(#_Linear35);"/>
                        </g>
                        <g transform="matrix(3.77953,0,0,3.77953,1403.84,1010.71)">
                            <path d="M161.874,163.393C161.874,163.241 162.855,162.65 164.054,162.081C168.395,160.019 172.718,154.877 174.888,149.197C176.777,144.248 177.199,141.831 177.21,135.889C177.216,132.544 177.353,130.511 177.573,130.513C178.327,130.518 181.613,132.662 183.479,134.368C184.557,135.353 186.209,137.286 187.15,138.663C188.776,141.042 188.861,141.285 188.857,143.511C188.848,148.236 185.889,154.316 181.877,157.855C179.521,159.933 174.384,162.482 171.223,163.142C168.623,163.684 161.874,163.865 161.874,163.393Z" style="fill:url(#_Linear36);"/>
                        </g>
                        <g transform="matrix(3.77953,0,0,3.77953,1403.84,1010.71)">
                            <path d="M154.38,161.054L152,160.273L153.902,158.631C156.407,156.468 159.123,152.805 160.524,149.697L161.654,147.19L164.145,146.567C166.994,145.853 171.206,143.736 173.484,141.872L175.039,140.6L174.807,142.054C174.679,142.853 173.988,145.139 173.272,147.134C171,153.458 167.334,157.963 162.309,160.603C159.382,162.141 157.94,162.223 154.38,161.054Z" style="fill:url(#_Linear37);"/>
                        </g>
                        <g transform="matrix(3.77953,0,0,3.77953,1403.84,1010.71)">
                            <path d="M199.253,157.439C196.11,147.974 190.817,137.687 186.961,133.55L185.686,132.182L189.391,132.396C191.428,132.514 194.947,132.442 197.21,132.236C200.17,131.968 201.528,131.971 202.046,132.249C203.244,132.89 206.009,137.099 206.763,139.431C208.847,145.872 206.518,155.112 201.647,159.732L200.406,160.909L199.253,157.439Z" style="fill:url(#_Linear38);"/>
                        </g>
                        <g transform="matrix(3.77953,0,0,3.77953,1403.84,1010.71)">
                            <path d="M147.001,157.508C145.453,156.633 144.509,154.714 144.319,152.054C144.095,148.925 144.967,146.821 147.027,145.52L148.469,144.61L147.391,143.645C143.808,140.435 146.6,133.701 152.187,132.077C155.91,130.994 158.579,131.747 160.375,134.385C161.055,135.385 161.168,136.013 161.168,138.777C161.168,142.529 160.552,145.232 158.912,148.676C156.395,153.96 152.65,157.671 149.594,157.909C148.556,157.989 147.59,157.84 147.001,157.508Z" style="fill:url(#_Linear39);"/>
                        </g>
                        <g transform="matrix(3.77953,0,0,3.77953,1403.84,1010.71)">
                            <path d="M162.815,144.036C162.961,143.484 163.068,141.206 163.054,138.975C163.033,135.637 162.87,134.433 162.135,132.182C161.644,130.677 161.374,129.364 161.536,129.265C162.362,128.754 167.658,128.399 169.654,128.72C173.816,129.391 175.28,131.073 175.28,135.19C175.28,138.129 174.917,138.743 171.689,141.269C169.215,143.205 166.756,144.339 164.064,144.787L162.549,145.039L162.815,144.036Z" style="fill:url(#_Linear40);"/>
                        </g>
                    </g>
                    <g>
                        <g transform="matrix(3.77953,0,0,3.77953,1403.84,1010.71)">
                            <path d="M82.892,92.184C79.208,88.85 77.611,85.001 79.236,83.374C80.462,82.145 83.975,80.104 86.125,79.37C91.135,77.66 95.087,78.152 97.461,80.779C98.919,82.392 99.259,83.406 99.233,86.058C99.212,88.187 98.614,89.603 97.091,91.126C95.487,92.73 94.166,93.265 91.848,93.248C88.784,93.227 86.86,92.016 86.284,89.748C86.188,89.368 86.088,89.851 86.063,90.821C86.011,92.803 85.716,94.172 85.34,94.172C85.202,94.172 84.1,93.278 82.892,92.184Z" style="fill:url(#_Radial41);"/>
                        </g>
                        <g transform="matrix(3.77953,0,0,3.77953,1403.84,1010.71)">
                            <path d="M73.977,87.178C67.598,83.855 65.38,81.857 63.767,77.982C61.215,71.853 62.509,65.031 66.723,62.394C68.167,61.49 69.204,61.641 73.054,63.313L76.057,64.617L74.957,66.753C73.876,68.848 73.856,68.98 73.861,73.857C73.867,78.761 73.886,78.882 75.328,83.06C76.132,85.388 76.901,87.571 77.036,87.91C77.396,88.811 76.87,88.685 73.977,87.178Z" style="fill:url(#_Radial42);"/>
                        </g>
                        <g transform="matrix(3.77953,0,0,3.77953,1403.84,1010.71)">
                            <path d="M76.694,80.678C75.065,76.767 75.095,70.974 76.762,67.736C77.709,65.897 77.845,65.781 78.928,65.888C81.036,66.097 87.38,68.309 89.177,69.462C91.143,70.724 92.377,72.421 92.377,73.864C92.377,75.578 91.785,76.128 89.105,76.902C84.53,78.225 82.361,79.069 79.968,80.458C78.673,81.21 77.514,81.825 77.392,81.825C77.271,81.825 76.956,81.309 76.694,80.678Z" style="fill:url(#_Radial43);"/>
                        </g>
                        <g transform="matrix(3.77953,0,0,3.77953,1403.84,1010.71)">
                            <path d="M57.769,77.29C53.514,74.063 50.578,70.208 49.141,65.958C48.008,62.609 47.118,55.685 47.292,51.574C47.368,49.78 47.316,48.311 47.177,48.311C45.877,48.311 45.461,60.785 46.604,65.49C46.944,66.887 47.221,68.193 47.221,68.392C47.221,69.355 41.348,65.791 38.635,63.182C33.403,58.151 29.935,50.302 29.935,43.492C29.935,40.968 30.041,40.444 30.68,39.805C31.625,38.86 32.741,39.016 36.77,40.659C40.656,42.243 45.778,45.307 50.396,48.81C53.667,51.292 56.906,53.468 63.361,57.522C64.379,58.161 65.213,58.854 65.213,59.062C65.213,59.269 64.734,60.02 64.148,60.731C61.133,64.389 59.596,70.102 60.134,75.655C60.312,77.496 60.361,79.003 60.242,79.003C60.123,79.003 59.011,78.232 57.769,77.29Z" style="fill:url(#_Radial44);"/>
                        </g>
                    </g>
                    <g>
                        <g transform="matrix(3.77953,0,0,3.77953,1403.84,1010.71)">
                            <path d="M114.768,93.225C114.427,92.705 114.069,91.585 113.974,90.737C113.843,89.575 113.674,89.243 113.288,89.391C109.35,90.902 106.411,88.515 106.343,83.751C106.306,81.16 106.956,80.008 109.167,78.744C110.985,77.705 114.206,77.668 116.793,78.658C118.986,79.497 119.872,80.184 121.104,81.999C123.22,85.118 121.413,90.956 117.542,93.508C116.176,94.409 115.498,94.34 114.768,93.225Z" style="fill:url(#_Radial45);"/>
                        </g>
                        <g transform="matrix(3.77953,0,0,3.77953,1403.84,1010.71)">
                            <path d="M123.532,89.322C123.638,88.982 124.361,87.013 125.139,84.947C128.303,76.54 128.528,69.431 125.744,65.781C125.243,65.124 124.832,64.507 124.832,64.411C124.832,64.116 128.69,62.775 129.539,62.775C130.923,62.775 133.941,64.535 135.4,66.192C137.486,68.562 138.344,71.1 138.358,74.946C138.379,80.521 136.481,83.64 131.137,86.815C128.896,88.147 124.639,89.939 123.717,89.939C123.509,89.939 123.426,89.661 123.532,89.322Z" style="fill:url(#_Radial46);"/>
                        </g>
                        <g transform="matrix(3.77953,0,0,3.77953,1403.84,1010.71)">
                            <path d="M122.608,80.807C121.545,79.2 118.418,77.417 114.875,76.395C112.55,75.725 112.056,75.084 112.466,73.268C113.089,70.504 116.259,67.857 120.824,66.286L122.698,65.641L123.905,67.051C125.299,68.68 125.891,70.663 125.891,73.71C125.891,76.382 124.981,80.504 124.172,81.504C123.565,82.253 123.565,82.253 122.608,80.807Z" style="fill:url(#_Radial47);"/>
                        </g>
                        <g transform="matrix(3.77953,0,0,3.77953,1403.84,1010.71)">
                            <path d="M151.416,72.62C151.546,72.153 151.96,69.985 152.335,67.803C152.903,64.499 153.282,63.347 154.6,60.923C156.265,57.86 158.002,53.162 157.981,51.777C157.973,51.26 157.222,52.392 155.95,54.838C154.84,56.972 153.622,59.176 153.244,59.736L152.557,60.755L152.307,59.913C152.17,59.45 151.789,58.176 151.462,57.082C151.134,55.988 150.413,54.409 149.859,53.572C149.06,52.365 148.938,51.947 149.268,51.549C149.497,51.273 151.786,49.655 154.354,47.954C160.995,43.554 167.179,40.655 171.346,39.988C172.704,39.771 172.819,39.82 173.188,40.771C173.418,41.362 173.496,42.643 173.375,43.841C172.464,52.881 166.079,62.525 156.076,69.97C151.035,73.722 151.123,73.673 151.416,72.62Z" style="fill:url(#_Radial48);"/>
                        </g>
                        <g transform="matrix(3.77953,0,0,3.77953,1403.84,1010.71)">
                            <path d="M143.356,49.281C145.454,44.686 145.945,38.31 144.559,33.663C143.131,28.879 143.033,28.145 143.63,26.731C145.644,21.957 155.226,22.994 163.786,28.912C166.641,30.886 169.226,33.444 170.129,35.189C170.806,36.5 170.991,36.357 166.283,38.172C162.109,39.782 157.505,42.125 153.584,44.637C148.675,47.781 143.107,51.133 142.793,51.133C142.638,51.133 142.891,50.3 143.356,49.281Z" style="fill:url(#_Radial49);"/>
                        </g>
                        <g transform="matrix(3.77953,0,0,3.77953,1403.84,1010.71)">
                            <path d="M141.06,77.643C141.06,71.551 139.032,66.124 135.364,62.398L133.189,60.189L134.038,59.499C134.921,58.78 144.888,53.833 146.246,53.439C146.873,53.257 147.195,53.473 147.911,54.555C149.537,57.013 150.306,59.824 150.352,63.481C150.427,69.406 148.772,73.834 145.318,76.951C144.175,77.982 142.749,79.113 142.15,79.464L141.06,80.101L141.06,77.643Z" style="fill:url(#_Radial50);"/>
                        </g>
                    </g>
                    <g>
                        <g transform="matrix(3.77953,0,0,3.77953,1403.84,1010.71)">
                            <path d="M106.12,73.476C106.112,73.314 105.962,71.515 105.789,69.478C104.895,58.988 108.011,50.301 114.397,45.48C116.865,43.616 125.637,38.607 131.711,35.592C137.176,32.881 139.676,32.058 140.628,32.659C142.156,33.622 142.726,40.26 141.64,44.431C140.723,47.947 139.422,50.281 136.872,52.985C133.383,56.682 130.136,58.702 121.996,62.235L118.611,63.704L120.828,59.271C123.723,53.483 124.848,49.602 125.029,44.783C125.182,40.724 125.252,40.599 123.555,47.428C122.589,51.314 120.395,56.264 118.217,59.471C117.441,60.614 115.404,63.214 113.69,65.249C111.976,67.284 109.707,69.98 108.647,71.242C106.729,73.523 106.149,74.036 106.12,73.476Z" style="fill:url(#_Linear51);"/>
                        </g>
                        <g transform="matrix(3.77953,0,0,3.77953,1403.84,1010.71)">
                            <path d="M114.671,40.109C115.126,38.148 114.785,34.492 113.912,31.953C113.083,29.545 110.432,24.99 108.496,22.648C107.734,21.725 106.97,20.605 106.8,20.157C106.256,18.727 107.76,16.671 110.368,15.279C111.384,14.738 112.354,14.624 115.836,14.64C119.751,14.658 120.352,14.756 123.815,15.937C128.821,17.646 132.165,19.67 135.656,23.106C138.439,25.845 139.259,27.225 138.805,28.406C138.688,28.713 137.123,29.62 135.328,30.422C130.312,32.663 124.058,35.937 119.113,38.911C116.647,40.395 114.561,41.608 114.477,41.608C114.393,41.608 114.481,40.934 114.671,40.109Z" style="fill:url(#_Linear52);"/>
                        </g>
                    </g>
                    <g id="Leaves" transform="matrix(3.77953,0,0,3.77953,1403.84,1010.71)">
                        <path d="M73.003,136.787C72.772,136.487 72.404,136.106 72.101,135.747C70.99,134.425 70.376,132.158 70.656,130.406C70.931,128.691 72.299,125.961 73.665,124.406C75.066,122.809 77.425,121.209 78.033,121.442C78.751,121.718 80.11,127.139 80.095,129.669C80.087,131.138 79.85,132.299 79.366,133.248C78.691,134.571 76.547,136.621 75.719,136.849C75.704,136.784 75.691,136.723 75.681,136.668C75.58,136.112 75.254,135.01 75.145,133.647C74.991,131.747 75.049,129.551 74.867,129.481C74.28,129.256 72.782,134.168 73.003,136.787ZM126.95,131.111C126.584,130.832 126.126,130.375 126.03,129.785C125.798,128.368 126.157,125.946 127.03,124.46C127.56,123.559 128.507,122.389 129.136,121.861C130.608,120.621 133.205,119.36 133.556,119.714C133.948,120.109 133.795,124.08 133.32,125.843C132.835,127.644 131.163,129.828 129.42,130.496C128.844,130.717 128.429,130.942 128.143,131.16C128.074,131.002 128.041,130.817 128.071,130.601C128.17,129.88 128.254,128.775 128.772,127.595C129.771,125.319 130.874,124.387 130.616,124.127C130.265,123.774 127.336,127.228 126.957,130.813C126.957,130.813 126.962,130.929 126.95,131.111ZM138.015,159.688C137.688,159.45 136.906,159.106 136.441,158.762C135.098,157.769 134.024,155.496 134.009,153.615C133.991,151.31 134.824,145.325 135.163,145.325C135.82,145.325 139.935,149.641 140.8,151.238C142.561,154.486 141.91,157.465 140.536,158.981C140.3,159.243 139.862,159.537 139.481,159.768C139.623,159.188 139.798,158.257 139.634,157.26C139.005,153.425 137.088,150.08 136.554,150.08C136.229,150.08 139.946,156.843 138.015,159.688Z" style="fill:url(#_Linear53);"/>
                    </g>
                </g>
                <g id="Trunk" transform="matrix(1,0,0,1,593.262,-4.85659)">
                    <g id="Trunk-3" serif:id="Trunk 3" transform="matrix(3.77953,0,0,3.77953,810.582,1015.57)">
                        <path d="M163.814,169.147C164.601,169.735 168.057,175.537 168.594,178.312C168.699,178.855 162.809,172.83 161.723,171.958C160.078,170.636 154.19,167.696 151.114,166.661C147.383,165.405 141.612,165.076 138.231,165.926C134.445,166.878 131.64,168.5 128.657,171.462C123.18,176.901 120.568,184.681 119.132,199.829L118.664,204.768L118.24,197.917C117.763,190.236 117.09,185.101 115.803,179.338L114.93,175.428L116.442,173.826C117.273,172.945 119.057,170.995 120.405,169.493C121.754,167.991 123.701,166.138 124.733,165.376C127.617,163.246 131.959,161.293 134.92,160.796C136.357,160.554 137.576,160.194 137.728,160.039C140.279,157.45 136.215,150.08 136.554,150.08C137.088,150.08 139.005,153.425 139.634,157.26C139.902,158.895 139.261,160.351 139.345,160.373C140.298,160.624 143.113,160.806 143.113,160.806C149.927,161.588 158.108,164.884 163.814,169.147ZM111.657,161.179C109.372,151.938 108.467,146.383 109.245,146.383C109.404,146.383 110.952,145.04 112.685,143.398C116.111,140.153 119.999,137.142 123.659,134.901C123.659,134.901 125.558,133.358 125.992,133.092C127.029,132.457 126.957,130.813 126.957,130.813C127.336,127.228 130.265,123.774 130.616,124.127C130.874,124.387 129.771,125.319 128.772,127.595C128.254,128.775 128.17,129.88 128.071,130.601C127.953,131.459 128.823,131.827 129.004,131.938C129.185,132.05 130.239,131.799 131.732,131.206C142.211,127.043 152.888,124.309 160.11,123.939C163.676,123.756 170.085,123.538 172.648,123.678C173.663,123.734 179.504,124.304 177.733,124.507C177.375,124.548 173.89,124.685 172.615,124.803C169.863,125.06 161.865,126.395 159.052,126.971C153.034,128.205 147.694,129.837 140.884,132.525C131.717,136.143 126.82,139.137 122.161,143.971C116.839,149.493 114.102,155.028 113.057,162.385L112.654,165.215L111.657,161.179Z" style="fill:url(#_Linear54);"/>
                    </g>
                    <g id="Trunk-2" serif:id="Trunk 2" transform="matrix(3.77953,0,0,3.77953,810.582,1015.57)">
                        <path d="M62.92,87.506C57.899,84.297 51.55,77.736 53.258,78.263C53.959,78.479 56.975,80.189 59.961,82.063C62.946,83.937 68.088,86.971 71.386,88.805C78.15,92.566 80.81,94.389 85.786,98.677C91.108,103.262 95.934,109.318 98.603,114.76C99.14,115.855 99.692,116.75 99.829,116.75C100.141,116.75 100.614,114.563 101.429,109.342C102.31,103.7 102.326,89.5 101.456,84.592C100.361,78.408 99.174,75.252 95.341,70.649C94.045,69.093 86.204,53.924 88.064,55.69C90.358,57.87 96.817,66.182 97.043,66.396C97.2,66.543 97.69,67.152 98.112,66.933C98.538,66.712 98.895,65.658 98.981,64.511C99.454,58.164 104.875,48.871 105.548,47.758C106.483,46.214 104.132,54.052 103.427,57.836C102.241,64.21 102.553,71.181 103.39,75.475C103.711,77.124 104.46,80.984 105.053,84.052C106.429,91.166 106.972,98.179 106.662,104.844C106.529,107.706 106.502,110.047 106.602,110.047C106.702,110.047 109.377,107.458 112.545,104.294C120.043,96.807 121.651,95.616 140.178,83.836C151.464,76.66 158.234,71.923 158.831,72.888C159.172,73.44 148.899,81.364 142.471,85.912C127.683,96.376 125.724,97.887 121.475,102.11C112.039,111.489 107.64,120.962 106.471,134.417C105.799,142.16 106.833,151.246 109.799,163.669C115.259,186.534 115.91,191.052 116.357,209.178C116.683,222.391 117.011,225.478 118.711,231.364C121.732,241.821 128.139,249.899 136.65,253.984C138.203,254.729 141.949,257.029 145.451,258.185C148.953,259.34 153.995,260.795 156.484,261.52C158.998,262.252 162.5,263.587 164.31,264.09C173.788,266.726 176.563,268.454 181.379,272.43C182.308,273.198 183.002,273.892 182.921,273.973C182.84,274.054 181.445,273.574 179.82,272.905C175.469,271.114 172.712,270.342 166.353,269.135C163.21,268.538 158.231,267.529 155.589,267.28C150.086,266.762 145.437,266.413 134.745,261.937C120.728,256.07 117.698,249.131 116.772,248.779C115.775,248.4 120.216,256.375 123.989,259.873C126.711,262.397 129.886,263.836 135.202,267.453C141.608,271.812 149.799,279.393 148.026,279.322C147.771,279.312 144.545,277.758 140.859,275.868C137.172,273.979 132.018,271.411 129.406,270.162C124.103,267.626 119.751,265.916 116.423,262.681C112.459,258.827 111.077,256.534 109.819,253.79C108.386,250.665 108.257,246.387 108.544,244.043C108.988,240.418 110.846,233.155 110.854,226.64C110.858,223.318 110.659,219.463 110.407,217.997C108.888,209.143 105.731,200.86 101.225,193.904C99.211,190.795 99.035,190.359 98.736,187.737C97.608,177.847 91.512,165.759 83.568,157.657C77.415,151.382 70.356,146.81 61.491,143.358C54.523,140.645 44.416,137.304 41.226,136.659C37.811,135.969 32.731,136.11 27.289,137.046C22.696,137.835 38.502,132.164 50.677,135.815C60.656,138.807 62.391,139.238 62.391,138.723C62.391,138.291 57.302,132.611 52.096,126.825C49.538,123.983 44.936,108.968 45.655,110.038C46.74,111.654 49.104,116.566 53.737,122.832C55.768,125.58 60.229,131.504 63.601,134.615C66.078,136.9 75.055,143.333 75.365,143.045C75.419,142.995 74.903,141.785 74.218,140.357C73.534,138.929 73.103,137.551 73.033,137.059C72.673,134.526 74.259,129.248 74.867,129.481C75.049,129.551 74.991,131.747 75.145,133.647C75.254,135.01 75.58,136.112 75.681,136.668C75.822,137.451 76.502,139.349 77.304,140.673C78.642,142.886 81.049,145.208 87.2,150.221C92.287,154.365 95.721,157.921 99.901,163.371C101.487,165.438 102.827,167.088 102.879,167.038C102.931,166.989 102.571,165.456 102.078,163.633C100.324,157.148 98.669,145.91 98.017,136.049C97.392,126.612 95.853,120.75 92.05,113.316C86.993,103.432 80.274,97.159 67.153,90.072C66.377,89.652 64.472,88.498 62.92,87.506Z" style="fill:url(#_Linear55);"/>
                    </g>
                    <g id="Trunk-1" serif:id="Trunk 1" transform="matrix(3.77953,0,0,3.77953,810.582,1015.57)">
                        <path d="M77.906,284.607C75.069,280.69 74.922,272.557 77.594,267.319C77.976,266.571 78.114,265.975 77.907,265.975C77.26,265.975 68.302,270.382 66.206,271.732C63.943,273.189 61.171,275.431 56.661,279.453C52.647,283.032 51.882,283.054 54.326,279.519C59.952,271.381 65.238,265.166 76.414,261.033C78.288,260.34 80.821,258.842 81.264,258.492C87.59,253.479 92.049,246.795 91.602,246.955C91.299,247.064 82.089,256.167 77.87,258.246C74.341,259.986 65.792,263.679 61.685,265.269C54.263,268.143 52.67,268.545 44.928,269.501C37.758,270.386 35.482,270.882 31.422,272.447C29.731,273.098 28.03,273.746 27.642,273.886C27.254,274.027 27.73,273.409 28.7,272.515C31.923,269.543 37.264,267.317 46.606,265.055C50.172,264.191 61.467,259.695 64.668,258.176C77.092,252.285 78.126,249.806 83.096,244.878C89.658,238.372 93.606,230.484 95,221.091C95.304,219.049 95.551,216.445 95.55,215.306C95.544,210.065 93.838,203.366 91.296,198.611C87.481,191.474 80.305,185.263 72.54,182.377C65.808,179.874 56.9,179.886 51.631,181.768C43.918,184.523 41.863,186.552 41.5,186.095C41.412,185.984 44.039,183.45 44.467,183.128C47.087,181.157 50.647,179.663 53.547,178.744C54.897,178.316 55.99,177.822 55.975,177.646C55.961,177.47 54.695,177.342 53.163,177.361C51.631,177.381 29.606,178.071 33.137,177.513C35.835,177.086 39.114,176.764 42.988,176.542C45.025,176.425 48.835,176.088 51.455,175.792C61.334,174.678 69.402,175.263 76.385,177.6C88.411,181.624 97.2,189.467 102.784,201.159C108.631,213.4 109.905,225.088 107.195,241.633C106.209,247.652 106.09,249.086 106.243,253.099C106.539,260.836 108.285,265.305 112.8,269.874C115.696,272.804 119.018,275.091 125.796,278.819C130.113,281.193 131.28,282.048 129.713,281.691C129.26,281.587 127.778,281.335 126.42,281.131C120.251,280.202 112.765,277.293 108.568,274.192C102.219,269.502 97.209,260.394 97.159,253.451C97.144,251.263 97.286,250.413 97.792,249.667C98.512,248.606 100.854,242.131 100.825,241.284C100.815,240.991 100.446,241.722 100.005,242.908C99.564,244.094 98.752,245.84 98.201,246.788C96.472,249.761 90.891,257.605 85.401,264.779C81.262,270.187 79.158,276.557 79.389,282.987C79.45,284.691 79.382,286.085 79.238,286.084C79.094,286.084 78.494,285.419 77.906,284.607ZM96.486,282.559C93.767,279.677 91.353,275.051 90.466,271.021C89.439,266.353 90.463,259.924 91.275,258.596C91.613,258.043 95.427,251.688 96.26,251.571C96.649,251.516 96.285,258.463 96.251,258.797C96.162,259.661 96.01,261.23 95.723,262.976C94.445,270.758 95.571,278.802 98.556,283.193C99.038,283.903 99.432,284.605 99.432,284.754C99.432,285.433 98.641,284.844 96.486,282.559Z" style="fill:url(#_Radial56);"/>
                    </g>
                </g>
                <g id="Circle" transform="matrix(1.18276,0,0,1.12762,329.814,-459.204)">
                    <path d="M947.707,2197.67C803.739,2102.54 708.686,1939.25 708.686,1753.94C708.686,1460.61 946.83,1222.47 1240.16,1222.47C1533.49,1222.47 1771.63,1460.61 1771.63,1753.94C1771.63,1939.25 1676.58,2102.54 1532.61,2197.67C1505.95,2186.48 1477.2,2176.78 1446.74,2168.79C1600.15,2093.26 1706.15,1936.21 1706.15,1753.94C1706.15,1497.59 1496.5,1291.15 1240.16,1291.15C983.812,1291.15 774.169,1497.59 774.169,1753.94C774.169,1936.21 880.165,2093.26 1033.58,2168.79C1003.12,2176.78 974.362,2186.48 947.707,2197.67Z" style="fill:rgb(50,194,216);"/>
                </g>
            </g>
            <g id="Name---Zen-Maru" serif:id="Name - Zen Maru" transform="matrix(3.73551,0,0,14.6007,-3464.55,-33094.3)">
                <g transform="matrix(50,0,0,50,1159.34,2406.46)">
                    <path d="M0.128,-0C0.09,-0 0.071,-0.02 0.071,-0.059L0.071,-0.641C0.071,-0.68 0.09,-0.7 0.128,-0.7C0.167,-0.7 0.186,-0.68 0.186,-0.641L0.186,-0.396L0.411,-0.655C0.426,-0.673 0.439,-0.685 0.451,-0.691C0.463,-0.697 0.478,-0.7 0.497,-0.7C0.514,-0.7 0.526,-0.696 0.534,-0.688C0.542,-0.68 0.546,-0.67 0.546,-0.659C0.545,-0.648 0.541,-0.637 0.533,-0.627L0.309,-0.374L0.547,-0.071C0.555,-0.06 0.559,-0.049 0.56,-0.037C0.561,-0.025 0.557,-0.015 0.549,-0.007C0.54,0.001 0.526,0.005 0.507,0.005C0.487,0.005 0.471,0.001 0.459,-0.007C0.446,-0.014 0.435,-0.024 0.426,-0.037L0.186,-0.358L0.186,-0.059C0.186,-0.02 0.167,-0 0.128,-0Z" style="fill:rgb(35,74,132);fill-rule:nonzero;"/>
                </g>
                <g transform="matrix(50,0,0,50,1189.84,2406.46)">
                    <path d="M0.128,-0C0.09,-0 0.071,-0.02 0.071,-0.059L0.071,-0.641C0.071,-0.68 0.09,-0.7 0.128,-0.7C0.167,-0.7 0.186,-0.68 0.186,-0.641L0.186,-0.059C0.186,-0.02 0.167,-0 0.128,-0Z" style="fill:rgb(35,74,132);fill-rule:nonzero;"/>
                </g>
                <g transform="matrix(50,0,0,50,1202.69,2406.46)">
                    <path d="M0.128,-0C0.09,-0 0.071,-0.02 0.071,-0.059L0.071,-0.641C0.071,-0.68 0.09,-0.7 0.128,-0.7L0.141,-0.7C0.171,-0.7 0.195,-0.687 0.212,-0.661L0.516,-0.203L0.516,-0.641C0.516,-0.66 0.521,-0.675 0.532,-0.685C0.542,-0.695 0.556,-0.7 0.575,-0.7C0.614,-0.7 0.633,-0.68 0.633,-0.641L0.633,-0.059C0.633,-0.02 0.615,-0 0.578,-0L0.568,-0C0.537,-0 0.514,-0.013 0.497,-0.039L0.186,-0.511L0.186,-0.059C0.186,-0.02 0.167,-0 0.128,-0Z" style="fill:rgb(35,74,132);fill-rule:nonzero;"/>
                </g>
                <g transform="matrix(50,0,0,50,1237.84,2406.46)">
                    <path d="M0.13,-0C0.091,-0 0.071,-0.02 0.071,-0.059L0.071,-0.641C0.071,-0.68 0.091,-0.7 0.13,-0.7L0.296,-0.7C0.366,-0.7 0.427,-0.687 0.477,-0.661C0.529,-0.635 0.568,-0.596 0.596,-0.544C0.623,-0.492 0.637,-0.427 0.637,-0.35C0.637,-0.273 0.623,-0.209 0.596,-0.157C0.568,-0.105 0.529,-0.066 0.477,-0.04C0.427,-0.013 0.366,-0 0.296,-0L0.13,-0ZM0.186,-0.107L0.287,-0.107C0.359,-0.107 0.415,-0.128 0.456,-0.17C0.496,-0.211 0.516,-0.271 0.516,-0.35C0.516,-0.429 0.496,-0.49 0.456,-0.531C0.415,-0.572 0.359,-0.593 0.287,-0.593L0.186,-0.593L0.186,-0.107Z" style="fill:rgb(35,74,132);fill-rule:nonzero;"/>
                </g>
                <g transform="matrix(50,0,0,50,1271.49,2406.46)">
                    <path d="M0.13,-0C0.091,-0 0.071,-0.02 0.071,-0.059L0.071,-0.641C0.071,-0.68 0.091,-0.7 0.13,-0.7L0.48,-0.7C0.519,-0.7 0.539,-0.682 0.539,-0.646C0.539,-0.611 0.519,-0.593 0.48,-0.593L0.186,-0.593L0.186,-0.411L0.449,-0.411C0.488,-0.411 0.508,-0.393 0.508,-0.357C0.508,-0.321 0.488,-0.303 0.449,-0.303L0.186,-0.303L0.186,-0.107L0.491,-0.107C0.53,-0.107 0.55,-0.089 0.55,-0.054C0.55,-0.018 0.53,-0 0.491,-0L0.13,-0Z" style="fill:rgb(35,74,132);fill-rule:nonzero;"/>
                </g>
                <g transform="matrix(50,0,0,50,1300.79,2406.46)">
                    <path d="M0.128,-0C0.09,-0 0.071,-0.02 0.071,-0.059L0.071,-0.641C0.071,-0.68 0.091,-0.7 0.13,-0.7L0.391,-0.7C0.456,-0.7 0.508,-0.685 0.547,-0.654C0.585,-0.623 0.604,-0.572 0.604,-0.499C0.604,-0.438 0.59,-0.391 0.562,-0.36C0.534,-0.328 0.495,-0.308 0.446,-0.301L0.561,-0.07C0.571,-0.049 0.573,-0.033 0.567,-0.02C0.561,-0.007 0.548,-0 0.529,-0L0.51,-0C0.477,-0 0.454,-0.015 0.441,-0.045L0.326,-0.296L0.186,-0.296L0.186,-0.059C0.186,-0.02 0.167,-0 0.128,-0ZM0.186,-0.404L0.375,-0.404C0.409,-0.404 0.435,-0.411 0.454,-0.426C0.473,-0.441 0.482,-0.465 0.482,-0.499C0.482,-0.532 0.473,-0.556 0.454,-0.571C0.435,-0.586 0.409,-0.593 0.375,-0.593L0.186,-0.593L0.186,-0.404Z" style="fill:rgb(35,74,132);fill-rule:nonzero;"/>
                </g>
                <g transform="matrix(50,0,0,50,1346.84,2406.46)">
                    <path d="M0.129,-0C0.09,-0 0.071,-0.02 0.071,-0.059L0.071,-0.641C0.071,-0.664 0.077,-0.679 0.089,-0.688C0.1,-0.696 0.117,-0.7 0.14,-0.7C0.171,-0.7 0.194,-0.687 0.21,-0.66L0.387,-0.364L0.562,-0.659C0.571,-0.676 0.582,-0.687 0.595,-0.692C0.607,-0.697 0.623,-0.7 0.643,-0.7C0.682,-0.7 0.702,-0.68 0.702,-0.641L0.702,-0.059C0.702,-0.02 0.682,-0 0.643,-0C0.604,-0 0.584,-0.02 0.584,-0.059L0.584,-0.499L0.443,-0.255C0.429,-0.228 0.41,-0.214 0.386,-0.214C0.362,-0.214 0.343,-0.228 0.329,-0.255L0.187,-0.499L0.187,-0.059C0.187,-0.02 0.168,-0 0.129,-0Z" style="fill:rgb(35,74,132);fill-rule:nonzero;"/>
                </g>
                <g transform="matrix(50,0,0,50,1385.44,2406.46)">
                    <path d="M0.128,-0C0.09,-0 0.071,-0.02 0.071,-0.059L0.071,-0.641C0.071,-0.68 0.09,-0.7 0.128,-0.7C0.167,-0.7 0.186,-0.68 0.186,-0.641L0.186,-0.059C0.186,-0.02 0.167,-0 0.128,-0Z" style="fill:rgb(35,74,132);fill-rule:nonzero;"/>
                </g>
                <g transform="matrix(50,0,0,50,1398.29,2406.46)">
                    <path d="M0.128,-0C0.09,-0 0.071,-0.02 0.071,-0.059L0.071,-0.641C0.071,-0.68 0.09,-0.7 0.128,-0.7L0.141,-0.7C0.171,-0.7 0.195,-0.687 0.212,-0.661L0.516,-0.203L0.516,-0.641C0.516,-0.66 0.521,-0.675 0.532,-0.685C0.542,-0.695 0.556,-0.7 0.575,-0.7C0.614,-0.7 0.633,-0.68 0.633,-0.641L0.633,-0.059C0.633,-0.02 0.615,-0 0.578,-0L0.568,-0C0.537,-0 0.514,-0.013 0.497,-0.039L0.186,-0.511L0.186,-0.059C0.186,-0.02 0.167,-0 0.128,-0Z" style="fill:rgb(35,74,132);fill-rule:nonzero;"/>
                </g>
                <g transform="matrix(50,0,0,50,1433.44,2406.46)">
                    <path d="M0.13,-0C0.091,-0 0.071,-0.02 0.071,-0.059L0.071,-0.641C0.071,-0.68 0.091,-0.7 0.13,-0.7L0.296,-0.7C0.366,-0.7 0.427,-0.687 0.477,-0.661C0.529,-0.635 0.568,-0.596 0.596,-0.544C0.623,-0.492 0.637,-0.427 0.637,-0.35C0.637,-0.273 0.623,-0.209 0.596,-0.157C0.568,-0.105 0.529,-0.066 0.477,-0.04C0.427,-0.013 0.366,-0 0.296,-0L0.13,-0ZM0.186,-0.107L0.287,-0.107C0.359,-0.107 0.415,-0.128 0.456,-0.17C0.496,-0.211 0.516,-0.271 0.516,-0.35C0.516,-0.429 0.496,-0.49 0.456,-0.531C0.415,-0.572 0.359,-0.593 0.287,-0.593L0.186,-0.593L0.186,-0.107Z" style="fill:rgb(35,74,132);fill-rule:nonzero;"/>
                </g>
                <g transform="matrix(50,0,0,50,1467.09,2406.46)">
                    <path d="M0.324,0.014C0.275,0.014 0.229,0.005 0.186,-0.012C0.143,-0.029 0.107,-0.057 0.076,-0.097C0.065,-0.113 0.061,-0.128 0.065,-0.141C0.068,-0.155 0.078,-0.166 0.094,-0.175C0.109,-0.184 0.123,-0.187 0.136,-0.184C0.149,-0.18 0.161,-0.171 0.174,-0.157C0.192,-0.138 0.214,-0.123 0.238,-0.112C0.264,-0.101 0.293,-0.096 0.328,-0.096C0.375,-0.096 0.407,-0.105 0.427,-0.122C0.446,-0.139 0.455,-0.162 0.455,-0.191C0.455,-0.21 0.451,-0.226 0.443,-0.239C0.434,-0.252 0.417,-0.265 0.391,-0.277C0.364,-0.288 0.324,-0.3 0.269,-0.312C0.204,-0.327 0.157,-0.352 0.126,-0.385C0.095,-0.418 0.079,-0.461 0.079,-0.512C0.079,-0.553 0.089,-0.589 0.109,-0.62C0.128,-0.651 0.156,-0.675 0.192,-0.692C0.227,-0.709 0.269,-0.718 0.317,-0.718C0.367,-0.718 0.411,-0.709 0.448,-0.692C0.485,-0.675 0.517,-0.652 0.542,-0.625C0.555,-0.611 0.56,-0.597 0.557,-0.583C0.554,-0.569 0.546,-0.556 0.531,-0.545C0.516,-0.533 0.502,-0.528 0.489,-0.531C0.476,-0.534 0.462,-0.541 0.449,-0.554C0.432,-0.569 0.413,-0.582 0.392,-0.592C0.371,-0.602 0.345,-0.607 0.316,-0.607C0.281,-0.607 0.253,-0.6 0.232,-0.585C0.21,-0.57 0.199,-0.547 0.199,-0.517C0.199,-0.504 0.202,-0.491 0.209,-0.478C0.215,-0.466 0.229,-0.454 0.251,-0.443C0.272,-0.432 0.306,-0.421 0.351,-0.41C0.431,-0.392 0.489,-0.365 0.524,-0.329C0.559,-0.293 0.577,-0.248 0.577,-0.193C0.577,-0.126 0.554,-0.075 0.507,-0.04C0.461,-0.004 0.4,0.014 0.324,0.014Z" style="fill:rgb(35,74,132);fill-rule:nonzero;"/>
                </g>
            </g>
        </g>
    </g>
    <defs>
        <linearGradient id="_Linear1" x1="0" y1="0" x2="1" y2="0" gradientUnits="userSpaceOnUse" gradientTransform="matrix(-26.2616,13.8585,-13.8585,-26.2616,29.1575,126.667)"><stop offset="0" style="stop-color:rgb(46,49,74);stop-opacity:1"/><stop offset="1" style="stop-color:rgb(49,44,73);stop-opacity:1"/></linearGradient>
        <linearGradient id="_Linear2" x1="0" y1="0" x2="1" y2="0" gradientUnits="userSpaceOnUse" gradientTransform="matrix(-26.2616,13.8585,-13.8585,-26.2616,29.1575,126.667)"><stop offset="0" style="stop-color:rgb(46,49,74);stop-opacity:1"/><stop offset="1" style="stop-color:rgb(49,44,73);stop-opacity:1"/></linearGradient>
        <linearGradient id="_Linear3" x1="0" y1="0" x2="1" y2="0" gradientUnits="userSpaceOnUse" gradientTransform="matrix(52.8914,85.661,-85.661,52.8914,-4.60476,41.7001)"><stop offset="0" style="stop-color:rgb(35,87,100);stop-opacity:1"/><stop offset="1" style="stop-color:rgb(45,49,68);stop-opacity:1"/></linearGradient>
        <linearGradient id="_Linear4" x1="0" y1="0" x2="1" y2="0" gradientUnits="userSpaceOnUse" gradientTransform="matrix(52.8914,85.661,-85.661,52.8914,-4.60476,41.7001)"><stop offset="0" style="stop-color:rgb(35,87,100);stop-opacity:1"/><stop offset="1" style="stop-color:rgb(45,49,68);stop-opacity:1"/></linearGradient>
        <linearGradient id="_Linear5" x1="0" y1="0" x2="1" y2="0" gradientUnits="userSpaceOnUse" gradientTransform="matrix(52.8914,85.661,-85.661,52.8914,-4.60476,41.7001)"><stop offset="0" style="stop-color:rgb(35,87,100);stop-opacity:1"/><stop offset="1" style="stop-color:rgb(45,49,68);stop-opacity:1"/></linearGradient>
        <linearGradient id="_Linear6" x1="0" y1="0" x2="1" y2="0" gradientUnits="userSpaceOnUse" gradientTransform="matrix(52.8914,85.661,-85.661,52.8914,-4.60476,41.7001)"><stop offset="0" style="stop-color:rgb(35,87,100);stop-opacity:1"/><stop offset="1" style="stop-color:rgb(45,49,68);stop-opacity:1"/></linearGradient>
        <radialGradient id="_Radial7" cx="0" cy="0" r="1" gradientUnits="userSpaceOnUse" gradientTransform="matrix(24.8837,9.25368,-9.25368,24.8837,50.8195,98.5537)"><stop offset="0" style="stop-color:rgb(37,116,91);stop-opacity:1"/><stop offset="1" style="stop-color:rgb(79,182,139);stop-opacity:1"/></radialGradient>
        <radialGradient id="_Radial8" cx="0" cy="0" r="1" gradientUnits="userSpaceOnUse" gradientTransform="matrix(24.8837,9.25368,-9.25368,24.8837,50.8195,98.5537)"><stop offset="0" style="stop-color:rgb(37,116,91);stop-opacity:1"/><stop offset="1" style="stop-color:rgb(79,182,139);stop-opacity:1"/></radialGradient>
        <radialGradient id="_Radial9" cx="0" cy="0" r="1" gradientUnits="userSpaceOnUse" gradientTransform="matrix(-35.931,-51.2206,51.2206,-35.931,100.923,70.6494)"><stop offset="0" style="stop-color:rgb(32,64,73);stop-opacity:1"/><stop offset="1" style="stop-color:rgb(0,113,99);stop-opacity:1"/></radialGradient>
        <radialGradient id="_Radial10" cx="0" cy="0" r="1" gradientUnits="userSpaceOnUse" gradientTransform="matrix(-35.931,-51.2206,51.2206,-35.931,100.923,70.6494)"><stop offset="0" style="stop-color:rgb(32,64,73);stop-opacity:1"/><stop offset="1" style="stop-color:rgb(0,113,99);stop-opacity:1"/></radialGradient>
        <linearGradient id="_Linear11" x1="0" y1="0" x2="1" y2="0" gradientUnits="userSpaceOnUse" gradientTransform="matrix(-15.4683,-23.4678,23.4678,-15.4683,88.9434,39.8263)"><stop offset="0" style="stop-color:rgb(0,136,109);stop-opacity:1"/><stop offset="1" style="stop-color:rgb(0,176,137);stop-opacity:1"/></linearGradient>
        <radialGradient id="_Radial12" cx="0" cy="0" r="1" gradientUnits="userSpaceOnUse" gradientTransform="matrix(76.9912,-52.4248,52.4248,76.9912,125.265,110.451)"><stop offset="0" style="stop-color:rgb(250,69,78);stop-opacity:1"/><stop offset="0.42" style="stop-color:rgb(155,46,37);stop-opacity:1"/><stop offset="0.68" style="stop-color:rgb(104,110,43);stop-opacity:1"/><stop offset="1" style="stop-color:rgb(132,181,54);stop-opacity:1"/></radialGradient>
        <radialGradient id="_Radial13" cx="0" cy="0" r="1" gradientUnits="userSpaceOnUse" gradientTransform="matrix(76.9912,-52.4248,52.4248,76.9912,125.265,110.451)"><stop offset="0" style="stop-color:rgb(250,69,78);stop-opacity:1"/><stop offset="0.42" style="stop-color:rgb(155,46,37);stop-opacity:1"/><stop offset="0.68" style="stop-color:rgb(104,110,43);stop-opacity:1"/><stop offset="1" style="stop-color:rgb(132,181,54);stop-opacity:1"/></radialGradient>
        <radialGradient id="_Radial14" cx="0" cy="0" r="1" gradientUnits="userSpaceOnUse" gradientTransform="matrix(76.9912,-52.4248,52.4248,76.9912,125.265,110.451)"><stop offset="0" style="stop-color:rgb(250,69,78);stop-opacity:1"/><stop offset="0.42" style="stop-color:rgb(155,46,37);stop-opacity:1"/><stop offset="0.68" style="stop-color:rgb(104,110,43);stop-opacity:1"/><stop offset="1" style="stop-color:rgb(132,181,54);stop-opacity:1"/></radialGradient>
        <radialGradient id="_Radial15" cx="0" cy="0" r="1" gradientUnits="userSpaceOnUse" gradientTransform="matrix(76.9912,-52.4248,52.4248,76.9912,125.265,110.451)"><stop offset="0" style="stop-color:rgb(250,69,78);stop-opacity:1"/><stop offset="0.42" style="stop-color:rgb(155,46,37);stop-opacity:1"/><stop offset="0.68" style="stop-color:rgb(104,110,43);stop-opacity:1"/><stop offset="1" style="stop-color:rgb(132,181,54);stop-opacity:1"/></radialGradient>
        <radialGradient id="_Radial16" cx="0" cy="0" r="1" gradientUnits="userSpaceOnUse" gradientTransform="matrix(76.9912,-52.4248,52.4248,76.9912,125.265,110.451)"><stop offset="0" style="stop-color:rgb(250,69,78);stop-opacity:1"/><stop offset="0.42" style="stop-color:rgb(155,46,37);stop-opacity:1"/><stop offset="0.68" style="stop-color:rgb(104,110,43);stop-opacity:1"/><stop offset="1" style="stop-color:rgb(132,181,54);stop-opacity:1"/></radialGradient>
        <radialGradient id="_Radial17" cx="0" cy="0" r="1" gradientUnits="userSpaceOnUse" gradientTransform="matrix(76.9912,-52.4248,52.4248,76.9912,125.265,110.451)"><stop offset="0" style="stop-color:rgb(250,69,78);stop-opacity:1"/><stop offset="0.42" style="stop-color:rgb(155,46,37);stop-opacity:1"/><stop offset="0.68" style="stop-color:rgb(104,110,43);stop-opacity:1"/><stop offset="1" style="stop-color:rgb(132,181,54);stop-opacity:1"/></radialGradient>
        <linearGradient id="_Linear18" x1="0" y1="0" x2="1" y2="0" gradientUnits="userSpaceOnUse" gradientTransform="matrix(62.065,-22.0637,22.0637,62.065,167.807,123.509)"><stop offset="0" style="stop-color:rgb(148,95,35);stop-opacity:1"/><stop offset="1" style="stop-color:rgb(217,197,59);stop-opacity:1"/></linearGradient>
        <linearGradient id="_Linear19" x1="0" y1="0" x2="1" y2="0" gradientUnits="userSpaceOnUse" gradientTransform="matrix(62.065,-22.0637,22.0637,62.065,167.807,123.509)"><stop offset="0" style="stop-color:rgb(148,95,35);stop-opacity:1"/><stop offset="1" style="stop-color:rgb(217,197,59);stop-opacity:1"/></linearGradient>
        <radialGradient id="_Radial20" cx="0" cy="0" r="1" gradientUnits="userSpaceOnUse" gradientTransform="matrix(-70.7608,14.4949,-14.4949,-70.7608,58.0888,188.511)"><stop offset="0" style="stop-color:rgb(251,67,126);stop-opacity:1"/><stop offset="0.54" style="stop-color:rgb(151,30,96);stop-opacity:1"/><stop offset="0.63" style="stop-color:rgb(91,33,79);stop-opacity:1"/><stop offset="0.7" style="stop-color:rgb(107,34,90);stop-opacity:1"/><stop offset="0.79" style="stop-color:rgb(124,36,101);stop-opacity:1"/><stop offset="1" style="stop-color:rgb(132,37,106);stop-opacity:1"/></radialGradient>
        <radialGradient id="_Radial21" cx="0" cy="0" r="1" gradientUnits="userSpaceOnUse" gradientTransform="matrix(-70.7608,14.4949,-14.4949,-70.7608,58.0888,188.511)"><stop offset="0" style="stop-color:rgb(251,67,126);stop-opacity:1"/><stop offset="0.54" style="stop-color:rgb(151,30,96);stop-opacity:1"/><stop offset="0.63" style="stop-color:rgb(91,33,79);stop-opacity:1"/><stop offset="0.7" style="stop-color:rgb(107,34,90);stop-opacity:1"/><stop offset="0.79" style="stop-color:rgb(124,36,101);stop-opacity:1"/><stop offset="1" style="stop-color:rgb(132,37,106);stop-opacity:1"/></radialGradient>
        <radialGradient id="_Radial22" cx="0" cy="0" r="1" gradientUnits="userSpaceOnUse" gradientTransform="matrix(-70.7608,14.4949,-14.4949,-70.7608,58.0888,188.511)"><stop offset="0" style="stop-color:rgb(251,67,126);stop-opacity:1"/><stop offset="0.54" style="stop-color:rgb(151,30,96);stop-opacity:1"/><stop offset="0.63" style="stop-color:rgb(91,33,79);stop-opacity:1"/><stop offset="0.7" style="stop-color:rgb(107,34,90);stop-opacity:1"/><stop offset="0.79" style="stop-color:rgb(124,36,101);stop-opacity:1"/><stop offset="1" style="stop-color:rgb(132,37,106);stop-opacity:1"/></radialGradient>
        <radialGradient id="_Radial23" cx="0" cy="0" r="1" gradientUnits="userSpaceOnUse" gradientTransform="matrix(98.8161,0,0,98.8161,138.605,187.658)"><stop offset="0" style="stop-color:rgb(255,129,72);stop-opacity:1"/><stop offset="0.26" style="stop-color:rgb(252,114,67);stop-opacity:1"/><stop offset="0.34" style="stop-color:rgb(245,77,55);stop-opacity:1"/><stop offset="0.42" style="stop-color:rgb(238,35,41);stop-opacity:1"/><stop offset="0.55" style="stop-color:rgb(252,44,40);stop-opacity:1"/><stop offset="0.64" style="stop-color:rgb(235,34,42);stop-opacity:1"/><stop offset="1" style="stop-color:rgb(255,76,43);stop-opacity:1"/></radialGradient>
        <radialGradient id="_Radial24" cx="0" cy="0" r="1" gradientUnits="userSpaceOnUse" gradientTransform="matrix(98.8161,0,0,98.8161,138.605,187.658)"><stop offset="0" style="stop-color:rgb(255,129,72);stop-opacity:1"/><stop offset="0.26" style="stop-color:rgb(252,114,67);stop-opacity:1"/><stop offset="0.34" style="stop-color:rgb(245,77,55);stop-opacity:1"/><stop offset="0.42" style="stop-color:rgb(238,35,41);stop-opacity:1"/><stop offset="0.55" style="stop-color:rgb(252,44,40);stop-opacity:1"/><stop offset="0.64" style="stop-color:rgb(235,34,42);stop-opacity:1"/><stop offset="1" style="stop-color:rgb(255,76,43);stop-opacity:1"/></radialGradient>
        <radialGradient id="_Radial25" cx="0" cy="0" r="1" gradientUnits="userSpaceOnUse" gradientTransform="matrix(98.8161,0,0,98.8161,138.605,187.658)"><stop offset="0" style="stop-color:rgb(255,129,72);stop-opacity:1"/><stop offset="0.26" style="stop-color:rgb(252,114,67);stop-opacity:1"/><stop offset="0.34" style="stop-color:rgb(245,77,55);stop-opacity:1"/><stop offset="0.42" style="stop-color:rgb(238,35,41);stop-opacity:1"/><stop offset="0.55" style="stop-color:rgb(252,44,40);stop-opacity:1"/><stop offset="0.64" style="stop-color:rgb(235,34,42);stop-opacity:1"/><stop offset="1" style="stop-color:rgb(255,76,43);stop-opacity:1"/></radialGradient>
        <radialGradient id="_Radial26" cx="0" cy="0" r="1" gradientUnits="userSpaceOnUse" gradientTransform="matrix(98.8161,0,0,98.8161,138.605,187.658)"><stop offset="0" style="stop-color:rgb(255,129,72);stop-opacity:1"/><stop offset="0.26" style="stop-color:rgb(252,114,67);stop-opacity:1"/><stop offset="0.34" style="stop-color:rgb(245,77,55);stop-opacity:1"/><stop offset="0.42" style="stop-color:rgb(238,35,41);stop-opacity:1"/><stop offset="0.55" style="stop-color:rgb(252,44,40);stop-opacity:1"/><stop offset="0.64" style="stop-color:rgb(235,34,42);stop-opacity:1"/><stop offset="1" style="stop-color:rgb(255,76,43);stop-opacity:1"/></radialGradient>
        <linearGradient id="_Linear27" x1="0" y1="0" x2="1" y2="0" gradientUnits="userSpaceOnUse" gradientTransform="matrix(-91.9311,-8.41681,8.41681,-91.9311,67.3697,159.563)"><stop offset="0" style="stop-color:rgb(217,73,122);stop-opacity:1"/><stop offset="0.28" style="stop-color:rgb(171,64,106);stop-opacity:1"/><stop offset="0.61" style="stop-color:rgb(52,40,64);stop-opacity:1"/><stop offset="0.79" style="stop-color:rgb(77,45,86);stop-opacity:1"/><stop offset="1" style="stop-color:rgb(84,46,92);stop-opacity:1"/></linearGradient>
        <linearGradient id="_Linear28" x1="0" y1="0" x2="1" y2="0" gradientUnits="userSpaceOnUse" gradientTransform="matrix(-91.9311,-8.41681,8.41681,-91.9311,67.3697,159.563)"><stop offset="0" style="stop-color:rgb(217,73,122);stop-opacity:1"/><stop offset="0.28" style="stop-color:rgb(171,64,106);stop-opacity:1"/><stop offset="0.61" style="stop-color:rgb(52,40,64);stop-opacity:1"/><stop offset="0.79" style="stop-color:rgb(77,45,86);stop-opacity:1"/><stop offset="1" style="stop-color:rgb(84,46,92);stop-opacity:1"/></linearGradient>
        <linearGradient id="_Linear29" x1="0" y1="0" x2="1" y2="0" gradientUnits="userSpaceOnUse" gradientTransform="matrix(-91.9311,-8.41681,8.41681,-91.9311,67.3697,159.563)"><stop offset="0" style="stop-color:rgb(217,73,122);stop-opacity:1"/><stop offset="0.28" style="stop-color:rgb(171,64,106);stop-opacity:1"/><stop offset="0.61" style="stop-color:rgb(52,40,64);stop-opacity:1"/><stop offset="0.79" style="stop-color:rgb(77,45,86);stop-opacity:1"/><stop offset="1" style="stop-color:rgb(84,46,92);stop-opacity:1"/></linearGradient>
        <linearGradient id="_Linear30" x1="0" y1="0" x2="1" y2="0" gradientUnits="userSpaceOnUse" gradientTransform="matrix(-91.9311,-8.41681,8.41681,-91.9311,67.3697,159.563)"><stop offset="0" style="stop-color:rgb(217,73,122);stop-opacity:1"/><stop offset="0.28" style="stop-color:rgb(171,64,106);stop-opacity:1"/><stop offset="0.61" style="stop-color:rgb(52,40,64);stop-opacity:1"/><stop offset="0.79" style="stop-color:rgb(77,45,86);stop-opacity:1"/><stop offset="1" style="stop-color:rgb(84,46,92);stop-opacity:1"/></linearGradient>
        <linearGradient id="_Linear31" x1="0" y1="0" x2="1" y2="0" gradientUnits="userSpaceOnUse" gradientTransform="matrix(-91.9311,-8.41681,8.41681,-91.9311,67.3697,159.563)"><stop offset="0" style="stop-color:rgb(217,73,122);stop-opacity:1"/><stop offset="0.28" style="stop-color:rgb(171,64,106);stop-opacity:1"/><stop offset="0.61" style="stop-color:rgb(52,40,64);stop-opacity:1"/><stop offset="0.79" style="stop-color:rgb(77,45,86);stop-opacity:1"/><stop offset="1" style="stop-color:rgb(84,46,92);stop-opacity:1"/></linearGradient>
        <linearGradient id="_Linear32" x1="0" y1="0" x2="1" y2="0" gradientUnits="userSpaceOnUse" gradientTransform="matrix(-91.9311,-8.41681,8.41681,-91.9311,67.3697,159.563)"><stop offset="0" style="stop-color:rgb(217,73,122);stop-opacity:1"/><stop offset="0.28" style="stop-color:rgb(171,64,106);stop-opacity:1"/><stop offset="0.61" style="stop-color:rgb(52,40,64);stop-opacity:1"/><stop offset="0.79" style="stop-color:rgb(77,45,86);stop-opacity:1"/><stop offset="1" style="stop-color:rgb(84,46,92);stop-opacity:1"/></linearGradient>
        <linearGradient id="_Linear33" x1="0" y1="0" x2="1" y2="0" gradientUnits="userSpaceOnUse" gradientTransform="matrix(-91.9311,-8.41681,8.41681,-91.9311,67.3697,159.563)"><stop offset="0" style="stop-color:rgb(217,73,122);stop-opacity:1"/><stop offset="0.28" style="stop-color:rgb(171,64,106);stop-opacity:1"/><stop offset="0.61" style="stop-color:rgb(52,40,64);stop-opacity:1"/><stop offset="0.79" style="stop-color:rgb(77,45,86);stop-opacity:1"/><stop offset="1" style="stop-color:rgb(84,46,92);stop-opacity:1"/></linearGradient>
        <linearGradient id="_Linear34" x1="0" y1="0" x2="1" y2="0" gradientUnits="userSpaceOnUse" gradientTransform="matrix(87.3422,-11.9633,11.9633,87.3422,144.285,151.131)"><stop offset="0" style="stop-color:rgb(255,68,74);stop-opacity:1"/><stop offset="0.25" style="stop-color:rgb(253,61,37);stop-opacity:1"/><stop offset="0.6" style="stop-color:rgb(216,115,6);stop-opacity:1"/><stop offset="1" style="stop-color:rgb(253,136,42);stop-opacity:1"/></linearGradient>
        <linearGradient id="_Linear35" x1="0" y1="0" x2="1" y2="0" gradientUnits="userSpaceOnUse" gradientTransform="matrix(87.3422,-11.9633,11.9633,87.3422,144.285,151.131)"><stop offset="0" style="stop-color:rgb(255,68,74);stop-opacity:1"/><stop offset="0.25" style="stop-color:rgb(253,61,37);stop-opacity:1"/><stop offset="0.6" style="stop-color:rgb(216,115,6);stop-opacity:1"/><stop offset="1" style="stop-color:rgb(253,136,42);stop-opacity:1"/></linearGradient>
        <linearGradient id="_Linear36" x1="0" y1="0" x2="1" y2="0" gradientUnits="userSpaceOnUse" gradientTransform="matrix(87.3422,-11.9633,11.9633,87.3422,144.285,151.131)"><stop offset="0" style="stop-color:rgb(255,68,74);stop-opacity:1"/><stop offset="0.25" style="stop-color:rgb(253,61,37);stop-opacity:1"/><stop offset="0.6" style="stop-color:rgb(216,115,6);stop-opacity:1"/><stop offset="1" style="stop-color:rgb(253,136,42);stop-opacity:1"/></linearGradient>
        <linearGradient id="_Linear37" x1="0" y1="0" x2="1" y2="0" gradientUnits="userSpaceOnUse" gradientTransform="matrix(87.3422,-11.9633,11.9633,87.3422,144.285,151.131)"><stop offset="0" style="stop-color:rgb(255,68,74);stop-opacity:1"/><stop offset="0.25" style="stop-color:rgb(253,61,37);stop-opacity:1"/><stop offset="0.6" style="stop-color:rgb(216,115,6);stop-opacity:1"/><stop offset="1" style="stop-color:rgb(253,136,42);stop-opacity:1"/></linearGradient>
        <linearGradient id="_Linear38" x1="0" y1="0" x2="1" y2="0" gradientUnits="userSpaceOnUse" gradientTransform="matrix(87.3422,-11.9633,11.9633,87.3422,144.285,151.131)"><stop offset="0" style="stop-color:rgb(255,68,74);stop-opacity:1"/><stop offset="0.25" style="stop-color:rgb(253,61,37);stop-opacity:1"/><stop offset="0.6" style="stop-color:rgb(216,115,6);stop-opacity:1"/><stop offset="1" style="stop-color:rgb(253,136,42);stop-opacity:1"/></linearGradient>
        <linearGradient id="_Linear39" x1="0" y1="0" x2="1" y2="0" gradientUnits="userSpaceOnUse" gradientTransform="matrix(87.3422,-11.9633,11.9633,87.3422,144.285,151.131)"><stop offset="0" style="stop-color:rgb(255,68,74);stop-opacity:1"/><stop offset="0.25" style="stop-color:rgb(253,61,37);stop-opacity:1"/><stop offset="0.6" style="stop-color:rgb(216,115,6);stop-opacity:1"/><stop offset="1" style="stop-color:rgb(253,136,42);stop-opacity:1"/></linearGradient>
        <linearGradient id="_Linear40" x1="0" y1="0" x2="1" y2="0" gradientUnits="userSpaceOnUse" gradientTransform="matrix(87.3422,-11.9633,11.9633,87.3422,144.285,151.131)"><stop offset="0" style="stop-color:rgb(255,68,74);stop-opacity:1"/><stop offset="0.25" style="stop-color:rgb(253,61,37);stop-opacity:1"/><stop offset="0.6" style="stop-color:rgb(216,115,6);stop-opacity:1"/><stop offset="1" style="stop-color:rgb(253,136,42);stop-opacity:1"/></linearGradient>
        <radialGradient id="_Radial41" cx="0" cy="0" r="1" gradientUnits="userSpaceOnUse" gradientTransform="matrix(-69.2916,-47.9494,47.9494,-69.2916,98.5028,90.2632)"><stop offset="0" style="stop-color:rgb(55,163,127);stop-opacity:1"/><stop offset="0.6" style="stop-color:rgb(25,68,72);stop-opacity:1"/><stop offset="1" style="stop-color:rgb(0,108,99);stop-opacity:1"/></radialGradient>
        <radialGradient id="_Radial42" cx="0" cy="0" r="1" gradientUnits="userSpaceOnUse" gradientTransform="matrix(-69.2916,-47.9494,47.9494,-69.2916,98.5028,90.2632)"><stop offset="0" style="stop-color:rgb(55,163,127);stop-opacity:1"/><stop offset="0.6" style="stop-color:rgb(25,68,72);stop-opacity:1"/><stop offset="1" style="stop-color:rgb(0,108,99);stop-opacity:1"/></radialGradient>
        <radialGradient id="_Radial43" cx="0" cy="0" r="1" gradientUnits="userSpaceOnUse" gradientTransform="matrix(-69.2916,-47.9494,47.9494,-69.2916,98.5028,90.2632)"><stop offset="0" style="stop-color:rgb(55,163,127);stop-opacity:1"/><stop offset="0.6" style="stop-color:rgb(25,68,72);stop-opacity:1"/><stop offset="1" style="stop-color:rgb(0,108,99);stop-opacity:1"/></radialGradient>
        <radialGradient id="_Radial44" cx="0" cy="0" r="1" gradientUnits="userSpaceOnUse" gradientTransform="matrix(-69.2916,-47.9494,47.9494,-69.2916,98.5028,90.2632)"><stop offset="0" style="stop-color:rgb(55,163,127);stop-opacity:1"/><stop offset="0.6" style="stop-color:rgb(25,68,72);stop-opacity:1"/><stop offset="1" style="stop-color:rgb(0,108,99);stop-opacity:1"/></radialGradient>
        <radialGradient id="_Radial45" cx="0" cy="0" r="1" gradientUnits="userSpaceOnUse" gradientTransform="matrix(48.0385,-62.7378,62.7378,48.0385,111.013,89.8421)"><stop offset="0" style="stop-color:rgb(63,148,112);stop-opacity:1"/><stop offset="0.25" style="stop-color:rgb(61,132,98);stop-opacity:1"/><stop offset="0.5" style="stop-color:rgb(55,85,54);stop-opacity:1"/><stop offset="1" style="stop-color:rgb(72,127,62);stop-opacity:1"/></radialGradient>
        <radialGradient id="_Radial46" cx="0" cy="0" r="1" gradientUnits="userSpaceOnUse" gradientTransform="matrix(48.0385,-62.7378,62.7378,48.0385,111.013,89.8421)"><stop offset="0" style="stop-color:rgb(63,148,112);stop-opacity:1"/><stop offset="0.25" style="stop-color:rgb(61,132,98);stop-opacity:1"/><stop offset="0.5" style="stop-color:rgb(55,85,54);stop-opacity:1"/><stop offset="1" style="stop-color:rgb(72,127,62);stop-opacity:1"/></radialGradient>
        <radialGradient id="_Radial47" cx="0" cy="0" r="1" gradientUnits="userSpaceOnUse" gradientTransform="matrix(48.0385,-62.7378,62.7378,48.0385,111.013,89.8421)"><stop offset="0" style="stop-color:rgb(63,148,112);stop-opacity:1"/><stop offset="0.25" style="stop-color:rgb(61,132,98);stop-opacity:1"/><stop offset="0.5" style="stop-color:rgb(55,85,54);stop-opacity:1"/><stop offset="1" style="stop-color:rgb(72,127,62);stop-opacity:1"/></radialGradient>
        <radialGradient id="_Radial48" cx="0" cy="0" r="1" gradientUnits="userSpaceOnUse" gradientTransform="matrix(48.0385,-62.7378,62.7378,48.0385,111.013,89.8421)"><stop offset="0" style="stop-color:rgb(63,148,112);stop-opacity:1"/><stop offset="0.25" style="stop-color:rgb(61,132,98);stop-opacity:1"/><stop offset="0.5" style="stop-color:rgb(55,85,54);stop-opacity:1"/><stop offset="1" style="stop-color:rgb(72,127,62);stop-opacity:1"/></radialGradient>
        <radialGradient id="_Radial49" cx="0" cy="0" r="1" gradientUnits="userSpaceOnUse" gradientTransform="matrix(48.0385,-62.7378,62.7378,48.0385,111.013,89.8421)"><stop offset="0" style="stop-color:rgb(63,148,112);stop-opacity:1"/><stop offset="0.25" style="stop-color:rgb(61,132,98);stop-opacity:1"/><stop offset="0.5" style="stop-color:rgb(55,85,54);stop-opacity:1"/><stop offset="1" style="stop-color:rgb(72,127,62);stop-opacity:1"/></radialGradient>
        <radialGradient id="_Radial50" cx="0" cy="0" r="1" gradientUnits="userSpaceOnUse" gradientTransform="matrix(48.0385,-62.7378,62.7378,48.0385,111.013,89.8421)"><stop offset="0" style="stop-color:rgb(63,148,112);stop-opacity:1"/><stop offset="0.25" style="stop-color:rgb(61,132,98);stop-opacity:1"/><stop offset="0.5" style="stop-color:rgb(55,85,54);stop-opacity:1"/><stop offset="1" style="stop-color:rgb(72,127,62);stop-opacity:1"/></radialGradient>
        <linearGradient id="_Linear51" x1="0" y1="0" x2="1" y2="0" gradientUnits="userSpaceOnUse" gradientTransform="matrix(23.7485,-56.8042,56.8042,23.7485,106.342,73.8206)"><stop offset="0" style="stop-color:rgb(26,71,61);stop-opacity:1"/><stop offset="1" style="stop-color:rgb(31,105,73);stop-opacity:1"/></linearGradient>
        <linearGradient id="_Linear52" x1="0" y1="0" x2="1" y2="0" gradientUnits="userSpaceOnUse" gradientTransform="matrix(23.7485,-56.8042,56.8042,23.7485,106.342,73.8206)"><stop offset="0" style="stop-color:rgb(26,71,61);stop-opacity:1"/><stop offset="1" style="stop-color:rgb(31,105,73);stop-opacity:1"/></linearGradient>
        <linearGradient id="_Linear53" x1="0" y1="0" x2="1" y2="0" gradientUnits="userSpaceOnUse" gradientTransform="matrix(6.03066,-35.9076,35.9076,6.03066,106.229,163.441)"><stop offset="0" style="stop-color:rgb(151,159,52);stop-opacity:1"/><stop offset="1" style="stop-color:rgb(189,191,56);stop-opacity:1"/></linearGradient>
        <linearGradient id="_Linear54" x1="0" y1="0" x2="1" y2="0" gradientUnits="userSpaceOnUse" gradientTransform="matrix(58.8736,-30.1779,30.1779,58.8736,112.994,162.827)"><stop offset="0" style="stop-color:rgb(195,26,90);stop-opacity:1"/><stop offset="0.15" style="stop-color:rgb(201,34,82);stop-opacity:1"/><stop offset="0.21" style="stop-color:rgb(214,51,66);stop-opacity:1"/><stop offset="0.26" style="stop-color:rgb(226,67,50);stop-opacity:1"/><stop offset="0.41" style="stop-color:rgb(238,82,45);stop-opacity:1"/><stop offset="0.57" style="stop-color:rgb(250,96,41);stop-opacity:1"/><stop offset="1" style="stop-color:rgb(255,103,39);stop-opacity:1"/></linearGradient>
        <linearGradient id="_Linear55" x1="0" y1="0" x2="1" y2="0" gradientUnits="userSpaceOnUse" gradientTransform="matrix(-132.016,-162.861,162.861,-132.016,178.065,266.944)"><stop offset="0" style="stop-color:rgb(129,41,86);stop-opacity:1"/><stop offset="1" style="stop-color:rgb(66,55,81);stop-opacity:1"/></linearGradient>
        <radialGradient id="_Radial56" cx="0" cy="0" r="1" gradientUnits="userSpaceOnUse" gradientTransform="matrix(66.4673,80.2493,-42.6803,35.3504,61.8889,201.191)"><stop offset="0" style="stop-color:rgb(65,24,54);stop-opacity:1"/><stop offset="0.42" style="stop-color:rgb(77,29,61);stop-opacity:1"/><stop offset="1" style="stop-color:rgb(103,40,76);stop-opacity:1"/></radialGradient>
    </defs>
</svg>
