<?xml version="1.0" encoding="UTF-8" standalone="no"?><!DOCTYPE svg PUBLIC "-//W3C//DTD SVG 1.1//EN" "http://www.w3.org/Graphics/SVG/1.1/DTD/svg11.dtd"><svg width="100%" height="100%" viewBox="0 0 1387 289" version="1.1" xmlns="http://www.w3.org/2000/svg" xmlns:xlink="http://www.w3.org/1999/xlink" xml:space="preserve" xmlns:serif="http://www.serif.com/" style="fill-rule:evenodd;clip-rule:evenodd;stroke-linejoin:round;stroke-miterlimit:2;"><rect id="Logo-Long-Name-Side" serif:id="Logo Long Name Side" x="0" y="0" width="1386.35" height="288.292" style="fill:none;"/><g id="Tree-2-Logo" serif:id="Tree 2 Logo"><g id="Foliage"><g><path d="M86.444,149.679c-4.167,0.716 -11.629,0.963 -14.896,0.493c-5.521,-0.794 -9.527,-2.529 -16.244,-7.035c-4.138,-2.776 -4.07,-2.592 -2.301,-6.158c2.173,-4.378 5.477,-7.615 10.144,-9.935c4.295,-2.134 6.073,-1.861 11.457,1.765c2.34,1.576 5.532,4.768 6.399,6.4c0.558,1.05 0.578,1.243 0.16,1.509c-0.716,0.456 -9.98,3.487 -13.279,4.346l-2.88,0.749l3.52,-0.126c2.63,-0.094 4.491,-0.382 7.36,-1.142c2.471,-0.654 4.702,-1.034 6.258,-1.066c2.41,-0.05 2.436,-0.042 7.36,2.404c5.831,2.896 7.113,3.367 18.156,6.679c-11.043,-3.312 -25.381,1.833 -21.214,1.117Z" style="fill:url(#_Linear1);"/><path d="M46.038,137.209c-3.034,-3.32 -4.317,-8.267 -3.644,-14.055c0.877,-7.546 3.407,-13.146 8.167,-18.081c1.752,-1.817 3.866,-3.218 4.887,-3.237c0.2,-0.004 0.544,0.965 0.765,2.153c0.972,5.222 3.232,10.406 6.631,15.209c1.14,1.61 2.119,3.077 2.176,3.259c0.056,0.183 -1.313,1.015 -3.043,1.85c-5.023,2.426 -9.151,6.671 -11.98,12.322c-0.826,1.65 -1.335,2.32 -1.765,2.32c-0.332,-0 -1.319,-0.783 -2.194,-1.74Z" style="fill:url(#_Linear2);"/></g><g><path d="M111.407,143.148c-2.442,-2.683 -5.004,-5.409 -6.698,-7.079c-4.602,-4.539 -7.593,-8.286 -10.574,-13.251c-2.379,-3.96 -3.631,-7.025 -5.016,-12.282c-0.843,-3.197 -1.009,-4.476 -1.13,-8.707c-0.078,-2.728 -0.023,-5.131 0.122,-5.338c0.635,-0.911 19.008,-1.023 21.889,-0.133c-1.549,-0.479 4.209,5.473 8.764,8.384c-4.555,-2.911 -4.339,-2.853 -6.185,-1.668c-4.523,2.902 -6.775,7.188 -6.775,12.893c0,1.552 -0.094,2.822 -0.21,2.822c-0.522,-0 -2.476,-1.795 -3.657,-3.36c-2.094,-2.773 -3.633,-7.478 -4.029,-12.32l-0.223,-2.72l-0.443,1.44c-0.851,2.761 -0.096,7.896 1.713,11.646c0.421,0.871 0.68,1.668 0.577,1.769c-0.103,0.102 -1.938,-0.722 -4.078,-1.83c-2.472,-1.28 -3.54,-1.715 -2.93,-1.193c1.659,1.419 11.548,8.112 13.1,8.866c0.915,0.444 1.526,0.969 1.596,1.371c1.157,6.655 2.412,10.988 4.359,15.051c0.661,1.378 1.823,3.133 3.198,4.897c-1.751,-2.144 -3.36,-4.292 -4.343,-5.621c-4.202,-5.683 -6.347,-10.139 -7.331,-11.605c-0.652,-0.971 3.523,12.65 5.843,15.228c0.832,0.924 1.661,1.846 2.461,2.74Z" style="fill:url(#_Linear3);"/><path d="M101.324,142.932c-11.378,-2.44 -19.882,-10.39 -23.822,-22.27c-0.877,-2.644 -1.891,-8.342 -1.722,-9.677c0.1,-0.791 0.195,-0.739 2.344,1.273c3.575,3.347 6.752,5.497 9.816,6.645c1.401,0.525 1.613,0.767 3.336,3.823c3.71,6.577 7.264,11.232 12.678,16.607c1.898,1.884 3.45,3.576 3.45,3.76c0,0.473 -3.562,0.379 -6.08,-0.161Z" style="fill:url(#_Linear4);"/><path d="M74.508,125.203c-2.388,-1.437 -4.035,-2.718 -6.582,-5.122c-4.859,-4.585 -7.471,-9.464 -9.686,-18.092c-0.728,-2.837 -0.805,-3.655 -0.674,-7.2c0.172,-4.686 0.903,-7.242 3.478,-12.172c2.155,-4.126 4.232,-6.864 8.294,-10.932c3.948,-3.953 8.168,-6.863 11.514,-7.939c3.63,-1.167 4.425,-0.674 5.242,3.253c1.065,5.116 2.873,9.531 5.741,14.021c0.615,0.963 1.054,1.856 0.974,1.985c-0.079,0.128 -2.077,0.238 -4.439,0.242c-6.472,0.014 -12.69,1.561 -14.39,3.581c-0.446,0.53 -1.136,1.998 -1.533,3.262c-0.652,2.072 -0.722,2.928 -0.712,8.699c0.015,8.985 1.291,16.904 3.97,24.637c0.539,1.555 0.944,2.864 0.9,2.909c-0.045,0.044 -0.988,-0.465 -2.097,-1.132Z" style="fill:url(#_Linear5);"/><path d="M85.761,115.605c-4.754,-2.386 -9.393,-7.595 -11.037,-12.392c-0.629,-1.837 -0.748,-2.821 -0.745,-6.184c0.005,-6.266 0.884,-8.346 3.985,-9.44c3.684,-1.3 13.045,-1.922 16.599,-1.102c2.384,0.549 7.514,3.42 10.188,5.7c1.484,1.266 1.189,1.351 -5.187,1.495c-3.344,0.076 -7.211,0.256 -8.594,0.401c-3.062,0.32 -3.131,0.228 -2.2,-2.934c0.368,-1.25 0.623,-2.318 0.566,-2.375c-0.188,-0.188 -2.018,3.265 -2.594,4.895c-0.413,1.165 -0.604,2.92 -0.706,6.463c-0.15,5.231 0.399,9.154 2.014,14.388c0.399,1.292 0.613,2.349 0.476,2.349c-0.136,-0 -1.38,-0.569 -2.765,-1.264Z" style="fill:url(#_Linear6);"/></g><g><path d="M117.883,136.572c-2.535,-0.905 -5.227,-3.798 -6.761,-7.266c-0.817,-1.848 -2.033,-6.869 -1.736,-7.166c0.094,-0.094 1.234,-0.006 2.534,0.196c3.512,0.545 10.964,0.216 14.684,-0.649c7.334,-1.704 12.492,0.061 12.475,4.269c-0.007,1.635 -1.091,3.616 -2.5,4.565c-2.116,1.426 -5.92,1.665 -8.664,0.544c-0.599,-0.245 -1.12,-0.407 -1.157,-0.361c-0.037,0.047 -0.318,0.851 -0.624,1.787c-1.199,3.669 -4.639,5.37 -8.251,4.081Z" style="fill:url(#_Radial7);"/><path d="M112.16,120.545c-2.731,-0.544 -4.054,-1.237 -4.31,-2.26c-0.113,-0.447 -0.142,-1.999 -0.066,-3.449c0.262,-4.991 2.489,-8.175 6.542,-9.353c2.114,-0.615 3.716,-0.344 5.042,0.851c1.218,1.098 0.987,1.683 -1.113,2.816c-2.079,1.123 -3.811,2.326 -3.811,2.649c0,0.155 0.54,0.012 1.2,-0.32c2.345,-1.177 5.383,-1.982 7.642,-2.023c2.007,-0.037 2.48,0.082 4.461,1.126c3.995,2.104 5.099,3.799 4.223,6.482c-0.322,0.989 -0.702,1.39 -1.846,1.953c-3.457,1.699 -13.021,2.513 -17.964,1.528Z" style="fill:url(#_Radial8);"/></g><g><path d="M148.173,89.451c-1.176,-1.411 -2.626,-2.973 -4.44,-4.841c-5.403,-5.565 -6.147,-6.511 -7.731,-9.838c-1.758,-3.693 -2.44,-6.348 -2.483,-9.662c-0.019,-1.451 -0.14,-2.639 -0.269,-2.64c-0.454,-0.003 -0.726,1.791 -0.703,4.639c0.034,4.38 1.207,7.807 4.467,13.046c0.773,1.241 1.338,2.364 1.256,2.496c-0.306,0.496 -6.748,-1.324 -10.066,-2.844c-2.654,-1.216 -5.825,-3.39 -7.339,-5.032c-2.021,-2.193 -3.462,-5.5 -3.828,-8.786c-0.624,-5.601 0.901,-12.16 2.828,-12.16c0.347,-0 3.376,1.373 6.731,3.052c4.618,2.311 7.013,3.741 9.854,5.886c7.05,5.32 7.528,6.006 11.258,16.149c1.223,3.327 2.392,6.207 2.597,6.4c0.285,0.268 0.308,-0.297 0.097,-2.367c-0.813,-7.962 0.381,-12.845 4.616,-18.88c1.614,-2.3 4.31,-5.612 5.275,-6.48c1.197,-1.077 -0.045,-0.549 -1.58,0.671c-3.278,2.607 -6.379,6.506 -8.76,11.014l-1.504,2.847l-0.643,-1.066c-2.939,-4.88 -3.594,-11.671 -1.553,-16.127c1.78,-3.889 6.702,-9.739 8.193,-9.739c1.181,-0 5.292,4.377 6.789,7.23c2.928,5.578 2.841,8.776 -0.388,14.21c-2.427,4.084 -4.707,8.865 -5.339,11.2c0.639,-3.433 2.771,-10.542 1.924,-9.142c-0.611,1.009 -5.528,9.439 -5.958,15.196c-0.077,1.041 -0.402,1.997 -0.787,2.197c-0.384,0.199 -0.828,-0.353 -0.97,-0.487c-0.205,-0.194 -6.064,-7.734 -8.145,-9.711c-1.687,-1.602 5.425,12.158 6.601,13.569Z" style="fill:url(#_Radial9);"/><path d="M109.964,68.031c-5.694,-4.132 -9.889,-6.659 -13.721,-8.266c-2.066,-0.866 -2.919,-1.384 -2.919,-1.772c0,-0.832 1.634,-2.913 3.558,-4.532c4.961,-4.175 10.476,-6.672 14.734,-6.672c2.062,-0 2.259,0.065 3.465,1.155c2.014,1.819 2.192,2.941 1.015,6.388c-1.413,4.138 -1.757,6.617 -1.542,11.124c0.101,2.141 0.279,4.361 0.394,4.933c0.115,0.572 0.084,1.033 -0.068,1.024c-0.152,-0.009 -2.364,-1.531 -4.916,-3.382Z" style="fill:url(#_Radial10);"/></g><path d="M139.696,61.784c-3.253,-2.725 -5.625,-4.186 -12.335,-7.594c-3.191,-1.622 -6.049,-3.221 -6.35,-3.553c-1.863,-2.06 3.626,-7.371 10.393,-10.057c3.687,-1.463 6.877,-2.111 10.393,-2.111c5.101,-0 7.506,0.968 8.825,3.554c0.76,1.49 0.623,1.865 -1.558,4.286c-2.004,2.224 -4.297,5.803 -5.261,8.211c-0.949,2.373 -1.662,6.605 -1.372,8.149c0.111,0.594 0.069,1.08 -0.093,1.08c-0.163,-0 -1.351,-0.885 -2.642,-1.965Z" style="fill:url(#_Linear11);"/><g><path d="M202.234,92.894c2.014,-1.355 7.724,-5.345 9.594,-5.959c6.091,-2.002 20.788,-1.126 23.944,1.428c0.692,0.559 0.76,0.886 0.856,4.077c0.127,4.249 -0.461,7.325 -2.031,10.632c-2.095,4.41 -5.387,8.2 -9.87,11.361c-2.419,1.706 -5.003,3.212 -5.003,2.916c0,-0.122 0.498,-1.683 1.107,-3.471c0.609,-1.787 1.329,-4.528 1.6,-6.091c0.61,-3.515 0.629,-9.586 0.04,-12.358c-0.506,-2.379 -1.766,-5.404 -2.506,-6.016c-0.429,-0.353 -0.413,-0.124 0.108,1.549c0.336,1.08 0.611,2.383 0.611,2.895c0,0.898 -0.054,0.932 -1.52,0.929c-0.836,-0.002 -3.32,-0.207 -5.52,-0.457c-2.2,-0.25 -5.328,-0.68 -6.96,-0.671c-2.4,0.013 -3.877,1.11 -5.814,2.195c2.906,-2.293 5.044,-4.127 4.894,-4.371c-0.228,-0.368 -1.441,0.176 -3.53,1.412Z" style="fill:url(#_Radial12);"/><path d="M194.446,136.014c3.802,-3.654 6.081,-7.876 7.66,-14.188c0.252,-1.006 0.58,-1.42 1.524,-1.92c0.662,-0.351 1.926,-1.218 2.809,-1.927c0.883,-0.71 2.52,-1.684 3.638,-2.165c2.371,-1.021 6.317,-3.276 6.636,-3.792c0.121,-0.196 0.092,-0.297 -0.064,-0.225c-3.048,1.404 -4.125,1.838 -5.807,2.338c-1.101,0.328 -2.078,0.52 -2.171,0.428c-0.093,-0.093 0.113,-1.232 0.457,-2.532c0.78,-2.944 1.11,-6.187 0.823,-8.1c-0.29,-1.932 -0.787,-1.872 -0.787,0.096c0,2.152 -0.83,6.71 -1.593,8.747c-0.74,1.977 -2.235,3.906 -3.556,4.589l-0.931,0.482l0,-3.141c0,-5.457 -1.18,-8.456 -4.592,-11.672l-1.948,-1.836l1.43,-1.46c1.997,-2.038 3.985,-3.236 6.395,-3.854c1.922,-0.492 2.507,-0.492 8.47,0.008c3.523,0.295 6.765,0.564 7.205,0.598l0.8,0.061l-0.021,5.28c-0.025,6.011 -0.344,7.657 -2.544,13.12c-2.256,5.602 -5.08,9.859 -9.518,14.347c-4.558,4.61 -9.703,7.616 -13.566,7.927l-2.191,0.177l1.442,-1.386Z" style="fill:url(#_Radial13);"/><path d="M206.924,134.828c0,-0.121 0.875,-1.079 1.945,-2.129c2.119,-2.083 4.92,-5.559 7.771,-9.647c1.629,-2.336 2.09,-2.762 4.294,-3.966c3.57,-1.951 7.501,-4.866 10.709,-7.943c3.161,-3.031 3.219,-3.002 2.337,1.145c-2.453,11.53 -10.705,19.853 -21.776,21.964c-3.346,0.638 -5.28,0.849 -5.28,0.576Z" style="fill:url(#_Radial14);"/><path d="M187.525,134.329c-0.943,-0.411 -2.675,-2.301 -2.686,-2.931c-0.003,-0.159 -0.127,-0.482 -0.276,-0.718c-0.221,-0.347 -0.521,-0.302 -1.583,0.24c-3.037,1.549 -7.576,0.387 -9.181,-2.35c-1.527,-2.607 -0.83,-5.882 1.511,-7.097c1.686,-0.875 5.047,-0.926 9.054,-0.136c4.713,0.929 9.516,1.131 12.96,0.547c1.496,-0.254 2.767,-0.419 2.825,-0.367c0.254,0.229 -1.084,4.357 -2.089,6.443c-2.431,5.047 -7.095,7.866 -10.535,6.369Z" style="fill:url(#_Radial15);"/><path d="M232.204,124.116c0,-0.062 0.704,-1.61 1.565,-3.44c2.108,-4.481 3.001,-7.466 4.42,-14.762c1.093,-5.619 1.2,-6.647 1.207,-11.605c0.009,-6.692 -0.273,-7.883 -2.083,-8.806c-3.505,-1.788 -12.832,-3.084 -19.448,-2.702l-3.959,0.228l1.479,-2.008c2.288,-3.109 4.126,-6.766 5.948,-11.832c1.96,-5.452 2.536,-6.504 3.863,-7.054c1.362,-0.564 4.205,-0.005 7.194,1.414c7.359,3.495 14.602,10.647 18.628,18.393c2.399,4.615 3.303,7.774 3.504,12.246l0.167,3.719l-1.289,2.841c-0.708,1.562 -1.823,4.065 -2.476,5.561c-2.446,5.602 -2.777,6.254 -4.474,8.804c-0.955,1.436 -2.731,3.549 -3.947,4.696c-2.092,1.973 -2.407,2.148 -5.855,3.253c-3.387,1.085 -4.444,1.336 -4.444,1.054Z" style="fill:url(#_Radial16);"/><path d="M187.084,120.509c-8.735,-1.614 -9.6,-2.042 -9.6,-4.747c0,-0.894 0.283,-1.454 1.279,-2.536c1.37,-1.485 4.491,-3.323 6.363,-3.745c1.701,-0.384 5.458,0.203 8.255,1.289c1.358,0.528 2.526,0.902 2.596,0.832c0.239,-0.239 -3.293,-2.083 -5.613,-2.931c-1.276,-0.467 -2.32,-0.948 -2.32,-1.069c0,-0.397 1.411,-1.527 2.72,-2.178c2.029,-1.01 3.167,-1.137 5.112,-0.571c3.594,1.044 5.38,4.185 5.377,9.456c-0.002,4.214 -0.207,4.606 -2.874,5.467c-1.688,0.546 -3.106,0.723 -6.335,0.792c-2.288,0.048 -4.52,0.022 -4.96,-0.059Z" style="fill:url(#_Radial17);"/></g><g><path d="M206.924,137.79c0.777,-0.04 1.784,-0.119 2.878,-0.205c2.682,-0.451 12.949,-3.738 13.954,-3.939c0.622,-0.124 1.793,0.064 3.195,0.513c2.557,0.82 10.345,1.258 12.293,0.692c1.02,-0.296 0.911,-0.327 -1.213,-0.354c-3.843,-0.047 -8.575,-1.25 -10.404,-2.645c-0.534,-0.407 -0.427,-0.572 1.44,-2.219c2.575,-2.272 2.768,-2.367 6.715,-3.324c5.526,-1.338 8.965,-0.951 14.231,1.603c4.142,2.009 8.431,5.613 8.431,7.085c0,0.222 -1.006,0.991 -2.235,1.708c-7.428,4.339 -15.19,6.178 -22.885,5.423c-1.584,-0.156 -4.536,-0.718 -6.56,-1.249c-2.024,-0.531 -5.192,-1.339 -7.04,-1.795c-1.37,-0.338 -6.089,0.425 -8.805,0.621c-2.066,0.324 -3.999,0.639 -4.955,0.835c2.552,-0.523 9.807,-1.734 12.303,-1.966c1.157,-0.108 4.318,-0.232 4.643,-0.269c1.606,-0.185 -3.692,-0.702 -4.613,-0.752c-2.325,-0.127 -8.139,0.071 -11.373,0.237Z" style="fill:url(#_Linear18);"/><path d="M264.044,134.818c-0.704,-0.329 -2.736,-1.962 -4.515,-3.631c-4.481,-4.202 -7.951,-6.456 -12.445,-8.084c-0.88,-0.319 -1.729,-0.693 -1.888,-0.831c-0.16,-0.14 0.154,-0.753 0.711,-1.387c1.712,-1.95 4.257,-5.933 5.515,-8.63c1.113,-2.387 1.642,-3.951 3.011,-8.906c0.476,-1.721 0.572,-1.84 1.473,-1.84c2.383,-0 5.938,2.759 8.483,6.583c3.311,4.976 4.935,10.265 4.935,16.072c0,4.731 -1.55,10.062 -3.18,10.934c-0.76,0.407 -0.574,0.431 -2.1,-0.28Z" style="fill:url(#_Linear19);"/></g><g><path d="M109.914,186.248c-1.389,0.018 -3.894,0.682 -4.95,1.184c-5.581,2.65 -9.245,6.094 -13.029,12.338c-1.532,2.528 -4.173,8.404 -4.521,10.059c-0.192,0.912 -0.165,0.897 0.534,-0.285c1.45,-2.452 5.643,-8.765 5.946,-8.952c0.175,-0.108 0.403,0.515 0.524,1.428c0.284,2.143 1.451,5.298 2.785,7.534c1.449,2.426 4.643,5.588 7.087,7.016c1.097,0.64 2.051,1.218 2.12,1.284c0.594,0.566 -3.887,2.938 -6.859,3.63c-2.192,0.511 -6.346,0.53 -8.476,0.039c-4.74,-1.094 -9.264,-4.399 -11.274,-8.237c-1.811,-3.46 -2.298,-5.509 -2.267,-9.537c0.023,-3.046 0.161,-3.918 1.02,-6.473c1.458,-4.335 3.55,-7.302 6.263,-8.885c1.348,-0.786 3.475,-1.425 6.405,-1.919c0.172,-0.029 0.348,-0.058 0.526,-0.086c-3.202,0.506 16.777,-0.12 18.166,-0.138Z" style="fill:url(#_Radial20);"/><path d="M108.524,190.246c-3.55,1.483 -4.951,2.976 -2.252,2.401c2.597,-0.554 3.973,0.86 3.484,3.582c-0.11,0.616 -0.812,2.344 -1.56,3.84c-1.618,3.239 -2.17,4.953 -2.012,6.245c0.104,0.86 0.17,0.78 0.658,-0.805c0.809,-2.629 4.053,-7.981 4.977,-8.213c1.142,-0.286 2.17,0.348 3.079,1.899c1.835,3.132 1.686,6.943 -0.442,11.274c-1.623,3.301 -3.779,5.6 -5.252,5.6c-2.544,-0 -7.635,-3.667 -9.82,-7.072c-2.249,-3.504 -3.122,-7.94 -2.21,-11.225c0.26,-0.934 1.114,-2.308 2.161,-3.601c0.328,0.414 2.193,-1.426 9.189,-3.925Z" style="fill:url(#_Radial21);"/><path d="M66.722,212.868c-7.521,-1.198 -14.299,-6.201 -17.559,-12.959c-1.766,-3.661 -2.267,-5.815 -2.453,-10.56c-0.218,-5.535 -0.29,-5.441 4.105,-5.361c3.93,0.071 7.91,0.602 15.982,2.132c3.275,0.62 7.588,1.282 9.586,1.47c1.998,0.189 3.673,0.384 3.723,0.434c0.05,0.05 -0.285,0.584 -0.744,1.188c-1.126,1.48 -2.775,5.054 -3.68,7.977c-1.051,3.391 -1.086,10.012 -0.069,13.2c0.379,1.188 0.565,2.237 0.413,2.331c-0.524,0.324 -7.505,0.435 -9.304,0.148Z" style="fill:url(#_Radial22);"/></g><g><path d="M210.284,178.797c2.888,2.158 6.07,5.951 7.62,9.083l1.34,2.71l-0.013,4.019c-0.014,4.273 -0.533,6.6 -2.214,9.912c-2.038,4.017 -5.983,7.983 -9.613,9.664c-3.164,1.465 -3.336,1.461 -4.86,-0.102c-4.674,-4.791 -6.692,-13.24 -4.505,-18.854c2.141,-5.495 4.777,-7.425 6.828,-5c2.417,2.858 3.258,7.407 2.231,12.08c-1.162,5.291 -0.942,5.681 0.632,1.12c0.636,-1.841 0.928,-3.424 1.04,-5.633c0.178,-3.521 -0.002,-4.254 -2.072,-8.447c-1.207,-2.446 -1.398,-3.095 -1.27,-4.301c0.16,-1.501 0.728,-2.156 2.136,-2.46c1.309,-0.283 1.671,-0.394 1.367,-0.756c1.674,1.561 5.773,5.71 5.689,5.279c-0.487,-2.518 -3.622,-7.78 -4.336,-8.314Z" style="fill:url(#_Radial23);"/><path d="M216.379,221.161c-1.048,-0.157 -2.416,-0.45 -3.04,-0.652c-1.824,-0.587 -5.218,-2.176 -5.826,-2.726c-0.523,-0.474 -0.399,-0.612 1.891,-2.107c6.461,-4.217 10.359,-9.905 12.074,-17.616c0.303,-1.359 0.584,-2.471 0.625,-2.471c0.041,-0 0.608,0.774 1.26,1.721c1.746,2.534 7.691,8.143 10.386,9.799c2.211,1.358 2.335,1.495 2.189,2.42c-0.459,2.912 -4.28,7.635 -7.706,9.525c-3.3,1.821 -8.087,2.672 -11.853,2.107Z" style="fill:url(#_Radial24);"/><path d="M238.284,211.953c0,-0.152 0.42,-1.201 0.932,-2.332c1.538,-3.392 1.979,-5.528 2.171,-10.52c0.156,-4.053 0.093,-4.988 -0.496,-7.317c-1.078,-4.265 -3.759,-9.941 -5.687,-12.041l-0.68,-0.741l1.96,-0.204c6.169,-0.643 9.924,-1.252 13.711,-2.225c7.438,-1.91 11.7,-2.761 14.193,-2.834c2.089,-0.061 2.487,0.016 2.886,0.56c0.809,1.1 1.148,3.071 1.141,6.632c-0.015,8.16 -2.864,15.422 -8.791,22.403c-3.343,3.939 -8.989,7.456 -13.5,8.41c-2.425,0.513 -7.84,0.657 -7.84,0.209Z" style="fill:url(#_Radial25);"/><path d="M235.862,205.776c-2.188,-1.172 -5.038,-3.216 -6.817,-4.89c-2.419,-2.277 -4.043,-4.685 -7.176,-10.64c-2.851,-5.421 -5.907,-10.17 -7.567,-11.761c-0.538,-0.515 -0.978,-1.073 -0.978,-1.24c0,-0.394 3.602,-0.068 8.342,0.754c2.012,0.349 4.954,0.726 6.538,0.839c2.792,0.198 2.914,0.24 4,1.378c1.753,1.837 4.389,6.597 5.5,9.933c0.942,2.831 1.014,3.359 1.036,7.68c0.024,4.66 -0.413,7.62 -1.226,8.295c-0.277,0.229 -0.767,0.126 -1.652,-0.348Z" style="fill:url(#_Radial26);"/></g><g><path d="M76.844,184.065c-1.408,-0.152 -3.136,-0.399 -3.84,-0.549c-1.154,-0.246 -1.29,-0.378 -1.384,-1.35c-0.133,-1.374 0.401,-4.448 1.23,-7.083c0.779,-2.478 3.243,-7.519 3.633,-7.432c0.153,0.035 0.809,1.259 1.457,2.72c2.219,5.002 4.867,8.403 9.112,11.701c1.679,1.306 1.815,1.494 1.234,1.709c-1.066,0.394 -8.677,0.583 -11.442,0.284Z" style="fill:url(#_Linear27);"/><path d="M61.484,182.131c-2.112,-0.316 -5.784,-0.803 -8.16,-1.081c-6.1,-0.714 -7.102,-0.994 -8.744,-2.439c-1.658,-1.46 -3.361,-4.708 -4.435,-8.462c-0.641,-2.241 -0.733,-3.279 -0.734,-8.32c-0.001,-5.023 0.093,-6.105 0.736,-8.451c1.617,-5.906 4.947,-11.229 7.024,-11.229c1.03,-0 3.432,1.268 8.026,4.238c2.174,1.405 5.198,3.21 6.72,4.011c1.522,0.8 2.806,1.482 2.853,1.515c0.047,0.033 -0.415,0.891 -1.027,1.907c-2.472,4.105 -3.729,10.119 -3.064,14.668c0.639,4.379 1.991,7.722 4.843,11.981l1.554,2.32l-0.876,-0.041c-0.482,-0.022 -2.604,-0.3 -4.716,-0.617Z" style="fill:url(#_Linear28);"/><path d="M94.284,182.289c-3.484,-0.751 -6.559,-2.48 -9.302,-5.231c-1.332,-1.336 -2.869,-3.221 -3.416,-4.189c-1.236,-2.187 -2.642,-6.314 -2.642,-7.754c0,-2.892 4.615,-8.428 8.679,-10.412c3.501,-1.709 3.318,-1.972 3.34,4.806c0.018,5.514 0.069,5.991 0.917,8.56c1.866,5.649 5.053,10.428 8.735,13.1c0.919,0.666 1.579,1.303 1.466,1.416c-0.365,0.365 -5.643,0.164 -7.777,-0.296Z" style="fill:url(#_Linear29);"/><path d="M105.774,181.887c-5.402,-2.199 -10.195,-8.215 -12.149,-15.252c-1.067,-3.839 -0.992,-3.925 1.726,-1.975c2.663,1.911 4.768,2.895 7.776,3.638l2.082,0.514l1.459,2.908c2.025,4.035 3.033,5.458 5.635,7.944c1.241,1.186 2.173,2.239 2.071,2.341c-0.101,0.102 -1.747,0.251 -3.657,0.332c-2.889,0.123 -3.72,0.048 -4.943,-0.45Z" style="fill:url(#_Linear30);"/><path d="M67.577,178.741c-1.496,-1.959 -3.19,-5.463 -3.845,-7.952c-1.439,-5.474 0.029,-12.816 3.299,-16.5l1.21,-1.365l3.273,0.372c1.8,0.205 5.227,0.373 7.615,0.373l4.342,-0l-2.42,2.572c-5.438,5.78 -9.406,12.952 -11.387,20.58l-0.901,3.472l-1.186,-1.552Z" style="fill:url(#_Linear31);"/><path d="M116.479,179.591c-4.34,-0.98 -9.432,-8.408 -10.403,-15.173c-0.692,-4.823 0.186,-7.702 2.695,-8.841c1.73,-0.785 2.868,-0.782 5.45,0.015c2.573,0.795 4.925,2.376 5.71,3.84c1.043,1.946 0.717,4.993 -0.686,6.396c-0.646,0.646 -0.622,1.281 0.049,1.281c0.832,-0 2.343,1.536 3.068,3.119c1.406,3.073 0.569,7.034 -1.808,8.552c-1.349,0.862 -2.678,1.126 -4.075,0.811Z" style="fill:url(#_Linear32);"/><path d="M100.819,166.032c-2.459,-0.914 -3.979,-1.84 -6.295,-3.835c-1.751,-1.508 -1.84,-1.657 -1.84,-3.078c0,-0.822 0.224,-2.247 0.497,-3.167c0.613,-2.064 1.668,-2.796 4.458,-3.095c1.784,-0.191 7.185,0.244 7.808,0.629c0.139,0.086 -0.094,1.192 -0.519,2.458c-0.692,2.063 -0.761,2.743 -0.668,6.573l0.104,4.273l-0.8,-0.018c-0.44,-0.009 -1.675,-0.342 -2.745,-0.74Z" style="fill:url(#_Linear33);"/></g><g><path d="M226.72,175.425c-2.435,-0.233 -3.156,-0.445 -3.156,-0.929c0,-0.14 1.142,-1.152 2.537,-2.249c4.074,-3.203 6.294,-6.34 8.957,-12.657l0.404,-0.959l0.66,0.799c1.744,2.113 4.367,9.38 4.638,12.846c0.204,2.618 0.188,2.63 -4.328,3.117c-3.578,0.386 -5.931,0.394 -9.712,0.032Z" style="fill:url(#_Linear34);"/><path d="M245.004,174.367c0,-0.056 0.831,-1.202 1.846,-2.547c2.389,-3.164 4.081,-6.572 4.913,-9.894c0.545,-2.171 0.638,-3.302 0.51,-6.177c-0.187,-4.187 -0.881,-6.434 -2.967,-9.61c-0.784,-1.195 -1.39,-2.194 -1.344,-2.22c0.045,-0.026 1.09,-0.458 2.322,-0.96c1.232,-0.503 4.202,-1.898 6.601,-3.102c5.952,-2.987 6.972,-2.938 10.097,0.481c4.31,4.715 6.46,13.519 5.132,21.011c-0.764,4.312 -1.869,6.707 -3.802,8.247c-0.282,0.224 -2.509,0.696 -4.95,1.049c-2.441,0.352 -7.301,1.357 -10.801,2.232c-5.737,1.435 -7.557,1.794 -7.557,1.49Z" style="fill:url(#_Linear35);"/><path d="M208.524,173.578c0,-0.138 0.89,-0.674 1.978,-1.19c3.937,-1.87 7.859,-6.535 9.827,-11.687c1.714,-4.489 2.096,-6.682 2.106,-12.071c0.006,-3.035 0.13,-4.879 0.329,-4.877c0.684,0.004 3.665,1.949 5.358,3.496c0.978,0.894 2.476,2.647 3.33,3.897c1.475,2.158 1.552,2.378 1.548,4.397c-0.008,4.286 -2.692,9.801 -6.332,13.012c-2.136,1.885 -6.796,4.197 -9.664,4.795c-2.358,0.492 -8.48,0.656 -8.48,0.228Z" style="fill:url(#_Linear36);"/><path d="M201.726,171.456l-2.158,-0.709l1.725,-1.489c2.272,-1.962 4.735,-5.285 6.006,-8.103l1.026,-2.274l2.259,-0.566c2.585,-0.647 6.405,-2.568 8.471,-4.258l1.411,-1.155l-0.211,1.319c-0.116,0.726 -0.742,2.799 -1.392,4.608c-2.061,5.737 -5.387,9.823 -9.944,12.218c-2.655,1.395 -3.963,1.47 -7.193,0.409Z" style="fill:url(#_Linear37);"/><path d="M242.43,168.177c-2.851,-8.586 -7.652,-17.916 -11.149,-21.669l-1.157,-1.241l3.36,0.194c1.848,0.107 5.04,0.042 7.093,-0.145c2.685,-0.244 3.917,-0.241 4.387,0.011c1.087,0.582 3.594,4.4 4.278,6.515c1.89,5.843 -0.222,14.225 -4.64,18.415l-1.126,1.068l-1.046,-3.148Z" style="fill:url(#_Linear38);"/><path d="M195.033,168.239c-1.404,-0.793 -2.26,-2.534 -2.433,-4.946c-0.203,-2.839 0.588,-4.747 2.457,-5.927l1.308,-0.826l-0.978,-0.876c-3.25,-2.911 -0.718,-9.02 4.35,-10.493c3.377,-0.982 5.798,-0.299 7.427,2.094c0.617,0.907 0.72,1.477 0.72,3.984c0,3.403 -0.559,5.855 -2.047,8.98c-2.283,4.793 -5.68,8.158 -8.452,8.374c-0.941,0.073 -1.818,-0.062 -2.352,-0.364Z" style="fill:url(#_Linear39);"/><path d="M209.377,156.019c0.133,-0.501 0.231,-2.566 0.218,-4.59c-0.02,-3.028 -0.167,-4.12 -0.834,-6.162c-0.446,-1.365 -0.69,-2.556 -0.544,-2.647c0.75,-0.463 5.553,-0.785 7.364,-0.493c3.776,0.608 5.103,2.134 5.103,5.868c0,2.666 -0.329,3.223 -3.257,5.515c-2.244,1.755 -4.474,2.784 -6.917,3.191l-1.373,0.229l0.24,-0.911Z" style="fill:url(#_Linear40);"/></g><g><path d="M136.88,108.985c-3.341,-3.024 -4.79,-6.515 -3.316,-7.992c1.112,-1.114 4.299,-2.966 6.249,-3.631c4.545,-1.551 8.13,-1.106 10.283,1.278c1.322,1.463 1.631,2.382 1.607,4.789c-0.018,1.93 -0.561,3.215 -1.943,4.596c-1.455,1.455 -2.653,1.94 -4.756,1.925c-2.779,-0.019 -4.524,-1.117 -5.047,-3.175c-0.087,-0.344 -0.177,0.094 -0.2,0.974c-0.047,1.798 -0.315,3.04 -0.656,3.04c-0.125,-0 -1.125,-0.812 -2.221,-1.804Z" style="fill:url(#_Radial41);"/><path d="M128.794,104.444c-5.787,-3.014 -7.798,-4.826 -9.262,-8.341c-2.314,-5.56 -1.141,-11.748 2.682,-14.14c1.31,-0.82 2.25,-0.683 5.743,0.834l2.724,1.183l-0.998,1.937c-0.98,1.901 -0.999,2.02 -0.994,6.444c0.005,4.448 0.022,4.558 1.331,8.348c0.729,2.112 1.426,4.092 1.549,4.4c0.326,0.817 -0.151,0.703 -2.775,-0.665Z" style="fill:url(#_Radial42);"/><path d="M131.258,98.549c-1.477,-3.549 -1.45,-8.803 0.062,-11.74c0.859,-1.669 0.983,-1.774 1.965,-1.677c1.912,0.19 7.667,2.196 9.296,3.242c1.784,1.145 2.903,2.684 2.903,3.993c0,1.555 -0.537,2.054 -2.967,2.756c-4.151,1.2 -6.118,1.965 -8.289,3.226c-1.174,0.682 -2.226,1.24 -2.336,1.24c-0.11,-0 -0.395,-0.468 -0.634,-1.04Z" style="fill:url(#_Radial43);"/><path d="M114.092,95.475c-3.86,-2.927 -6.523,-6.424 -7.827,-10.279c-1.028,-3.038 -1.835,-9.319 -1.677,-13.047c0.069,-1.628 0.022,-2.96 -0.104,-2.96c-1.179,-0 -1.556,11.315 -0.519,15.583c0.307,1.267 0.559,2.451 0.559,2.632c0,0.873 -5.327,-2.36 -7.789,-4.726c-4.745,-4.563 -7.891,-11.683 -7.891,-17.861c0,-2.289 0.096,-2.764 0.676,-3.344c0.857,-0.858 1.869,-0.716 5.524,0.774c3.525,1.437 8.171,4.217 12.36,7.394c2.967,2.251 5.905,4.225 11.76,7.902c0.924,0.581 1.68,1.209 1.68,1.398c0,0.188 -0.435,0.869 -0.966,1.513c-2.735,3.319 -4.129,8.501 -3.641,13.538c0.161,1.67 0.206,3.037 0.098,3.037c-0.107,-0 -1.117,-0.699 -2.243,-1.554Z" style="fill:url(#_Radial44);"/></g><g><path d="M165.795,109.93c-0.31,-0.473 -0.634,-1.489 -0.72,-2.258c-0.119,-1.053 -0.273,-1.354 -0.623,-1.22c-3.571,1.37 -6.238,-0.795 -6.299,-5.116c-0.034,-2.35 0.556,-3.395 2.561,-4.542c1.649,-0.943 4.571,-0.976 6.918,-0.078c1.989,0.761 2.793,1.384 3.91,3.031c1.92,2.828 0.281,8.124 -3.23,10.439c-1.24,0.817 -1.855,0.755 -2.517,-0.256Z" style="fill:url(#_Radial45);"/><path d="M173.744,106.389c0.096,-0.308 0.752,-2.094 1.458,-3.969c2.871,-7.625 3.074,-14.074 0.549,-17.384c-0.455,-0.597 -0.827,-1.156 -0.827,-1.243c0,-0.268 3.499,-1.484 4.269,-1.484c1.256,-0 3.993,1.596 5.317,3.099c1.892,2.15 2.67,4.452 2.683,7.941c0.019,5.057 -1.703,7.886 -6.55,10.766c-2.033,1.208 -5.895,2.834 -6.731,2.834c-0.188,-0 -0.264,-0.252 -0.168,-0.56Z" style="fill:url(#_Radial46);"/><path d="M172.906,98.666c-0.964,-1.458 -3.8,-3.076 -7.014,-4.003c-2.109,-0.608 -2.557,-1.189 -2.185,-2.837c0.565,-2.506 3.44,-4.908 7.581,-6.333l1.7,-0.585l1.095,1.279c1.265,1.478 1.801,3.276 1.801,6.04c0,2.424 -0.825,6.164 -1.559,7.071c-0.55,0.679 -0.551,0.679 -1.419,-0.632Z" style="fill:url(#_Radial47);"/><path d="M199.038,91.239c0.118,-0.424 0.493,-2.39 0.833,-4.37c0.515,-2.997 0.859,-4.042 2.055,-6.24c1.511,-2.779 3.086,-7.04 3.067,-8.297c-0.007,-0.468 -0.689,0.559 -1.843,2.777c-1.007,1.936 -2.111,3.935 -2.454,4.443l-0.623,0.924l-0.227,-0.764c-0.125,-0.42 -0.47,-1.575 -0.767,-2.567c-0.297,-0.993 -0.951,-2.425 -1.454,-3.184c-0.724,-1.095 -0.835,-1.474 -0.536,-1.835c0.208,-0.25 2.284,-1.718 4.614,-3.262c6.024,-3.991 11.634,-6.62 15.413,-7.225c1.232,-0.197 1.336,-0.152 1.671,0.71c0.209,0.536 0.279,1.698 0.17,2.785c-0.827,8.2 -6.618,16.948 -15.692,23.701c-4.573,3.404 -4.493,3.359 -4.227,2.404Z" style="fill:url(#_Radial48);"/><path d="M191.727,70.069c1.903,-4.168 2.349,-9.952 1.091,-14.167c-1.295,-4.34 -1.384,-5.006 -0.843,-6.289c1.827,-4.33 10.518,-3.389 18.284,1.979c2.59,1.79 4.934,4.111 5.753,5.694c0.615,1.189 0.782,1.059 -3.489,2.706c-3.786,1.46 -7.962,3.586 -11.519,5.864c-4.453,2.852 -9.503,5.893 -9.788,5.893c-0.141,-0 0.089,-0.756 0.511,-1.68Z" style="fill:url(#_Radial49);"/><path d="M189.644,95.795c0,-5.526 -1.839,-10.449 -5.167,-13.828l-1.973,-2.004l0.77,-0.626c0.802,-0.652 9.842,-5.14 11.075,-5.497c0.568,-0.165 0.86,0.031 1.509,1.012c1.476,2.23 2.173,4.78 2.215,8.097c0.068,5.374 -1.433,9.391 -4.567,12.218c-1.037,0.936 -2.33,1.962 -2.874,2.28l-0.988,0.578l0,-2.23Z" style="fill:url(#_Radial50);"/></g><g><path d="M157.95,92.015c-0.007,-0.146 -0.143,-1.778 -0.3,-3.626c-0.811,-9.516 2.016,-17.396 7.808,-21.769c2.239,-1.69 10.196,-6.234 15.706,-8.968c4.957,-2.46 7.225,-3.206 8.089,-2.662c1.385,0.875 1.903,6.896 0.917,10.679c-0.832,3.189 -2.012,5.306 -4.325,7.759c-3.164,3.354 -6.11,5.186 -13.494,8.391l-3.07,1.333l2.011,-4.022c2.626,-5.25 3.646,-8.77 3.811,-13.141c0.138,-3.682 0.202,-3.796 -1.338,2.399c-0.876,3.524 -2.866,8.015 -4.841,10.924c-0.704,1.036 -2.552,3.394 -4.107,5.24c-1.555,1.846 -3.613,4.293 -4.575,5.437c-1.739,2.069 -2.265,2.535 -2.292,2.026Z" style="fill:url(#_Linear51);"/><path d="M165.707,61.749c0.413,-1.779 0.104,-5.096 -0.689,-7.399c-0.751,-2.184 -3.156,-6.316 -4.912,-8.44c-0.692,-0.837 -1.384,-1.853 -1.539,-2.259c-0.494,-1.297 0.871,-3.163 3.237,-4.425c0.921,-0.491 1.801,-0.594 4.96,-0.58c3.551,0.016 4.096,0.105 7.237,1.177c4.542,1.55 7.575,3.386 10.741,6.503c2.524,2.484 3.268,3.736 2.857,4.807c-0.107,0.278 -1.526,1.101 -3.155,1.829c-4.549,2.032 -10.222,5.002 -14.707,7.7c-2.238,1.346 -4.13,2.447 -4.206,2.447c-0.077,-0 0.003,-0.612 0.176,-1.36Z" style="fill:url(#_Linear52);"/></g><path id="Leaves" d="M127.91,149.444c-0.209,-0.272 -0.543,-0.617 -0.818,-0.944c-1.008,-1.198 -1.564,-3.255 -1.31,-4.844c0.249,-1.556 1.49,-4.033 2.729,-5.443c1.271,-1.448 3.411,-2.9 3.962,-2.688c0.652,0.25 1.884,5.167 1.871,7.462c-0.008,1.333 -0.223,2.386 -0.662,3.247c-0.612,1.2 -2.557,3.059 -3.308,3.266c-0.014,-0.059 -0.025,-0.114 -0.034,-0.164c-0.092,-0.504 -0.387,-1.504 -0.487,-2.74c-0.139,-1.724 -0.087,-3.716 -0.252,-3.779c-0.532,-0.205 -1.891,4.251 -1.691,6.627Zm48.935,-5.149c-0.332,-0.253 -0.747,-0.667 -0.835,-1.202c-0.21,-1.286 0.115,-3.483 0.908,-4.831c0.48,-0.817 1.34,-1.878 1.91,-2.358c1.336,-1.124 3.691,-2.268 4.009,-1.947c0.355,0.358 0.217,3.96 -0.214,5.56c-0.439,1.633 -1.957,3.614 -3.537,4.22c-0.523,0.201 -0.9,0.405 -1.159,0.603c-0.062,-0.143 -0.092,-0.311 -0.065,-0.507c0.09,-0.654 0.166,-1.657 0.636,-2.727c0.906,-2.065 1.906,-2.91 1.672,-3.146c-0.318,-0.32 -2.975,2.813 -3.319,6.065c-0,0 0.005,0.105 -0.006,0.27Zm10.037,25.922c-0.297,-0.216 -1.006,-0.528 -1.428,-0.84c-1.218,-0.901 -2.193,-2.963 -2.206,-4.668c-0.017,-2.091 0.739,-7.52 1.047,-7.52c0.596,-0 4.328,3.915 5.113,5.364c1.598,2.946 1.007,5.647 -0.239,7.023c-0.215,0.237 -0.612,0.504 -0.958,0.713c0.129,-0.525 0.288,-1.37 0.14,-2.274c-0.571,-3.479 -2.31,-6.513 -2.794,-6.513c-0.295,-0 3.076,6.135 1.325,8.715Z" style="fill:url(#_Linear53);"/></g><g id="Trunk"><path id="Trunk-3" serif:id="Trunk 3" d="M210.284,178.797c0.714,0.534 3.849,5.796 4.336,8.314c0.095,0.492 -5.248,-4.973 -6.233,-5.764c-1.492,-1.199 -6.833,-3.866 -9.623,-4.805c-3.385,-1.139 -8.62,-1.438 -11.686,-0.667c-3.434,0.864 -5.979,2.335 -8.684,5.022c-4.969,4.934 -7.338,11.991 -8.64,25.732l-0.425,4.48l-0.385,-6.214c-0.432,-6.968 -1.043,-11.626 -2.21,-16.853l-0.792,-3.547l1.371,-1.453c0.754,-0.8 2.372,-2.568 3.595,-3.931c1.224,-1.362 2.99,-3.043 3.926,-3.734c2.616,-1.933 6.555,-3.704 9.241,-4.155c1.303,-0.219 2.409,-0.546 2.546,-0.686c2.315,-2.349 -1.372,-9.034 -1.064,-9.034c0.484,-0 2.223,3.034 2.794,6.513c0.243,1.482 -0.339,2.804 -0.263,2.824c0.865,0.227 3.418,0.392 3.418,0.392c6.181,0.709 13.602,3.7 18.778,7.566Zm-47.311,-7.227c-2.072,-8.383 -2.894,-13.421 -2.188,-13.421c0.144,-0 1.548,-1.219 3.12,-2.708c3.108,-2.944 6.635,-5.675 9.955,-7.708c0,-0 1.722,-1.4 2.116,-1.641c0.94,-0.576 0.875,-2.067 0.875,-2.067c0.344,-3.252 3.001,-6.385 3.319,-6.065c0.234,0.236 -0.766,1.081 -1.672,3.146c-0.47,1.07 -0.546,2.073 -0.636,2.727c-0.107,0.778 0.682,1.111 0.846,1.213c0.164,0.101 1.12,-0.127 2.475,-0.665c9.505,-3.776 19.19,-6.256 25.741,-6.591c3.234,-0.166 9.048,-0.364 11.373,-0.237c0.921,0.05 6.219,0.567 4.613,0.752c-0.325,0.037 -3.486,0.161 -4.643,0.269c-2.496,0.232 -9.751,1.443 -12.303,1.966c-5.459,1.119 -10.302,2.6 -16.48,5.038c-8.314,3.282 -12.757,5.998 -16.983,10.383c-4.827,5.008 -7.31,10.029 -8.258,16.702l-0.365,2.567l-0.905,-3.66Z" style="fill:url(#_Linear54);"/><path id="Trunk-2" serif:id="Trunk 2" d="M118.764,104.742c-4.555,-2.911 -10.313,-8.863 -8.764,-8.384c0.636,0.196 3.372,1.747 6.08,3.447c2.708,1.699 7.372,4.451 10.364,6.115c6.135,3.411 8.548,5.066 13.061,8.954c4.828,4.16 9.206,9.653 11.627,14.59c0.487,0.992 0.987,1.805 1.112,1.805c0.283,-0 0.712,-1.984 1.452,-6.72c0.799,-5.118 0.813,-17.999 0.024,-22.45c-0.994,-5.61 -2.07,-8.473 -5.547,-12.648c-1.176,-1.411 -8.288,-15.171 -6.601,-13.569c2.081,1.977 7.94,9.517 8.145,9.711c0.142,0.134 0.586,0.686 0.97,0.487c0.385,-0.2 0.71,-1.156 0.787,-2.197c0.43,-5.757 5.347,-14.187 5.958,-15.196c0.847,-1.4 -1.285,5.709 -1.924,9.142c-1.076,5.781 -0.793,12.104 -0.034,16c0.291,1.496 0.97,4.997 1.509,7.78c1.248,6.453 1.74,12.814 1.459,18.86c-0.12,2.596 -0.145,4.72 -0.054,4.72c0.091,-0 2.516,-2.349 5.39,-5.219c6.802,-6.792 8.26,-7.872 25.066,-18.557c10.237,-6.509 16.378,-10.807 16.92,-9.931c0.309,0.5 -9.01,7.689 -14.84,11.814c-13.414,9.491 -15.191,10.862 -19.045,14.693c-8.56,8.507 -12.55,17.1 -13.61,29.305c-0.61,7.024 0.328,15.266 3.019,26.535c4.952,20.74 5.542,24.838 5.948,41.28c0.296,11.985 0.593,14.785 2.136,20.124c2.74,9.486 8.551,16.814 16.272,20.519c1.408,0.675 4.806,2.762 7.983,3.81c3.177,1.048 7.75,2.368 10.008,3.025c2.28,0.664 5.457,1.875 7.099,2.332c8.597,2.391 11.114,3.958 15.483,7.565c0.843,0.696 1.472,1.326 1.399,1.4c-0.074,0.073 -1.34,-0.363 -2.813,-0.969c-3.947,-1.625 -6.448,-2.325 -12.216,-3.42c-2.851,-0.542 -7.367,-1.456 -9.764,-1.682c-4.992,-0.471 -9.209,-0.787 -18.907,-4.847c-12.715,-5.322 -15.464,-11.617 -16.303,-11.936c-0.904,-0.343 3.123,6.89 6.546,10.063c2.469,2.29 5.35,3.595 10.171,6.876c5.811,3.954 13.241,10.831 11.633,10.767c-0.232,-0.01 -3.158,-1.419 -6.502,-3.133c-3.344,-1.714 -8.018,-4.043 -10.388,-5.177c-4.811,-2.3 -8.758,-3.851 -11.777,-6.786c-3.596,-3.495 -4.849,-5.575 -5.991,-8.064c-1.299,-2.835 -1.416,-6.716 -1.156,-8.841c0.403,-3.289 2.088,-9.877 2.095,-15.786c0.004,-3.014 -0.176,-6.511 -0.405,-7.84c-1.378,-8.032 -4.241,-15.545 -8.329,-21.855c-1.827,-2.82 -1.987,-3.216 -2.258,-5.594c-1.023,-8.971 -6.552,-19.936 -13.759,-27.285c-5.581,-5.692 -11.983,-9.839 -20.025,-12.97c-6.321,-2.462 -15.489,-5.492 -18.382,-6.077c-3.098,-0.626 -7.705,-0.498 -12.642,0.351c-4.167,0.716 10.171,-4.429 21.214,-1.117c9.052,2.714 10.626,3.105 10.626,2.638c0,-0.392 -4.616,-5.544 -9.338,-10.792c-2.32,-2.578 -6.495,-16.199 -5.843,-15.228c0.984,1.466 3.129,5.922 7.331,11.605c1.843,2.493 5.889,7.867 8.948,10.688c2.247,2.073 10.39,7.909 10.671,7.647c0.049,-0.045 -0.419,-1.142 -1.04,-2.438c-0.621,-1.295 -1.012,-2.545 -1.075,-2.991c-0.327,-2.298 1.112,-7.086 1.663,-6.874c0.165,0.063 0.113,2.055 0.252,3.779c0.1,1.236 0.395,2.236 0.487,2.74c0.128,0.71 0.745,2.431 1.471,3.633c1.214,2.007 3.398,4.114 8.978,8.66c4.614,3.76 7.729,6.985 11.52,11.929c1.438,1.875 2.654,3.372 2.701,3.327c0.048,-0.046 -0.279,-1.436 -0.726,-3.089c-1.591,-5.883 -3.092,-16.077 -3.684,-25.021c-0.567,-8.561 -1.962,-13.878 -5.412,-20.621c-4.588,-8.966 -10.682,-14.656 -22.584,-21.085c-0.704,-0.38 -2.432,-1.428 -3.84,-2.327Z" style="fill:url(#_Linear55);"/><path id="Trunk-1" serif:id="Trunk 1" d="M132.358,283.529c-2.574,-3.553 -2.707,-10.93 -0.283,-15.681c0.346,-0.679 0.472,-1.219 0.284,-1.219c-0.587,-0 -8.713,3.997 -10.614,5.221c-2.053,1.322 -4.567,3.356 -8.658,7.004c-3.641,3.247 -4.335,3.267 -2.119,0.061c5.104,-7.383 9.899,-13.02 20.036,-16.769c1.7,-0.629 3.998,-1.988 4.4,-2.305c5.738,-4.547 9.783,-10.611 9.377,-10.465c-0.275,0.098 -8.629,8.356 -12.455,10.242c-3.202,1.578 -10.956,4.928 -14.682,6.37c-6.732,2.607 -8.177,2.972 -15.2,3.839c-6.504,0.803 -8.568,1.253 -12.252,2.672c-1.533,0.591 -3.076,1.178 -3.428,1.306c-0.352,0.127 0.08,-0.433 0.96,-1.244c2.923,-2.696 7.768,-4.715 16.242,-6.767c3.234,-0.784 13.48,-4.862 16.384,-6.239c11.269,-5.345 12.207,-7.593 16.716,-12.064c5.952,-5.901 9.533,-13.056 10.798,-21.576c0.275,-1.853 0.499,-4.214 0.498,-5.247c-0.005,-4.755 -1.553,-10.831 -3.859,-15.145c-3.46,-6.473 -9.969,-12.108 -17.012,-14.725c-6.108,-2.27 -14.187,-2.259 -18.967,-0.552c-6.996,2.499 -8.861,4.339 -9.189,3.925c-0.08,-0.101 2.303,-2.4 2.69,-2.692c2.377,-1.788 5.607,-3.142 8.237,-3.977c1.225,-0.388 2.216,-0.836 2.203,-0.996c-0.014,-0.16 -1.161,-0.276 -2.551,-0.258c-1.389,0.018 -21.368,0.644 -18.166,0.138c2.448,-0.387 5.422,-0.68 8.936,-0.881c1.848,-0.106 5.304,-0.412 7.68,-0.68c8.961,-1.01 16.28,-0.48 22.614,1.64c10.909,3.65 18.881,10.764 23.947,21.37c5.303,11.104 6.458,21.706 4.001,36.714c-0.895,5.459 -1.003,6.76 -0.864,10.4c0.268,7.018 1.853,11.072 5.947,15.216c2.627,2.658 5.641,4.733 11.789,8.114c3.916,2.154 4.974,2.929 3.553,2.605c-0.411,-0.094 -1.755,-0.322 -2.987,-0.508c-5.596,-0.842 -12.386,-3.481 -16.193,-6.294c-5.759,-4.254 -10.304,-12.516 -10.349,-18.813c-0.014,-1.985 0.115,-2.756 0.574,-3.433c0.653,-0.962 2.778,-6.836 2.751,-7.604c-0.009,-0.266 -0.343,0.397 -0.743,1.473c-0.4,1.075 -1.137,2.659 -1.637,3.52c-1.568,2.696 -6.63,9.811 -11.611,16.318c-3.754,4.906 -5.662,10.685 -5.453,16.517c0.056,1.545 -0.006,2.81 -0.137,2.809c-0.131,0 -0.675,-0.603 -1.208,-1.34Zm16.854,-1.857c-2.467,-2.615 -4.656,-6.811 -5.461,-10.467c-0.932,-4.233 -0.003,-10.065 0.734,-11.27c0.306,-0.502 3.766,-6.266 4.521,-6.372c0.353,-0.05 0.024,6.252 -0.008,6.554c-0.08,0.784 -0.218,2.208 -0.478,3.792c-1.16,7.059 -0.138,14.354 2.569,18.338c0.437,0.644 0.795,1.281 0.795,1.416c0,0.616 -0.717,0.081 -2.672,-1.991Z" style="fill:url(#_Radial56);"/></g><path id="Circle" d="M72.942,267.342c-40.867,-25.745 -67.849,-69.936 -67.849,-120.088c-0,-79.383 67.6,-143.832 150.864,-143.832c83.265,0 150.865,64.449 150.865,143.832c0,50.152 -26.982,94.343 -67.849,120.088c-7.566,-3.028 -15.729,-5.653 -24.375,-7.815c43.548,-20.443 73.636,-62.943 73.636,-112.273c0,-69.375 -59.51,-125.244 -132.277,-125.244c-72.767,0 -132.276,55.869 -132.276,125.244c-0,49.33 30.088,91.83 73.636,112.273c-8.646,2.162 -16.809,4.787 -24.375,7.815Z" style="fill:#32c2d8;"/></g><g id="Name---Zen-Maru" serif:id="Name - Zen Maru" transform="matrix(152.452,0,0,152.452,1383.42,197.809)"></g><text x="349.951px" y="197.809px" style="font-family:'ZenMaruGothic-Bold', 'Zen Maru Gothic';font-weight:700;font-size:152.452px;fill:#215c79;">KINDER MINDS</text><defs><linearGradient id="_Linear1" x1="0" y1="0" x2="1" y2="0" gradientUnits="userSpaceOnUse" gradientTransform="matrix(-23.8215,12.5708,-12.5708,-23.8215,88.1388,140.265)"><stop offset="0" style="stop-color:#2e314a;stop-opacity:1"/><stop offset="1" style="stop-color:#312c49;stop-opacity:1"/></linearGradient><linearGradient id="_Linear2" x1="0" y1="0" x2="1" y2="0" gradientUnits="userSpaceOnUse" gradientTransform="matrix(-23.8215,12.5708,-12.5708,-23.8215,88.1388,140.265)"><stop offset="0" style="stop-color:#2e314a;stop-opacity:1"/><stop offset="1" style="stop-color:#312c49;stop-opacity:1"/></linearGradient><linearGradient id="_Linear3" x1="0" y1="0" x2="1" y2="0" gradientUnits="userSpaceOnUse" gradientTransform="matrix(47.9771,77.702,-77.702,47.9771,57.5135,63.1919)"><stop offset="0" style="stop-color:#235764;stop-opacity:1"/><stop offset="1" style="stop-color:#2d3144;stop-opacity:1"/></linearGradient><linearGradient id="_Linear4" x1="0" y1="0" x2="1" y2="0" gradientUnits="userSpaceOnUse" gradientTransform="matrix(47.9771,77.702,-77.702,47.9771,57.5135,63.1919)"><stop offset="0" style="stop-color:#235764;stop-opacity:1"/><stop offset="1" style="stop-color:#2d3144;stop-opacity:1"/></linearGradient><linearGradient id="_Linear5" x1="0" y1="0" x2="1" y2="0" gradientUnits="userSpaceOnUse" gradientTransform="matrix(47.9771,77.702,-77.702,47.9771,57.5135,63.1919)"><stop offset="0" style="stop-color:#235764;stop-opacity:1"/><stop offset="1" style="stop-color:#2d3144;stop-opacity:1"/></linearGradient><linearGradient id="_Linear6" x1="0" y1="0" x2="1" y2="0" gradientUnits="userSpaceOnUse" gradientTransform="matrix(47.9771,77.702,-77.702,47.9771,57.5135,63.1919)"><stop offset="0" style="stop-color:#235764;stop-opacity:1"/><stop offset="1" style="stop-color:#2d3144;stop-opacity:1"/></linearGradient><radialGradient id="_Radial7" cx="0" cy="0" r="1" gradientUnits="userSpaceOnUse" gradientTransform="matrix(22.5717,8.39389,-8.39389,22.5717,107.788,114.763)"><stop offset="0" style="stop-color:#25745b;stop-opacity:1"/><stop offset="1" style="stop-color:#4fb68b;stop-opacity:1"/></radialGradient><radialGradient id="_Radial8" cx="0" cy="0" r="1" gradientUnits="userSpaceOnUse" gradientTransform="matrix(22.5717,8.39389,-8.39389,22.5717,107.788,114.763)"><stop offset="0" style="stop-color:#25745b;stop-opacity:1"/><stop offset="1" style="stop-color:#4fb68b;stop-opacity:1"/></radialGradient><radialGradient id="_Radial9" cx="0" cy="0" r="1" gradientUnits="userSpaceOnUse" gradientTransform="matrix(-32.5926,-46.4615,46.4615,-32.5926,153.236,89.4513)"><stop offset="0" style="stop-color:#204049;stop-opacity:1"/><stop offset="1" style="stop-color:#007163;stop-opacity:1"/></radialGradient><radialGradient id="_Radial10" cx="0" cy="0" r="1" gradientUnits="userSpaceOnUse" gradientTransform="matrix(-32.5926,-46.4615,46.4615,-32.5926,153.236,89.4513)"><stop offset="0" style="stop-color:#204049;stop-opacity:1"/><stop offset="1" style="stop-color:#007163;stop-opacity:1"/></radialGradient><linearGradient id="_Linear11" x1="0" y1="0" x2="1" y2="0" gradientUnits="userSpaceOnUse" gradientTransform="matrix(-14.0311,-21.2873,21.2873,-14.0311,142.37,61.4921)"><stop offset="0" style="stop-color:#00886d;stop-opacity:1"/><stop offset="1" style="stop-color:#00b089;stop-opacity:1"/></linearGradient><radialGradient id="_Radial12" cx="0" cy="0" r="1" gradientUnits="userSpaceOnUse" gradientTransform="matrix(69.8377,-47.5538,47.5538,69.8377,175.317,125.555)"><stop offset="0" style="stop-color:#fa454e;stop-opacity:1"/><stop offset="0.42" style="stop-color:#9b2e25;stop-opacity:1"/><stop offset="0.68" style="stop-color:#686e2b;stop-opacity:1"/><stop offset="1" style="stop-color:#84b536;stop-opacity:1"/></radialGradient><radialGradient id="_Radial13" cx="0" cy="0" r="1" gradientUnits="userSpaceOnUse" gradientTransform="matrix(69.8377,-47.5538,47.5538,69.8377,175.317,125.555)"><stop offset="0" style="stop-color:#fa454e;stop-opacity:1"/><stop offset="0.42" style="stop-color:#9b2e25;stop-opacity:1"/><stop offset="0.68" style="stop-color:#686e2b;stop-opacity:1"/><stop offset="1" style="stop-color:#84b536;stop-opacity:1"/></radialGradient><radialGradient id="_Radial14" cx="0" cy="0" r="1" gradientUnits="userSpaceOnUse" gradientTransform="matrix(69.8377,-47.5538,47.5538,69.8377,175.317,125.555)"><stop offset="0" style="stop-color:#fa454e;stop-opacity:1"/><stop offset="0.42" style="stop-color:#9b2e25;stop-opacity:1"/><stop offset="0.68" style="stop-color:#686e2b;stop-opacity:1"/><stop offset="1" style="stop-color:#84b536;stop-opacity:1"/></radialGradient><radialGradient id="_Radial15" cx="0" cy="0" r="1" gradientUnits="userSpaceOnUse" gradientTransform="matrix(69.8377,-47.5538,47.5538,69.8377,175.317,125.555)"><stop offset="0" style="stop-color:#fa454e;stop-opacity:1"/><stop offset="0.42" style="stop-color:#9b2e25;stop-opacity:1"/><stop offset="0.68" style="stop-color:#686e2b;stop-opacity:1"/><stop offset="1" style="stop-color:#84b536;stop-opacity:1"/></radialGradient><radialGradient id="_Radial16" cx="0" cy="0" r="1" gradientUnits="userSpaceOnUse" gradientTransform="matrix(69.8377,-47.5538,47.5538,69.8377,175.317,125.555)"><stop offset="0" style="stop-color:#fa454e;stop-opacity:1"/><stop offset="0.42" style="stop-color:#9b2e25;stop-opacity:1"/><stop offset="0.68" style="stop-color:#686e2b;stop-opacity:1"/><stop offset="1" style="stop-color:#84b536;stop-opacity:1"/></radialGradient><radialGradient id="_Radial17" cx="0" cy="0" r="1" gradientUnits="userSpaceOnUse" gradientTransform="matrix(69.8377,-47.5538,47.5538,69.8377,175.317,125.555)"><stop offset="0" style="stop-color:#fa454e;stop-opacity:1"/><stop offset="0.42" style="stop-color:#9b2e25;stop-opacity:1"/><stop offset="0.68" style="stop-color:#686e2b;stop-opacity:1"/><stop offset="1" style="stop-color:#84b536;stop-opacity:1"/></radialGradient><linearGradient id="_Linear18" x1="0" y1="0" x2="1" y2="0" gradientUnits="userSpaceOnUse" gradientTransform="matrix(56.2983,-20.0137,20.0137,56.2983,213.906,137.4)"><stop offset="0" style="stop-color:#945f23;stop-opacity:1"/><stop offset="1" style="stop-color:#d9c53b;stop-opacity:1"/></linearGradient><linearGradient id="_Linear19" x1="0" y1="0" x2="1" y2="0" gradientUnits="userSpaceOnUse" gradientTransform="matrix(56.2983,-20.0137,20.0137,56.2983,213.906,137.4)"><stop offset="0" style="stop-color:#945f23;stop-opacity:1"/><stop offset="1" style="stop-color:#d9c53b;stop-opacity:1"/></linearGradient><radialGradient id="_Radial20" cx="0" cy="0" r="1" gradientUnits="userSpaceOnUse" gradientTransform="matrix(-64.1861,13.1482,-13.1482,-64.1861,114.382,196.362)"><stop offset="0" style="stop-color:#fb437e;stop-opacity:1"/><stop offset="0.54" style="stop-color:#971e60;stop-opacity:1"/><stop offset="0.63" style="stop-color:#5b214f;stop-opacity:1"/><stop offset="0.7" style="stop-color:#6b225a;stop-opacity:1"/><stop offset="0.79" style="stop-color:#7c2465;stop-opacity:1"/><stop offset="1" style="stop-color:#84256a;stop-opacity:1"/></radialGradient><radialGradient id="_Radial21" cx="0" cy="0" r="1" gradientUnits="userSpaceOnUse" gradientTransform="matrix(-64.1861,13.1482,-13.1482,-64.1861,114.382,196.362)"><stop offset="0" style="stop-color:#fb437e;stop-opacity:1"/><stop offset="0.54" style="stop-color:#971e60;stop-opacity:1"/><stop offset="0.63" style="stop-color:#5b214f;stop-opacity:1"/><stop offset="0.7" style="stop-color:#6b225a;stop-opacity:1"/><stop offset="0.79" style="stop-color:#7c2465;stop-opacity:1"/><stop offset="1" style="stop-color:#84256a;stop-opacity:1"/></radialGradient><radialGradient id="_Radial22" cx="0" cy="0" r="1" gradientUnits="userSpaceOnUse" gradientTransform="matrix(-64.1861,13.1482,-13.1482,-64.1861,114.382,196.362)"><stop offset="0" style="stop-color:#fb437e;stop-opacity:1"/><stop offset="0.54" style="stop-color:#971e60;stop-opacity:1"/><stop offset="0.63" style="stop-color:#5b214f;stop-opacity:1"/><stop offset="0.7" style="stop-color:#6b225a;stop-opacity:1"/><stop offset="0.79" style="stop-color:#7c2465;stop-opacity:1"/><stop offset="1" style="stop-color:#84256a;stop-opacity:1"/></radialGradient><radialGradient id="_Radial23" cx="0" cy="0" r="1" gradientUnits="userSpaceOnUse" gradientTransform="matrix(89.6348,0,0,89.6348,187.417,195.589)"><stop offset="0" style="stop-color:#ff8148;stop-opacity:1"/><stop offset="0.26" style="stop-color:#fc7243;stop-opacity:1"/><stop offset="0.34" style="stop-color:#f54d37;stop-opacity:1"/><stop offset="0.42" style="stop-color:#ee2329;stop-opacity:1"/><stop offset="0.55" style="stop-color:#fc2c28;stop-opacity:1"/><stop offset="0.64" style="stop-color:#eb222a;stop-opacity:1"/><stop offset="1" style="stop-color:#ff4c2b;stop-opacity:1"/></radialGradient><radialGradient id="_Radial24" cx="0" cy="0" r="1" gradientUnits="userSpaceOnUse" gradientTransform="matrix(89.6348,0,0,89.6348,187.417,195.589)"><stop offset="0" style="stop-color:#ff8148;stop-opacity:1"/><stop offset="0.26" style="stop-color:#fc7243;stop-opacity:1"/><stop offset="0.34" style="stop-color:#f54d37;stop-opacity:1"/><stop offset="0.42" style="stop-color:#ee2329;stop-opacity:1"/><stop offset="0.55" style="stop-color:#fc2c28;stop-opacity:1"/><stop offset="0.64" style="stop-color:#eb222a;stop-opacity:1"/><stop offset="1" style="stop-color:#ff4c2b;stop-opacity:1"/></radialGradient><radialGradient id="_Radial25" cx="0" cy="0" r="1" gradientUnits="userSpaceOnUse" gradientTransform="matrix(89.6348,0,0,89.6348,187.417,195.589)"><stop offset="0" style="stop-color:#ff8148;stop-opacity:1"/><stop offset="0.26" style="stop-color:#fc7243;stop-opacity:1"/><stop offset="0.34" style="stop-color:#f54d37;stop-opacity:1"/><stop offset="0.42" style="stop-color:#ee2329;stop-opacity:1"/><stop offset="0.55" style="stop-color:#fc2c28;stop-opacity:1"/><stop offset="0.64" style="stop-color:#eb222a;stop-opacity:1"/><stop offset="1" style="stop-color:#ff4c2b;stop-opacity:1"/></radialGradient><radialGradient id="_Radial26" cx="0" cy="0" r="1" gradientUnits="userSpaceOnUse" gradientTransform="matrix(89.6348,0,0,89.6348,187.417,195.589)"><stop offset="0" style="stop-color:#ff8148;stop-opacity:1"/><stop offset="0.26" style="stop-color:#fc7243;stop-opacity:1"/><stop offset="0.34" style="stop-color:#f54d37;stop-opacity:1"/><stop offset="0.42" style="stop-color:#ee2329;stop-opacity:1"/><stop offset="0.55" style="stop-color:#fc2c28;stop-opacity:1"/><stop offset="0.64" style="stop-color:#eb222a;stop-opacity:1"/><stop offset="1" style="stop-color:#ff4c2b;stop-opacity:1"/></radialGradient><linearGradient id="_Linear27" x1="0" y1="0" x2="1" y2="0" gradientUnits="userSpaceOnUse" gradientTransform="matrix(-83.3895,-7.63478,7.63478,-83.3895,122.801,170.103)"><stop offset="0" style="stop-color:#d9497a;stop-opacity:1"/><stop offset="0.28" style="stop-color:#ab406a;stop-opacity:1"/><stop offset="0.61" style="stop-color:#342840;stop-opacity:1"/><stop offset="0.79" style="stop-color:#4d2d56;stop-opacity:1"/><stop offset="1" style="stop-color:#542e5c;stop-opacity:1"/></linearGradient><linearGradient id="_Linear28" x1="0" y1="0" x2="1" y2="0" gradientUnits="userSpaceOnUse" gradientTransform="matrix(-83.3895,-7.63478,7.63478,-83.3895,122.801,170.103)"><stop offset="0" style="stop-color:#d9497a;stop-opacity:1"/><stop offset="0.28" style="stop-color:#ab406a;stop-opacity:1"/><stop offset="0.61" style="stop-color:#342840;stop-opacity:1"/><stop offset="0.79" style="stop-color:#4d2d56;stop-opacity:1"/><stop offset="1" style="stop-color:#542e5c;stop-opacity:1"/></linearGradient><linearGradient id="_Linear29" x1="0" y1="0" x2="1" y2="0" gradientUnits="userSpaceOnUse" gradientTransform="matrix(-83.3895,-7.63478,7.63478,-83.3895,122.801,170.103)"><stop offset="0" style="stop-color:#d9497a;stop-opacity:1"/><stop offset="0.28" style="stop-color:#ab406a;stop-opacity:1"/><stop offset="0.61" style="stop-color:#342840;stop-opacity:1"/><stop offset="0.79" style="stop-color:#4d2d56;stop-opacity:1"/><stop offset="1" style="stop-color:#542e5c;stop-opacity:1"/></linearGradient><linearGradient id="_Linear30" x1="0" y1="0" x2="1" y2="0" gradientUnits="userSpaceOnUse" gradientTransform="matrix(-83.3895,-7.63478,7.63478,-83.3895,122.801,170.103)"><stop offset="0" style="stop-color:#d9497a;stop-opacity:1"/><stop offset="0.28" style="stop-color:#ab406a;stop-opacity:1"/><stop offset="0.61" style="stop-color:#342840;stop-opacity:1"/><stop offset="0.79" style="stop-color:#4d2d56;stop-opacity:1"/><stop offset="1" style="stop-color:#542e5c;stop-opacity:1"/></linearGradient><linearGradient id="_Linear31" x1="0" y1="0" x2="1" y2="0" gradientUnits="userSpaceOnUse" gradientTransform="matrix(-83.3895,-7.63478,7.63478,-83.3895,122.801,170.103)"><stop offset="0" style="stop-color:#d9497a;stop-opacity:1"/><stop offset="0.28" style="stop-color:#ab406a;stop-opacity:1"/><stop offset="0.61" style="stop-color:#342840;stop-opacity:1"/><stop offset="0.79" style="stop-color:#4d2d56;stop-opacity:1"/><stop offset="1" style="stop-color:#542e5c;stop-opacity:1"/></linearGradient><linearGradient id="_Linear32" x1="0" y1="0" x2="1" y2="0" gradientUnits="userSpaceOnUse" gradientTransform="matrix(-83.3895,-7.63478,7.63478,-83.3895,122.801,170.103)"><stop offset="0" style="stop-color:#d9497a;stop-opacity:1"/><stop offset="0.28" style="stop-color:#ab406a;stop-opacity:1"/><stop offset="0.61" style="stop-color:#342840;stop-opacity:1"/><stop offset="0.79" style="stop-color:#4d2d56;stop-opacity:1"/><stop offset="1" style="stop-color:#542e5c;stop-opacity:1"/></linearGradient><linearGradient id="_Linear33" x1="0" y1="0" x2="1" y2="0" gradientUnits="userSpaceOnUse" gradientTransform="matrix(-83.3895,-7.63478,7.63478,-83.3895,122.801,170.103)"><stop offset="0" style="stop-color:#d9497a;stop-opacity:1"/><stop offset="0.28" style="stop-color:#ab406a;stop-opacity:1"/><stop offset="0.61" style="stop-color:#342840;stop-opacity:1"/><stop offset="0.79" style="stop-color:#4d2d56;stop-opacity:1"/><stop offset="1" style="stop-color:#542e5c;stop-opacity:1"/></linearGradient><linearGradient id="_Linear34" x1="0" y1="0" x2="1" y2="0" gradientUnits="userSpaceOnUse" gradientTransform="matrix(79.227,-10.8518,10.8518,79.227,192.569,162.455)"><stop offset="0" style="stop-color:#ff444a;stop-opacity:1"/><stop offset="0.25" style="stop-color:#fd3d25;stop-opacity:1"/><stop offset="0.6" style="stop-color:#d87306;stop-opacity:1"/><stop offset="1" style="stop-color:#fd882a;stop-opacity:1"/></linearGradient><linearGradient id="_Linear35" x1="0" y1="0" x2="1" y2="0" gradientUnits="userSpaceOnUse" gradientTransform="matrix(79.227,-10.8518,10.8518,79.227,192.569,162.455)"><stop offset="0" style="stop-color:#ff444a;stop-opacity:1"/><stop offset="0.25" style="stop-color:#fd3d25;stop-opacity:1"/><stop offset="0.6" style="stop-color:#d87306;stop-opacity:1"/><stop offset="1" style="stop-color:#fd882a;stop-opacity:1"/></linearGradient><linearGradient id="_Linear36" x1="0" y1="0" x2="1" y2="0" gradientUnits="userSpaceOnUse" gradientTransform="matrix(79.227,-10.8518,10.8518,79.227,192.569,162.455)"><stop offset="0" style="stop-color:#ff444a;stop-opacity:1"/><stop offset="0.25" style="stop-color:#fd3d25;stop-opacity:1"/><stop offset="0.6" style="stop-color:#d87306;stop-opacity:1"/><stop offset="1" style="stop-color:#fd882a;stop-opacity:1"/></linearGradient><linearGradient id="_Linear37" x1="0" y1="0" x2="1" y2="0" gradientUnits="userSpaceOnUse" gradientTransform="matrix(79.227,-10.8518,10.8518,79.227,192.569,162.455)"><stop offset="0" style="stop-color:#ff444a;stop-opacity:1"/><stop offset="0.25" style="stop-color:#fd3d25;stop-opacity:1"/><stop offset="0.6" style="stop-color:#d87306;stop-opacity:1"/><stop offset="1" style="stop-color:#fd882a;stop-opacity:1"/></linearGradient><linearGradient id="_Linear38" x1="0" y1="0" x2="1" y2="0" gradientUnits="userSpaceOnUse" gradientTransform="matrix(79.227,-10.8518,10.8518,79.227,192.569,162.455)"><stop offset="0" style="stop-color:#ff444a;stop-opacity:1"/><stop offset="0.25" style="stop-color:#fd3d25;stop-opacity:1"/><stop offset="0.6" style="stop-color:#d87306;stop-opacity:1"/><stop offset="1" style="stop-color:#fd882a;stop-opacity:1"/></linearGradient><linearGradient id="_Linear39" x1="0" y1="0" x2="1" y2="0" gradientUnits="userSpaceOnUse" gradientTransform="matrix(79.227,-10.8518,10.8518,79.227,192.569,162.455)"><stop offset="0" style="stop-color:#ff444a;stop-opacity:1"/><stop offset="0.25" style="stop-color:#fd3d25;stop-opacity:1"/><stop offset="0.6" style="stop-color:#d87306;stop-opacity:1"/><stop offset="1" style="stop-color:#fd882a;stop-opacity:1"/></linearGradient><linearGradient id="_Linear40" x1="0" y1="0" x2="1" y2="0" gradientUnits="userSpaceOnUse" gradientTransform="matrix(79.227,-10.8518,10.8518,79.227,192.569,162.455)"><stop offset="0" style="stop-color:#ff444a;stop-opacity:1"/><stop offset="0.25" style="stop-color:#fd3d25;stop-opacity:1"/><stop offset="0.6" style="stop-color:#d87306;stop-opacity:1"/><stop offset="1" style="stop-color:#fd882a;stop-opacity:1"/></linearGradient><radialGradient id="_Radial41" cx="0" cy="0" r="1" gradientUnits="userSpaceOnUse" gradientTransform="matrix(-62.8535,-43.4942,43.4942,-62.8535,151.041,107.243)"><stop offset="0" style="stop-color:#37a37f;stop-opacity:1"/><stop offset="0.6" style="stop-color:#194448;stop-opacity:1"/><stop offset="1" style="stop-color:#006c63;stop-opacity:1"/></radialGradient><radialGradient id="_Radial42" cx="0" cy="0" r="1" gradientUnits="userSpaceOnUse" gradientTransform="matrix(-62.8535,-43.4942,43.4942,-62.8535,151.041,107.243)"><stop offset="0" style="stop-color:#37a37f;stop-opacity:1"/><stop offset="0.6" style="stop-color:#194448;stop-opacity:1"/><stop offset="1" style="stop-color:#006c63;stop-opacity:1"/></radialGradient><radialGradient id="_Radial43" cx="0" cy="0" r="1" gradientUnits="userSpaceOnUse" gradientTransform="matrix(-62.8535,-43.4942,43.4942,-62.8535,151.041,107.243)"><stop offset="0" style="stop-color:#37a37f;stop-opacity:1"/><stop offset="0.6" style="stop-color:#194448;stop-opacity:1"/><stop offset="1" style="stop-color:#006c63;stop-opacity:1"/></radialGradient><radialGradient id="_Radial44" cx="0" cy="0" r="1" gradientUnits="userSpaceOnUse" gradientTransform="matrix(-62.8535,-43.4942,43.4942,-62.8535,151.041,107.243)"><stop offset="0" style="stop-color:#37a37f;stop-opacity:1"/><stop offset="0.6" style="stop-color:#194448;stop-opacity:1"/><stop offset="1" style="stop-color:#006c63;stop-opacity:1"/></radialGradient><radialGradient id="_Radial45" cx="0" cy="0" r="1" gradientUnits="userSpaceOnUse" gradientTransform="matrix(43.5751,-56.9086,56.9086,43.5751,162.389,106.861)"><stop offset="0" style="stop-color:#3f9470;stop-opacity:1"/><stop offset="0.25" style="stop-color:#3d8462;stop-opacity:1"/><stop offset="0.5" style="stop-color:#375536;stop-opacity:1"/><stop offset="1" style="stop-color:#487f3e;stop-opacity:1"/></radialGradient><radialGradient id="_Radial46" cx="0" cy="0" r="1" gradientUnits="userSpaceOnUse" gradientTransform="matrix(43.5751,-56.9086,56.9086,43.5751,162.389,106.861)"><stop offset="0" style="stop-color:#3f9470;stop-opacity:1"/><stop offset="0.25" style="stop-color:#3d8462;stop-opacity:1"/><stop offset="0.5" style="stop-color:#375536;stop-opacity:1"/><stop offset="1" style="stop-color:#487f3e;stop-opacity:1"/></radialGradient><radialGradient id="_Radial47" cx="0" cy="0" r="1" gradientUnits="userSpaceOnUse" gradientTransform="matrix(43.5751,-56.9086,56.9086,43.5751,162.389,106.861)"><stop offset="0" style="stop-color:#3f9470;stop-opacity:1"/><stop offset="0.25" style="stop-color:#3d8462;stop-opacity:1"/><stop offset="0.5" style="stop-color:#375536;stop-opacity:1"/><stop offset="1" style="stop-color:#487f3e;stop-opacity:1"/></radialGradient><radialGradient id="_Radial48" cx="0" cy="0" r="1" gradientUnits="userSpaceOnUse" gradientTransform="matrix(43.5751,-56.9086,56.9086,43.5751,162.389,106.861)"><stop offset="0" style="stop-color:#3f9470;stop-opacity:1"/><stop offset="0.25" style="stop-color:#3d8462;stop-opacity:1"/><stop offset="0.5" style="stop-color:#375536;stop-opacity:1"/><stop offset="1" style="stop-color:#487f3e;stop-opacity:1"/></radialGradient><radialGradient id="_Radial49" cx="0" cy="0" r="1" gradientUnits="userSpaceOnUse" gradientTransform="matrix(43.5751,-56.9086,56.9086,43.5751,162.389,106.861)"><stop offset="0" style="stop-color:#3f9470;stop-opacity:1"/><stop offset="0.25" style="stop-color:#3d8462;stop-opacity:1"/><stop offset="0.5" style="stop-color:#375536;stop-opacity:1"/><stop offset="1" style="stop-color:#487f3e;stop-opacity:1"/></radialGradient><radialGradient id="_Radial50" cx="0" cy="0" r="1" gradientUnits="userSpaceOnUse" gradientTransform="matrix(43.5751,-56.9086,56.9086,43.5751,162.389,106.861)"><stop offset="0" style="stop-color:#3f9470;stop-opacity:1"/><stop offset="0.25" style="stop-color:#3d8462;stop-opacity:1"/><stop offset="0.5" style="stop-color:#375536;stop-opacity:1"/><stop offset="1" style="stop-color:#487f3e;stop-opacity:1"/></radialGradient><linearGradient id="_Linear51" x1="0" y1="0" x2="1" y2="0" gradientUnits="userSpaceOnUse" gradientTransform="matrix(21.542,-51.5264,51.5264,21.542,158.151,92.328)"><stop offset="0" style="stop-color:#1a473d;stop-opacity:1"/><stop offset="1" style="stop-color:#1f6949;stop-opacity:1"/></linearGradient><linearGradient id="_Linear52" x1="0" y1="0" x2="1" y2="0" gradientUnits="userSpaceOnUse" gradientTransform="matrix(21.542,-51.5264,51.5264,21.542,158.151,92.328)"><stop offset="0" style="stop-color:#1a473d;stop-opacity:1"/><stop offset="1" style="stop-color:#1f6949;stop-opacity:1"/></linearGradient><linearGradient id="_Linear53" x1="0" y1="0" x2="1" y2="0" gradientUnits="userSpaceOnUse" gradientTransform="matrix(5.47033,-32.5713,32.5713,5.47033,158.049,173.621)"><stop offset="0" style="stop-color:#979f34;stop-opacity:1"/><stop offset="1" style="stop-color:#bdbf38;stop-opacity:1"/></linearGradient><linearGradient id="_Linear54" x1="0" y1="0" x2="1" y2="0" gradientUnits="userSpaceOnUse" gradientTransform="matrix(53.4035,-27.374,27.374,53.4035,164.186,173.064)"><stop offset="0" style="stop-color:#c31a5a;stop-opacity:1"/><stop offset="0.15" style="stop-color:#c92252;stop-opacity:1"/><stop offset="0.21" style="stop-color:#d63342;stop-opacity:1"/><stop offset="0.26" style="stop-color:#e24332;stop-opacity:1"/><stop offset="0.41" style="stop-color:#ee522d;stop-opacity:1"/><stop offset="0.57" style="stop-color:#fa6029;stop-opacity:1"/><stop offset="1" style="stop-color:#ff6727;stop-opacity:1"/></linearGradient><linearGradient id="_Linear55" x1="0" y1="0" x2="1" y2="0" gradientUnits="userSpaceOnUse" gradientTransform="matrix(-119.75,-147.729,147.729,-119.75,223.211,267.508)"><stop offset="0" style="stop-color:#812956;stop-opacity:1"/><stop offset="1" style="stop-color:#423751;stop-opacity:1"/></linearGradient><radialGradient id="_Radial56" cx="0" cy="0" r="1" gradientUnits="userSpaceOnUse" gradientTransform="matrix(60.2916,72.793,-38.7148,32.0659,117.829,207.864)"><stop offset="0" style="stop-color:#411836;stop-opacity:1"/><stop offset="0.42" style="stop-color:#4d1d3d;stop-opacity:1"/><stop offset="1" style="stop-color:#67284c;stop-opacity:1"/></radialGradient></defs></svg>